<?xml version="1.0" standalone="no"?>
<!DOCTYPE svg PUBLIC "-//W3C//DTD SVG 1.1//EN" "http://www.w3.org/Graphics/SVG/1.1/DTD/svg11.dtd" >
<svg>
<metadata>
Created by FontForge 20090914 at Tue Mar 29 16:57:41 2016
 By www-data
Vanessa Bays @ ByTheButterfly.com
</metadata>
<defs>
<font id="CutiePatootie" horiz-adv-x="400" >
  <font-face 
    font-family="Cutie Patootie"
    font-weight="500"
    font-stretch="normal"
    units-per-em="1000"
    panose-1="2 0 6 3 0 0 0 0 0 0"
    ascent="800"
    descent="-200"
    x-height="491.999"
    cap-height="706.002"
    bbox="-156.787 -239.003 871.622 869.499"
    underline-thickness="50"
    underline-position="-100"
    unicode-range="U+0020-U+F8FF"
  />
<missing-glyph horiz-adv-x="364" 
d="M66 33h199v600h-199v-600zM33 0v666h265v-666h-265z" />
    <glyph glyph-name=".notdef" horiz-adv-x="364" 
d="M66 33h199v600h-199v-600zM33 0v666h265v-666h-265z" />
    <glyph glyph-name="space" unicode=" " horiz-adv-x="300" 
 />
    <glyph glyph-name="exclam" unicode="!" horiz-adv-x="134" 
d="M101 701c4 -19.333 7.16504 -39.501 9.49805 -60.501l6 -56s2.5 -37 2.5 -62s0.166992 -44 0.5 -57s-0.166992 -33.667 -1.5 -62s-2.16602 -47.166 -2.49902 -56.499s-1.83301 -30 -4.5 -62s-4.16699 -50.667 -4.5 -56s-2.16602 -25.5 -5.49902 -60.5s-5 -53.5 -5 -55.5
c-0.666992 -8.66699 -4.33398 -15.834 -11.001 -21.501s-14 -8.16699 -22 -7.5s-14.667 4.66699 -20 12s-7.66602 15.333 -6.99902 24c0.666992 7.33301 2 19.333 4 36c7.33301 80.667 12.5 143 15.5 187s4 99.167 3 165.5s-6.16699 126.166 -15.5 179.499
c-2 8.66699 -0.666992 16.834 4 24.501s11 12.334 19 14.001s15.5 0 22.5 -5s11.167 -11.833 12.5 -20.5zM99.998 29.999c0 -8 -3 -15 -9 -21s-13 -9 -21 -9s-15 3 -21 9s-9 13 -9 21s3 15 9 21s13 9 21 9s15 -3 21 -9s9 -13 9 -21z" />
    <glyph glyph-name="quotedbl" unicode="&#x22;" horiz-adv-x="222" 
d="M84 665c-0.666992 -22 -0.333984 -51.999 0.999023 -89.999c2 -56.667 3 -87.667 3 -93c0 -8 -3 -15 -9 -21s-13 -9 -21 -9s-15 3 -21 9s-9 13 -9 21c0 16 -1 46.333 -3 91c-1.33301 39.333 -1.66602 70.666 -0.999023 93.999c0 8 3.16699 14.833 9.5 20.5
s13.5 8.5 21.5 8.5s14.833 -3.16699 20.5 -9.5s8.5 -13.5 8.5 -21.5zM165 665.001c0 -37.333 3.66406 -103.332 10.9971 -197.999c0.666992 -8 -1.66602 -15.167 -6.99902 -21.5s-12.166 -9.83301 -20.499 -10.5s-15.666 1.66602 -21.999 6.99902s-9.83301 12.333 -10.5 21
c-7.33301 96 -11 163.333 -11 202c0 8 3 15 9 21s13 9 21 9s15 -3 21 -9s9 -13 9 -21z" />
    <glyph glyph-name="numbersign" unicode="#" horiz-adv-x="587" 
d="M319 249c0 9.33301 0.5 30.002 1.5 62.002s1.83301 56.667 2.5 74c-22.667 -4.66699 -44 -8.66699 -64 -12c-1.33301 -52.667 -3.66602 -98.334 -6.99902 -137.001c25.333 5.33301 47.666 9.66602 66.999 12.999zM317 188.002l-72.0029 -15l-14 -95l-9 -56
c-0.666992 -1.33301 -1 -2.66602 -1 -3.99902c-0.666992 -3.33301 -2 -6.33301 -4 -9c-3.33301 -7.33301 -9.33301 -12 -18 -14c-7.33301 -2 -13.833 -1.5 -19.5 1.5s-9.5 5.66699 -11.5 8s-3.33301 4.5 -4 6.5c-2 4 -3 8 -3 12v5c0.666992 4.66699 1.66699 14 3 28
c0.666992 4 2.33398 8 5.00098 12l3 19l11 72l-106 -21c-8 -1.33301 -15.333 0.333984 -22 5.00098s-10.834 11.167 -12.501 19.5s-0.166992 15.833 4.5 22.5s11.334 11 20.001 13c32 5.33301 73.333 13.333 124 24c3.33301 41.333 6 88.666 8 141.999
c-40 -4.66699 -78.333 -7.33398 -115 -8.00098c-8 0 -15 2.83301 -21 8.5s-9 12.667 -9 21s2.83301 15.5 8.5 21.5s12.834 9 21.501 9c36.667 0.666992 75.667 3.66699 117 9c2.66699 92.667 4.33398 148.334 5.00098 167.001c0.666992 8.66699 4 15.667 10 21
s13.167 7.83301 21.5 7.5s15.166 -3.5 20.499 -9.5s8 -13 8 -21c-1.33301 -24 -3 -75.667 -5 -155c20 3.33301 41 7.33301 63 12c1.33301 52 2 99 2 141c0 8 3 15 9 21s13 9 21 9s15 -3 21 -9s9 -13 9 -21c0 -38.667 -0.333008 -81.334 -1 -128.001l143 33
c8.66699 2 16.5 0.833008 23.5 -3.5s11.333 -10.666 13 -18.999s0.333984 -16 -3.99902 -23s-10.5 -11.167 -18.5 -12.5l-159 -37c0 -6.66699 -1.33301 -52.667 -4 -138c58 10 113.333 16.333 166 19c8.66699 0.666992 16 -1.83301 22 -7.5s9.33301 -12.667 10 -21
s-1.83301 -15.5 -7.5 -21.5s-12.5 -9.33301 -20.5 -10c-54.667 -3.33301 -111.667 -10 -171 -20c-2 -70.667 -3 -131.667 -3 -183c0 -8 -3 -15 -9 -21s-13 -9 -21 -9s-15 3 -21 9s-9 13 -9 21c0 49.333 0.666992 106.666 2 171.999z" />
    <glyph glyph-name="dollar" unicode="$" horiz-adv-x="337" 
d="M159 420c-0.666992 48 -2.66699 95.332 -6 141.999c-19.333 -23.333 -28 -48.333 -26 -75c1.33301 -19.333 12 -41.666 32 -66.999zM215 243.999c-2.66699 -58 -7.33398 -117 -14.001 -177c17.333 16.667 27.333 43.667 30 81c2.66699 34.667 -2.66602 66.667 -15.999 96
zM267 449.999c-0.666992 3.33301 -2.99512 16.0059 -6.99512 38.0059c-2.66699 14.667 -5.33398 27 -8.00098 37c-6.66699 24 -15.667 40 -27 48c-4 3.33301 -8.33301 5.66602 -13 6.99902c6 -74.667 8.33301 -151.334 7 -230.001c24.667 -30 43.667 -61.333 57 -94
s18.333 -70 15 -112c-2.66699 -39.333 -12.834 -72.5 -30.501 -99.5s-40.167 -43.5 -67.5 -49.5c-3.33301 -26 -7 -52 -11 -78c-1.33301 -8.66699 -5.33301 -15.5 -12 -20.5s-14.167 -6.83301 -22.5 -5.5s-15 5.33301 -20 12s-6.83301 14 -5.5 22
c4 25.333 7.66699 50.666 11 75.999c-26 10 -47.833 29.833 -65.5 59.5s-29.167 65.5 -34.5 107.5c-0.666992 8.66699 1.5 16.167 6.5 22.5s11.667 10 20 11s15.666 -1 21.999 -6s10.166 -11.5 11.499 -19.5c6.66699 -52.667 22.667 -89.334 48 -110.001
c10 90 16 177.667 18 263c-1.33301 0.666992 -7.66602 7.5 -18.999 20.5s-18.333 21.167 -21 24.5l-18 23c-8.66699 11.333 -14.5 20.666 -17.5 27.999s-6.33301 16.333 -10 27s-5.83398 21 -6.50098 31c-1.33301 22.667 2.66699 45.667 12 69s22 43 38 59
c9.33301 8.66699 19.333 16 30 22c-1.33301 14.667 -3 29.334 -5 44.001c-0.666992 8.66699 1.5 16.167 6.5 22.5s11.667 10 20 11s15.666 -1 21.999 -6s10.166 -11.5 11.499 -19.5l4 -41c18.667 -2.66699 37 -10.334 55 -23.001c22.667 -16 39 -43 49 -81
c2.66699 -10.667 5.66699 -24.667 9 -42c3.33301 -18.667 5.33301 -30 6 -34c2 -8.66699 0.833008 -16.5 -3.5 -23.5s-10.666 -11.333 -18.999 -13s-16 -0.333984 -23 3.99902s-11.167 10.5 -12.5 18.5z" />
    <glyph glyph-name="percent" unicode="%" horiz-adv-x="500" 
d="M39 53c10.667 34 33.002 81.0029 67.002 141.003c84.667 149.333 193.667 308.666 327 477.999c5.33301 6 12.166 9.5 20.499 10.5s15.666 -1 21.999 -6s10 -11.667 11 -20s-0.833008 -15.833 -5.5 -22.5c-132.667 -167.333 -240.334 -324 -323.001 -470
c-31.333 -56 -51.666 -99 -60.999 -129c-2.66699 -8 -7.66699 -13.833 -15 -17.5s-15 -4.33398 -23 -2.00098s-13.833 7.16602 -17.5 14.499s-4.5 15 -2.5 23zM176.002 572.003c0 -8 -3 -15 -9 -21s-13 -9 -21 -9s-15 3 -21 9s-9 13 -9 21s3 15 9 21s13 9 21 9s15 -3 21 -9
s9 -13 9 -21zM320.002 69.0029c0 -8 -3 -15 -9 -21s-13 -9 -21 -9s-15 3 -21 9s-9 13 -9 21s3 15 9 21s13 9 21 9s15 -3 21 -9s9 -13 9 -21z" />
    <glyph glyph-name="ampersand" unicode="&#x26;" horiz-adv-x="565" 
d="M272 275c96 16 181.323 33.333 255.99 52c8 2 15.5 1 22.5 -3s11.5 -10.167 13.5 -18.5s1 -16 -3 -23s-10.333 -11.5 -19 -13.5c-32.667 -8.66699 -67 -16.667 -103 -24c-31.333 -58 -73.666 -111.333 -126.999 -160c-75.333 -67.333 -142.666 -92.666 -201.999 -75.999
c-34 10 -54 33 -60 69c-4.66699 24.667 -1.66699 54.334 9 89.001c8 27.333 18.667 54.333 32 81c14 26.667 26.333 47 37 61c2 2 5.66699 6 11 12c-11.333 -3.33301 -21.666 -4.66602 -30.999 -3.99902c-25.333 0 -43.666 9 -54.999 27c-12 20.667 -12 52.334 0 95.001
c10.667 36 27.334 72.667 50.001 110c25.333 40.667 53 72.667 83 96c38 29.333 75.667 40.666 113 33.999c32 -6 53.333 -24.667 64 -56c4.66699 -12 8.33398 -33.333 11.001 -64c0.666992 -8 -1.66602 -15.167 -6.99902 -21.5s-12.166 -9.83301 -20.499 -10.5
s-15.666 1.66602 -21.999 6.99902s-9.83301 12.333 -10.5 21c-2 24.667 -4.33301 40.667 -7 48c-3.33301 9.33301 -9.33301 14.666 -18 15.999c-20 4 -42 -3.33301 -66 -22c-24.667 -18.667 -47.667 -45.334 -69 -80.001c-20 -32.667 -34.333 -64.334 -43 -95.001
c-6 -20.667 -8.33301 -35.667 -7 -45h4c8 -0.666992 19 1.66602 33 6.99902c10.667 4 24.334 9.66699 41.001 17c20.667 9.33301 31.334 14.333 32.001 15c1.33301 0.666992 4.16602 2.33398 8.49902 5.00098s8.83301 5 13.5 7c8 4.66699 15 7.33398 21 8.00098
c12.667 1.33301 22.667 -2.66699 30 -12c6 -8.66699 7.66699 -18.667 5 -30l-6 -11c0 -0.666992 -0.333008 -1 -1 -1v-1h-1v-1h-1l-3 -4l-12 -11l-36 -36c-34.667 -34.667 -53.334 -54 -56.001 -58c-8.66699 -10 -19 -26.833 -31 -50.5s-21.333 -47.167 -28 -70.5
c-8 -26 -10.667 -46.667 -8 -62c2 -11.333 7.66699 -18.333 17 -21c38.667 -11.333 87.334 9.66699 146.001 63c32 28.667 60.667 61.667 86 99l-76 -14c-8 -1.33301 -15.5 0.5 -22.5 5.5s-11.167 11.5 -12.5 19.5s0.5 15.5 5.5 22.5s11.5 11.167 19.5 12.5z" />
    <glyph glyph-name="quotesingle" unicode="'" horiz-adv-x="100" 
d="M82 714c0 -8.66699 -0.166992 -26.8311 -0.5 -54.498s-1 -51.334 -2 -71.001s-2.83301 -38.834 -5.5 -57.501c-1.33301 -8 -5.33301 -14.5 -12 -19.5s-14 -7 -22 -6s-14.5 4.83301 -19.5 11.5s-7.16699 14 -6.5 22c2.66699 17.333 4.5 35 5.5 53s1.66699 40.333 2 67
s0.5 45.667 0.5 57c0 8 3 14.833 9 20.5s13.167 8.5 21.5 8.5s15.333 -3 21 -9s8.5 -13.333 8.5 -22z" />
    <glyph glyph-name="parenleft" unicode="(" horiz-adv-x="200" 
d="M174 713c-22 -41.333 -40.4941 -93.3311 -55.4941 -155.998s-24.833 -128.334 -29.5 -197.001c-4.66699 -70.667 -3.33398 -137.167 3.99902 -199.5s20.666 -113.833 39.999 -154.5c3.33301 -7.33301 3.66602 -15 0.999023 -23s-7.66699 -13.667 -15 -17
s-15 -3.66602 -23 -0.999023s-13.667 7.66699 -17 15c-22 48 -37 105.333 -45 172c-8.66699 66 -10.334 136.667 -5.00098 212c5.33301 73.333 15.666 142.666 30.999 207.999c16 66 36.667 122.333 62 169c4 7.33301 9.83301 12.166 17.5 14.499s15.167 1.5 22.5 -2.5
s12.166 -9.83301 14.499 -17.5s1.5 -15.167 -2.5 -22.5z" />
    <glyph glyph-name="parenright" unicode=")" horiz-adv-x="172" 
d="M23 9c22 40.667 40.165 92.3311 54.498 154.998s23.833 128.667 28.5 198c4 70.667 2 137.334 -6 200.001s-21.667 114 -41 154c-3.33301 7.33301 -3.66602 15 -0.999023 23s7.66699 13.667 15 17s15 3.66602 23 0.999023s13.667 -7.66699 17 -15
c22.667 -46 38 -102.667 46 -170c8.66699 -66.667 10.667 -137.667 6 -213c-4.66699 -74 -14.667 -143.667 -30 -209c-15.333 -67.333 -35.333 -123.666 -60 -168.999c-4 -7.33301 -9.83301 -12.166 -17.5 -14.499s-15.167 -1.5 -22.5 2.5s-12.166 9.83301 -14.499 17.5
s-1.5 15.167 2.5 22.5z" />
    <glyph glyph-name="asterisk" unicode="*" horiz-adv-x="372" 
d="M272 518l81.002 -64.002c6.66699 -5.33301 10.5 -12.166 11.5 -20.499s-1 -15.666 -6 -21.999s-11.667 -10 -20 -11s-15.5 0.833008 -21.5 5.5l-69 55v-90c0 -8 -3 -15 -9 -21s-13 -9 -21 -9s-15 3 -21 9s-9 13 -9 21v97c-40.667 -23.333 -76.667 -41 -108 -53
c-8 -2.66699 -15.833 -2.33398 -23.5 0.999023s-12.834 8.83301 -15.501 16.5s-2.33398 15.334 0.999023 23.001s8.66602 12.834 15.999 15.501c30.667 12 66.667 30 108 54l-85 64c-6.66699 4.66699 -10.667 11.167 -12 19.5s0.5 15.833 5.5 22.5s11.667 10.667 20 12
s15.833 -0.666992 22.5 -6l71 -53c0 27.333 0.333008 53 1 77c0 8 3 14.833 9 20.5s13.167 8.5 21.5 8.5s15.333 -3 21 -9s8.5 -13.333 8.5 -22c-0.666992 -26 -1 -54.667 -1 -86c27.333 16.667 51.333 30 72 40c7.33301 3.33301 14.833 3.83301 22.5 1.5
s13.334 -7.33301 17.001 -15s4.33398 -15.334 2.00098 -23.001s-7.5 -13.5 -15.5 -17.5c-20.667 -10 -45.334 -23.667 -74.001 -41z" />
    <glyph glyph-name="plus" unicode="+" horiz-adv-x="300" 
d="M145 329c-23.333 -0.666992 -47.3359 -1.00195 -72.0029 -1.00195c-8 0 -15 3 -21 9s-9 13 -9 21s3 15 9 21s13 9 21 9c25.333 0 49.666 0.333008 72.999 1c0 6 0.5 18.833 1.5 38.5s1.5 34.834 1.5 45.501c0 8 3 14.833 9 20.5s13.167 8.5 21.5 8.5s15.333 -3 21 -9
s8.5 -13.333 8.5 -22c0 -8 -0.166992 -16.5 -0.5 -25.5s-0.833008 -18.667 -1.5 -29s-1 -18.5 -1 -24.5c25.333 2 50.333 4.33301 75 7c8 0.666992 15.167 -1.5 21.5 -6.5s10 -11.667 11 -20s-1 -15.666 -6 -21.999s-11.833 -10.166 -20.5 -11.499
c-27.333 -2.66699 -54.666 -5 -81.999 -7c-0.666992 -34 0.333008 -65 3 -93c0.666992 -8.66699 -1.66602 -16.167 -6.99902 -22.5s-12.166 -9.83301 -20.499 -10.5s-15.666 1.66602 -21.999 6.99902s-9.83301 12 -10.5 20c-2.66699 30 -3.66699 62 -3 96z" />
    <glyph glyph-name="comma" unicode="," horiz-adv-x="137" 
d="M138 68c-2 -42.667 -10.332 -75.333 -24.999 -98c-10.667 -16 -34 -37.667 -70 -65c-6.66699 -4.66699 -14 -6.5 -22 -5.5s-14.5 4.83301 -19.5 11.5s-7 14 -6 22s4.83301 14.667 11.5 20c30 23.333 48.667 40 56 50c8.66699 14 13.667 36.333 15 67
c0.666992 8.66699 4 15.667 10 21s13.167 7.83301 21.5 7.5s15.166 -3.5 20.499 -9.5s8 -13 8 -21z" />
    <glyph glyph-name="hyphen" unicode="-" horiz-adv-x="300" 
d="M45 343c14 0 27.834 0.333008 41.501 1s28.5 2 44.5 4s29 3.5 39 4.5s25.167 3 45.5 6s34.5 5.16699 42.5 6.5c8 0.666992 15.333 -1.5 22 -6.5s10.5 -11.5 11.5 -19.5s-1 -15.333 -6 -22s-11.5 -10.667 -19.5 -12c-7.33301 -0.666992 -21.333 -2.5 -42 -5.5
s-36.167 -5.16699 -46.5 -6.5s-24 -3 -41 -5s-32.833 -3.33301 -47.5 -4s-29.334 -1 -44.001 -1c-8 0 -15 3 -21 9s-9 13 -9 21s3 15 9 21s13 9 21 9z" />
    <glyph glyph-name="period" unicode="." horiz-adv-x="97" 
d="M98 35c0 -8 -3 -15 -9 -21s-13 -9 -21 -9s-15 3 -21 9s-9 13 -9 21s3 15 9 21s13 9 21 9s15 -3 21 -9s9 -13 9 -21z" />
    <glyph glyph-name="slash" unicode="/" horiz-adv-x="434" 
d="M19 17c39.333 89.333 98.3359 203.336 177.003 342.003c100.667 177.333 162 288.333 184 333c4 7.33301 10 12.166 18 14.499s15.667 1.66602 23 -2.00098s12.166 -9.5 14.499 -17.5s1.83301 -15.667 -1.5 -23c-26 -50 -88 -161.667 -186 -335
c-77.333 -136.667 -135.666 -248.667 -174.999 -336c-3.33301 -8 -8.83301 -13.333 -16.5 -16s-15.334 -2.33398 -23.001 0.999023s-12.834 8.83301 -15.501 16.5s-2.33398 15.167 0.999023 22.5z" />
    <glyph glyph-name="zero" unicode="0" horiz-adv-x="416" 
d="M232 637c-24.667 -4.66699 -48 -28.001 -70 -70.001c-27.333 -52 -46 -116.333 -56 -193c-10 -78.667 -8 -149 6 -211c14.667 -63.333 39 -103.333 73 -120c39.333 -19.333 74 -12.666 104 20.001c28 29.333 48.333 70.333 61 123c6.66699 28.667 10 64.167 10 106.5
s-3.66699 86.5 -11 132.5c-18.667 101.333 -50.667 168 -96 200c-6 4.66699 -13 8.66699 -21 12zM264 687.999c9.33301 -4.66699 17 -9.00195 23 -13.002c59.333 -42 99.666 -122 120.999 -240c8.66699 -48 12.834 -95.5 12.501 -142.5s-4.5 -87.167 -12.5 -120.5
c-15.333 -62.667 -40.333 -112.667 -75 -150c-14.667 -16 -30.334 -28.333 -47.001 -37c-17.333 -8.66699 -37 -13 -59 -13s-44.667 5.66699 -68 17c-52 25.333 -87 79 -105 161c-16 68 -18.333 145.333 -7 232c10.667 85.333 31.334 156.333 62.001 213
c20 38.667 43 66.334 69 83.001c-0.666992 6 0.333008 11.333 3 16c4 8 9.83301 13.167 17.5 15.5s15.167 1.83301 22.5 -1.5c2.66699 -1.33301 10 -4.66602 22 -9.99902c8.66699 0 15.667 -3.33301 21 -10z" />
    <glyph glyph-name="one" unicode="1" horiz-adv-x="131" 
d="M110 684c0 -74.667 0.5 -186.834 1.5 -336.501s1.5 -261.834 1.5 -336.501c0 -8 -3 -15 -9 -21s-13 -9 -21 -9s-15 3 -21 9s-9 13 -9 21c0 74.667 -0.5 186.834 -1.5 336.501s-1.5 261.834 -1.5 336.501c0 8 3 15 9 21s13 9 21 9s15 -3 21 -9s9 -13 9 -21z" />
    <glyph glyph-name="two" unicode="2" horiz-adv-x="459" 
d="M74 560c35.333 48 68.3281 82.666 98.9951 103.999c28.667 20.667 58.167 33 88.5 37s57.833 -1.33301 82.5 -16s41.334 -37 50.001 -67s8.33398 -63.333 -0.999023 -100c-4.66699 -19.333 -11.334 -39.5 -20.001 -60.5s-16.834 -39.333 -24.501 -55
s-18.5 -34.834 -32.5 -57.501l-33 -51l-37 -52c-16.667 -24 -27 -39.333 -31 -46l-36 -52l-6 -10l10 2c54 10 98.5 11 133.5 3s74.833 -26.667 119.5 -56c6.66699 -4.66699 10.834 -11 12.501 -19s0.166992 -15.5 -4.5 -22.5s-11 -11.333 -19 -13s-15.667 -0.166992 -23 4.5
c-38 25.333 -70.833 41.166 -98.5 47.499s-63.834 5.5 -108.501 -2.5c-34.667 -7.33301 -57.334 -15 -68.001 -23c-4 -2.66699 -10.333 -9 -19 -19c-11.333 -12.667 -21.333 -21.667 -30 -27c-0.666992 -0.666992 -1.66699 -1.33398 -3 -2.00098
s-4.16602 -1.5 -8.49902 -2.5s-8.16602 -0.833008 -11.499 0.5c-11.333 2.66699 -18.666 9.33398 -21.999 20.001c-1.33301 4.66699 -1.66602 9.33398 -0.999023 14.001l4 10c0.666992 1.33301 1.66699 3 3 5c2 3.33301 5.33301 8.33301 10 15l39 54
c25.333 34.667 40 54.334 44 59.001c0.666992 1.33301 1.33398 2 2.00098 2l31 46l33 47l36 52c6.66699 10 16.667 25.833 30 47.5s23.5 39.5 30.5 53.5s14.5 30.333 22.5 49s14 36.334 18 53.001c5.33301 30.667 5.83301 53.667 1.5 69s-12.5 26.333 -24.5 33
c-8.66699 7.33301 -23 9.83301 -43 7.5s-40.667 -10.833 -62 -25.5c-25.333 -18 -53.666 -48.667 -84.999 -92c-4.66699 -6.66699 -11.167 -10.667 -19.5 -12s-15.833 0.5 -22.5 5.5s-10.667 11.667 -12 20s0.666992 15.833 6 22.5z" />
    <glyph glyph-name="three" unicode="3" horiz-adv-x="434" 
d="M116 685l97.9951 7.00293c46.667 3.33301 72.667 5 78 5c0.666992 0 2 0.333008 4 1c6 1.33301 10 2 12 2c20 2.66699 34.667 -3.33301 44 -18c7.33301 -11.333 8.33301 -25.333 3 -42c-3.33301 -9.33301 -8.66602 -20.333 -15.999 -33
c-10.667 -19.333 -27.334 -43.666 -50.001 -72.999l-42 -54c21.333 -2.66699 40.333 -7 57 -13c77.333 -26.667 118.333 -90 123 -190c2.66699 -52.667 -9.33301 -101.667 -36 -147c-26 -46 -60 -80.333 -102 -103c-28.667 -15.333 -58.167 -23.5 -88.5 -24.5
s-60.5 7 -90.5 24s-56 43.167 -78 78.5c-4 7.33301 -5 15 -3 23s6.5 14.167 13.5 18.5s14.5 5.5 22.5 3.5s14.333 -6.33301 19 -13c15.333 -26 33.5 -45.167 54.5 -57.5s41.5 -18 61.5 -17s40.333 6.83301 61 17.5c32 17.333 58.167 43.833 78.5 79.5
s29.5 74.167 27.5 115.5c-3.33301 72.667 -30.666 118 -81.999 136c-15.333 4.66699 -35.666 8 -60.999 10c-13.333 1.33301 -22 2.33301 -26 3c-5.33301 0.666992 -9.66602 1.66699 -12.999 3c-8.66699 3.33301 -15.334 8.33301 -20.001 15
c-3.33301 6 -4.66602 12.667 -3.99902 20c0.666992 2 1.33398 4.33301 2.00098 7l2 4c0.666992 1.33301 1.33398 2.33301 2.00098 3s1.33398 1.66699 2.00098 3l5 6l17 21l51 64c20 27.333 35 49.666 45 66.999c-2 0 -25 -1.66699 -69 -5l-98 -7
c-8 -0.666992 -15.167 1.66602 -21.5 6.99902s-9.83301 12.166 -10.5 20.499s1.66602 15.666 6.99902 21.999s12.333 9.83301 21 10.5z" />
    <glyph glyph-name="four" unicode="4" horiz-adv-x="500" 
d="M275 271c-1.33301 118 -3.66797 213.334 -7.00098 286.001c-13.333 -30.667 -41 -88.334 -83 -173.001c-18 -37.333 -41.333 -77.333 -70 -120c0 -0.666992 -0.333008 -1.66699 -1 -3l14 2c52 4.66699 79.333 7 82 7c18.667 0.666992 40.334 1 65.001 1zM310.998 731.001
c8 -8 10.666 -17.334 7.99902 -28.001l-1 -5c9.33301 -104.667 15 -247.667 17 -429c60 -0.666992 108 3.33301 144 12c8 2 15.5 0.833008 22.5 -3.5s11.5 -10.5 13.5 -18.5s0.833008 -15.5 -3.5 -22.5s-10.5 -11.5 -18.5 -13.5c-39.333 -10 -91.666 -14.667 -156.999 -14
c0.666992 -82 1.33398 -144 2.00098 -186c0 -8.66699 -2.83301 -16 -8.5 -22s-12.667 -9 -21 -9s-15.5 2.83301 -21.5 8.5s-9 12.5 -9 20.5c-0.666992 43.333 -1.33398 106.333 -2.00098 189c-26.667 0.666992 -48 0.666992 -64 0c-1.33301 0 -27.666 -2.33301 -78.999 -7
c-22 -2 -38.667 -3.66699 -50 -5c-8 0 -13.667 -0.333008 -17 -1h-6h-4h-1h-2c-2.66699 0 -6.33398 1.33301 -11.001 4c-10.667 6 -15.667 15.333 -15 28c0 3.33301 0.666992 7 2 11c0.666992 3.33301 2.33398 7 5.00098 11c2.66699 5.33301 7 12 13 20l13 19l4 6h1
c26.667 41.333 48.667 79.333 66 114c1.33301 2 7.33301 13.667 18 35l18 39l16 34c9.33301 18.667 15.333 31.334 18 38.001l16 35l16 39l12 35c4.66699 13.333 8.66699 26 12 38l-1 9c-0.666992 8 1.66602 15.333 6.99902 22s12 10.334 20 11.001
c12 1.33301 21.333 -3.33398 28 -14.001z" />
    <glyph glyph-name="five" unicode="5" 
d="M362 650c-14.667 -4 -29.166 -7.17578 -43.499 -9.50879s-30 -4.16602 -47 -5.49902s-30 -2.16602 -39 -2.49902s-24.333 -0.666016 -46 -0.999023s-35.167 -0.5 -40.5 -0.5c-3.33301 0 -7.66602 0.333008 -12.999 1h-1c-0.666992 -0.666992 -1 -1.66699 -1 -3
c-2 -8.66699 -3.33301 -20.667 -4 -36c0 -9.33301 -0.333008 -28.666 -1 -57.999c25.333 30.667 55.166 50.334 89.499 59.001s66.166 0.333984 95.499 -24.999c21.333 -18.667 40 -46.334 56 -83.001c13.333 -29.333 23.333 -60.666 30 -93.999
c7.33301 -33.333 10.666 -60.666 9.99902 -81.999c-1.33301 -54 -11.333 -103.667 -30 -149c-10 -24 -24.5 -49.667 -43.5 -77s-39.833 -49.666 -62.5 -66.999c-29.333 -23.333 -58.333 -35 -87 -35c-34.667 0.666992 -65 18 -91 52c-34 44.667 -43.333 106 -28 184
c1.33301 8 5.5 14.333 12.5 19s14.5 6.16699 22.5 4.5s14.333 -6 19 -13s6 -14.5 4 -22.5c-11.333 -60 -5.33301 -105.333 18 -136c14 -18 28.667 -27.333 44 -28c14.667 0 31 7.33301 49 22c18 14 35 32.333 51 55s28 44 36 64c16 40 24.667 83 26 129
c0.666992 16.667 -2.16602 39.5 -8.49902 68.5s-15.166 56.167 -26.499 81.5c-12 28 -25.333 48.667 -40 62c-13.333 11.333 -27.333 15.333 -42 12l-17 -6c-6 -2 -11.667 -5.33301 -17 -10s-9.5 -8.16699 -12.5 -10.5s-7.16699 -7.5 -12.5 -15.5l-12 -15
c-2 -2.66699 -6.33301 -9.16699 -13 -19.5s-11 -17.166 -13 -20.499v-1c-0.666992 -0.666992 -1.33398 -2 -2.00098 -4l-3 -11c-2.66699 -8 -6 -14.333 -10 -19c-9.33301 -11.333 -21.333 -16 -36 -14c-8 1.33301 -14.667 5.66602 -20 12.999l-4 8
c-0.666992 2.66699 -1 5 -1 7v7v12c0.666992 8.66699 1.66699 20.334 3 35.001c0.666992 6.66699 1.5 14.5 2.5 23.5s1.83301 16 2.5 21s1 8.16699 1 9.5c0 2.66699 0.166992 12.334 0.5 29.001s0.5 30.334 0.5 41.001c1.33301 18.667 3 33.667 5 45
c4 20.667 11.333 34.667 22 42c9.33301 7.33301 21 10.333 35 9c2 0 5.66699 -0.333008 11 -1h4c7.33301 0 21.5 0.166992 42.5 0.5s35.667 0.666016 44 0.999023s20.333 1 36 2s29.667 2.66699 42 5s24.833 5.16602 37.5 8.49902c8 2 15.667 1 23 -3s12 -10 14 -18
s1 -15.667 -3 -23s-10 -12 -18 -14z" />
    <glyph glyph-name="six" unicode="6" horiz-adv-x="359" 
d="M171 61c15.333 -6 30.002 -6.66602 44.002 -1.99902c22 6.66699 41.667 25.167 59 55.5s28.666 64.666 33.999 102.999s3.66602 69.5 -5.00098 93.5c-10.667 29.333 -23 43.333 -37 42c-16 -1.33301 -33 -15.333 -51 -42c-38 -58.667 -52.667 -142 -44 -250z
M299.002 498.001c-14 59.333 -30 101.664 -48 126.997c-10 15.333 -19 22.333 -27 21c-10 -2 -22.333 -13.667 -37 -35c-16 -23.333 -31 -54.666 -45 -93.999c-30.667 -86 -46.667 -173.333 -48 -262c-1.33301 -52 3.66699 -94.333 15 -127c1.33301 89.333 20 161 56 215
c28.667 44 60.667 67.333 96 70c22.667 1.33301 42.334 -5.16699 59.001 -19.5s29.667 -35.166 39 -62.499c12 -34.667 14.667 -75 8 -121c-6.66699 -46.667 -20.334 -88.667 -41.001 -126c-25.333 -42.667 -56 -70 -92 -82c-43.333 -14.667 -87.333 -4.66699 -132 30
c-48 37.333 -70.667 112 -68 224c2 96 19 189.667 51 281c16 44.667 33.667 80.667 53 108c23.333 34.667 48.333 54.334 75 59.001c33.333 6.66699 62.666 -8.33301 87.999 -45c20.667 -30.667 39.334 -79.667 56.001 -147c2 -8 0.833008 -15.5 -3.5 -22.5
s-10.5 -11.5 -18.5 -13.5s-15.5 -0.833008 -22.5 3.5s-11.5 10.5 -13.5 18.5z" />
    <glyph glyph-name="seven" unicode="7" horiz-adv-x="366" 
d="M118 384c22 -5.33301 43.6641 -8.00195 64.9971 -8.00195c16.667 55.333 36 109 58 161c10.667 24 27 56.333 49 97c-8 -1.33301 -15 -2.33301 -21 -3c-14.667 -1.33301 -31 -2.16602 -49 -2.49902s-33 -0.333008 -45 0s-28.5 1 -49.5 2s-35.5 1.5 -43.5 1.5
s-14.833 3 -20.5 9s-8.5 13.167 -8.5 21.5s3 15.333 9 21s13.333 8.5 22 8.5c9.33301 0 24.333 -0.5 45 -1.5s36.5 -1.66699 47.5 -2s24.833 -0.5 41.5 -0.5c16 0.666992 31 1.66699 45 3c7.33301 0.666992 24 3.66699 50 9c10.667 2 18.667 3 24 3
c5.33301 0.666992 10.333 0.333984 15 -0.999023c12.667 -3.33301 20.667 -10.666 24 -21.999c4.66699 -16.667 0 -33 -14 -49l-6 -7l-4 -3l-2 -1l-1 -2c-25.333 -46.667 -42.666 -81.667 -51.999 -105c-18 -41.333 -34.333 -84 -49 -128c18.667 4 41 10.667 67 20
c7.33301 2.66699 14.833 2.33398 22.5 -0.999023s12.834 -8.83301 15.501 -16.5s2.33398 -15.334 -0.999023 -23.001s-9 -12.834 -17 -15.501c-40.667 -15.333 -76.334 -25 -107.001 -29c-30 -106 -47.667 -207.333 -53 -304c-0.666992 -8 -4 -14.833 -10 -20.5
s-13.167 -8.16699 -21.5 -7.5s-15.333 4 -21 10s-8.16699 13.333 -7.5 22c5.33301 94.667 22 193.667 50 297c-19.333 0.666992 -39.666 3.66699 -60.999 9c-8 2 -14.167 6.5 -18.5 13.5s-5.5 14.5 -3.5 22.5s6.5 14.167 13.5 18.5s14.5 5.5 22.5 3.5z" />
    <glyph glyph-name="eight" unicode="8" horiz-adv-x="413" 
d="M223 434c2.66699 0 5.66699 0.999023 9 2.99902c16 7.33301 29 23.333 39 48c11.333 24.667 15 51.5 11 80.5s-15 51.167 -33 66.5c-18 12.667 -34 15.334 -48 8.00098c-16 -8 -29 -24.667 -39 -50c-10.667 -26 -14.167 -53 -10.5 -81s14.167 -48.667 31.5 -62
c6.66699 -5.33301 12.667 -9 18 -11c8 2 15.333 1.33301 22 -2zM211 372.999c-29.333 -19.333 -54.834 -49 -76.501 -89s-34.167 -80 -37.5 -120c-2.66699 -42 6 -73.333 26 -94c23.333 -24 62.333 -31.667 117 -23c38.667 6 67.334 22.333 86.001 49s27.167 59 25.5 97
s-13.167 73.5 -34.5 106.5s-49 55.833 -83 68.5c-3.33301 1.33301 -6.33301 3 -9 5h-14zM146.999 398.999c-21.333 16.667 -36.499 38.0029 -45.499 64.0029s-12.833 51.667 -11.5 77s6.66602 49.333 15.999 72c15.333 39.333 38 66.666 68 81.999
c36 18 72.667 13.333 110 -14h1l1 -1c21.333 -17.333 36.666 -39.333 45.999 -66s13.166 -52.834 11.499 -78.501s-7.16699 -49.834 -16.5 -72.501c-9.33301 -22 -21.333 -40.333 -36 -55c36 -22 64.667 -52.333 86 -91c20.667 -38 32 -78 34 -120
c2.66699 -50.667 -9.66602 -96 -36.999 -136c-27.333 -39.333 -68.666 -63.666 -123.999 -72.999c-75.333 -11.333 -132 2 -170 40c-32.667 34 -47 81 -43 141c3.33301 41.333 15 83.166 35 125.499s45 77.5 75 105.5z" />
    <glyph glyph-name="nine" unicode="9" horiz-adv-x="387" 
d="M243 640c-2.66699 1.33301 -5.66895 2.66699 -9.00195 4c-22 7.33301 -43.333 1.33301 -64 -18c-22 -20.667 -39.333 -51.667 -52 -93c-13.333 -40 -18.333 -78 -15 -114c2.66699 -32.667 11.334 -53.667 26.001 -63c16.667 -10 32 -9.33301 46 2
c17.333 13.333 33 38.333 47 75c13.333 32.667 22.833 67.5 28.5 104.5s6.83398 62.833 3.50098 77.5c0 0.666992 -3.66699 9 -11 25zM122.998 194.001c0 -15.333 3.66699 -33.665 11 -54.998s16.666 -39.333 27.999 -54c10.667 -14.667 21.334 -23.334 32.001 -26.001
s22.667 1.66602 36 12.999c21.333 17.333 40 54.666 56 111.999c17.333 58.667 27.333 122 30 190c2 52.667 -1 100 -9 142c-6.66699 -38 -16.334 -73 -29.001 -105c-18.667 -46.667 -40.667 -80 -66 -100c-36 -29.333 -74.333 -31 -115 -5
c-31.333 19.333 -49.333 55.333 -54 108c-4 43.333 1.66699 89 17 137c16.667 51.333 39.667 91 69 119c38 35.333 79.667 45.333 125 30c46.667 -16 80.334 -58.333 101.001 -127c16.667 -56 23.667 -123 21 -201c-3.33301 -73.333 -14 -141.666 -32 -204.999
c-20 -68.667 -45.333 -115.667 -76 -141c-28.667 -24 -58 -32.333 -88 -25c-24.667 6 -46.667 22 -66 48c-15.333 20 -27.5 43.5 -36.5 70.5s-13.833 51.167 -14.5 72.5c0 8.66699 2.83301 16 8.5 22s12.667 9 21 9s15.5 -2.83301 21.5 -8.5s9 -12.5 9 -20.5z" />
    <glyph glyph-name="colon" unicode=":" horiz-adv-x="100" 
d="M89 430c0 -8 -3 -15 -9 -21s-13 -9 -21 -9s-15 3 -21 9s-9 13 -9 21s3 15 9 21s13 9 21 9s15 -3 21 -9s9 -13 9 -21zM83 115c0 -8 -3 -15 -9 -21s-13 -9 -21 -9s-15 3 -21 9s-9 13 -9 21s3 15 9 21s13 9 21 9s15 -3 21 -9s9 -13 9 -21z" />
    <glyph glyph-name="semicolon" unicode=";" horiz-adv-x="100" 
d="M78 46c-2.66699 -28 -8.66602 -52.332 -17.999 -72.999s-23 -42.667 -41 -66c-5.33301 -6.66699 -12.166 -10.5 -20.499 -11.5s-15.666 1 -21.999 6s-10 11.667 -11 20s0.833008 15.5 5.5 21.5c16 20 27.333 37.667 34 53s11 34 13 56c0.666992 8 4.16699 14.667 10.5 20
s13.666 7.66602 21.999 6.99902s15.166 -4.16699 20.499 -10.5s7.66602 -13.833 6.99902 -22.5zM96.001 432.001c0 -8 -3 -15 -9 -21s-13 -9 -21 -9s-15 3 -21 9s-9 13 -9 21s3 15 9 21s13 9 21 9s15 -3 21 -9s9 -13 9 -21z" />
    <glyph glyph-name="less" unicode="&#x3c;" horiz-adv-x="369" 
d="M320 414c-23.333 -17.333 -72.3311 -49 -146.998 -95l-60 -38c19.333 -8.66699 47 -18.667 83 -30c48 -15.333 98.333 -29.666 151 -42.999c8 -2 14.167 -6.5 18.5 -13.5s5.5 -14.5 3.5 -22.5s-6.5 -14.167 -13.5 -18.5s-14.5 -5.5 -22.5 -3.5
c-49.333 11.333 -101 25.666 -155 42.999c-38 12.667 -68 23.667 -90 33c-14 6.66699 -25.333 12.667 -34 18c-14.667 10 -22.667 21.667 -24 35c0 4 0.5 7.83301 1.5 11.5s1.83301 6.16699 2.5 7.5l2 2c1.33301 2 2.66602 3.66699 3.99902 5
c1.33301 0.666992 2.66602 1.66699 3.99902 3s3.66602 3 6.99902 5l22 14l69 43c72.667 45.333 120.667 76 144 92c6.66699 5.33301 14 7.33301 22 6s14.5 -5.5 19.5 -12.5s6.83301 -14.5 5.5 -22.5s-5.66602 -14.333 -12.999 -19z" />
    <glyph glyph-name="equal" unicode="=" horiz-adv-x="344" 
d="M82 423c46.667 -2.66699 122.332 -0.666992 226.999 6c8 0.666992 15.167 -1.83301 21.5 -7.5s9.83301 -12.5 10.5 -20.5s-1.83301 -15.167 -7.5 -21.5s-12.5 -9.83301 -20.5 -10.5c-107.333 -6.66699 -185.666 -8.66699 -234.999 -6c-8 0.666992 -14.833 4 -20.5 10
s-8.16699 13.167 -7.5 21.5s4 15.333 10 21s13.333 8.16699 22 7.5zM81.998 321c75.333 0 150.331 3.66699 224.998 11c8 0.666992 15.333 -1.66602 22 -6.99902s10.334 -12 11.001 -20s-1.66602 -15.333 -6.99902 -22s-12 -10.334 -20 -11.001
c-76.667 -7.33301 -153.667 -11 -231 -11c-8 0 -15 3 -21 9s-9 13 -9 21s3 15 9 21s13 9 21 9z" />
    <glyph glyph-name="greater" unicode="&#x3e;" horiz-adv-x="372" 
d="M67 452l60.998 -30.002c30.667 -14.667 56 -26.334 76 -35.001s40 -16 60 -22c20.667 -6.66699 43.334 -12.667 68.001 -18c9.33301 -2 15.333 -3.33301 18 -4c6 -2 11 -5 15 -9c9.33301 -10 11.666 -21.333 6.99902 -34c-1.33301 -4 -4 -7.66699 -8 -11
c-1.33301 -1.33301 -2.66602 -3 -3.99902 -5c-2.66699 -2 -6 -4.33301 -10 -7c-5.33301 -4 -15.333 -10.667 -30 -20l-87 -56c-98 -61.333 -147.333 -92.333 -148 -93c-6.66699 -4.66699 -14.167 -6.16699 -22.5 -4.5s-14.833 5.83398 -19.5 12.501
s-6.16699 14.167 -4.5 22.5s5.83398 14.833 12.501 19.5c2 0.666992 52 32 150 94l74 47l-29 8c-21.333 7.33301 -42.833 15.666 -64.5 24.999s-48.667 21.833 -81 37.5s-52.166 25.167 -59.499 28.5s-12.333 8.83301 -15 16.5s-2.33398 15.334 0.999023 23.001
s8.83301 12.834 16.5 15.501s15.5 2.33398 23.5 -0.999023z" />
    <glyph glyph-name="question" unicode="?" horiz-adv-x="344" 
d="M26 546c16 37.333 41.3311 69.3369 75.998 96.0039c34 27.333 69.333 44.666 106 51.999c42 8.66699 76 2 102 -20c29.333 -24 41 -62 35 -114c-1.33301 -10.667 -3.5 -21.334 -6.5 -32.001s-5.83301 -20.167 -8.5 -28.5s-6.66699 -17.833 -12 -28.5l-14 -25
c-2.66699 -6 -8 -14.667 -16 -26l-15 -22c-2.66699 -4 -8.5 -11.833 -17.5 -23.5s-14.167 -18.5 -15.5 -20.5c-26.667 -36 -46.667 -68.667 -60 -98s-20 -63 -20 -101c0 -8 -3 -15 -9 -21s-13 -9 -21 -9s-15 3 -21 9s-9 13 -9 21c0 46.667 8 87.667 24 123
s38.333 72.333 67 111l15 20l15 20l13 18c6.66699 9.33301 11 16 13 20s5.5 10 10.5 18s8.5 14.667 10.5 20l7 19c2.66699 8 4.83398 15.333 6.50098 22s2.83398 14 3.50098 22c4 29.333 -0.333008 49.333 -13 60c-11.333 9.33301 -28.666 11.666 -51.999 6.99902
c-27.333 -5.33301 -54.333 -18.333 -81 -39s-45.667 -45.334 -57 -74.001c-3.33301 -7.33301 -8.83301 -12.5 -16.5 -15.5s-15.334 -3 -23.001 0s-13 8.33301 -16 16s-3.16699 15.5 -0.5 23.5zM158.998 37.0039c0 -8 -3 -15 -9 -21s-13 -9 -21 -9s-15 3 -21 9s-9 13 -9 21
s3 15 9 21s13 9 21 9s15 -3 21 -9s9 -13 9 -21z" />
    <glyph glyph-name="at" unicode="@" horiz-adv-x="706" 
d="M437 247c-10 -20.667 -20.6719 -38.3301 -32.0049 -52.9971c-19.333 -24.667 -40 -40.334 -62 -47.001c-29.333 -8.66699 -57.666 -2.33398 -84.999 18.999c-34 27.333 -49.667 71.333 -47 132c2 49.333 15.333 98 40 146c26 52 56.667 84.333 92 97
c23.333 8 45.333 6 66 -6c20 -11.333 37 -31.333 51 -60c4 -7.33301 4.33301 -15 1 -23c10.667 -4 17.334 -12 20.001 -24c1.33301 -6 1.33301 -13.333 0 -22l-2 -12l-1.5 -7.5c-0.333008 -1.66699 -0.5 -2.83398 -0.5 -3.50098c0.666992 -21.333 1 -35 1 -41
c0.666992 -23.333 2 -37.333 4 -42c11.333 -40 26.666 -69.333 45.999 -88c6.66699 -6.66699 12.334 -9.66699 17.001 -9c7.33301 0.666992 16.333 9.33398 27 26.001c22.667 35.333 35 74.166 37 116.499s-5 82.833 -21 121.5s-38.5 73.5 -67.5 104.5
s-60.667 53.667 -95 68s-71 18 -110 11s-75.833 -26.5 -110.5 -58.5c-52 -49.333 -83.667 -109.333 -95 -180c-11.333 -71.333 -9.66602 -137.5 5.00098 -198.5s46.334 -109.167 95.001 -144.5c32.667 -23.333 71.334 -37.833 116.001 -43.5s88.667 -2.16699 132 10.5
c44 12 82.667 32 116 60s56.666 61 69.999 99c2.66699 8 7.66699 13.667 15 17s15 3.66602 23 0.999023s13.667 -7.66699 17 -15s3.66602 -15 0.999023 -23c-16.667 -48.667 -45.334 -90 -86.001 -124s-87.334 -58.333 -140.001 -73
c-48.667 -15.333 -100.5 -19.5 -155.5 -12.5s-103.167 25.5 -144.5 55.5c-31.333 22.667 -57.166 50.5 -77.499 83.5s-34.166 66.833 -41.499 101.5s-11.666 71 -12.999 109s1.33398 73.667 8.00098 107c14 84 52.333 155.333 115 214
c32.667 30.667 67.667 52.334 105 65.001s73.5 16.334 108.5 11.001s68.167 -16.333 99.5 -33s60 -38.667 86 -66c34 -36 60.5 -76.833 79.5 -122.5s27.333 -94.834 25 -147.501s-17.833 -101.334 -46.5 -146.001c-20.667 -32 -43.667 -50 -69 -54
c-24 -3.33301 -46.333 5.33398 -67 26.001c-18.667 18 -35 44 -49 78zM405.995 449.004c-8.66699 17.333 -17.667 28.665 -27 33.998c-4.66699 2.66699 -10 3 -16 1c-20 -6.66699 -39.667 -29 -59 -67c-20.667 -40 -31.667 -80.667 -33 -122c-2 -40 6.33301 -67 25 -81
c10.667 -8.66699 20.667 -11.667 30 -9c10 2.66699 20.333 11.334 31 26.001c22 28 37.667 61.667 47 101c2 8.66699 4.66699 25.667 8 51v3l-1 4v11c-1.33301 14.667 1 26.334 7 35.001c-5.33301 2.66699 -9.33301 7 -12 13z" />
    <glyph glyph-name="A" unicode="A" horiz-adv-x="440" 
d="M227 656l-1 2.00098c0 -0.666992 0.333008 -1.33398 1 -2.00098zM145 257.001c55.333 5.33301 111.667 19 169 41c-30 138.667 -47 216.334 -51 233.001c-8.66699 36 -14.667 59.667 -18 71l-20 -70c-45.333 -152.667 -72 -244.334 -80 -275.001zM130.001 196.001
c-16 -68 -27.666 -130.338 -34.999 -187.005c-1.33301 -8 -5.16602 -14.5 -11.499 -19.5s-13.666 -7 -21.999 -6s-15 4.66699 -20 11s-7.16699 13.833 -6.5 22.5c7.33301 54.667 18.333 114.334 33 179.001c-7.33301 1.33301 -13.333 4.83301 -18 10.5
s-6.66699 12.167 -6 19.5c0.666992 8.66699 4 15.834 10 21.501s13 8.16699 21 7.5h8c9.33301 36.667 37.333 134.334 84 293.001l22 74c6 19.333 11 34.666 15 45.999c2.66699 7.33301 5 13.333 7 18c1.33301 2.66699 2.66602 5 3.99902 7
c3.33301 6 7.66602 10.333 12.999 13c16 9.33301 30.667 6.33301 44 -9c4 -5.33301 8 -12.333 12 -21c5.33301 -11.333 11 -27.666 17 -48.999c4.66699 -16.667 11.334 -44 20.001 -82l49 -226c13.333 0 22.666 -6 27.999 -18
c3.33301 -7.33301 3.66602 -14.833 0.999023 -22.5s-8 -13.167 -16 -16.5c20.667 -93.333 41.667 -172.333 63 -237c2 -8 1.16699 -15.667 -2.5 -23s-9.5 -12.166 -17.5 -14.499s-15.667 -1.66602 -23 2.00098s-12.333 9.5 -15 17.5c-20.667 63.333 -41 140.333 -61 231
c-67.333 -24 -133 -38 -197 -42z" />
    <glyph glyph-name="B" unicode="B" 
d="M130 655c2.66699 -88.667 4.33203 -190.333 4.99902 -305l43 38c8.66699 8 20.5 19.667 35.5 35s26.5 29.833 34.5 43.5s13.667 27.5 17 41.5c10 46 -5.66699 83 -47 111c-23.333 16 -52.666 28 -87.999 36zM134.998 46.001c43.333 0 80.668 5.66699 112.001 17
c50 17.333 79.333 46.666 88 87.999c3.33301 18.667 -0.166992 37.167 -10.5 55.5s-25.833 34.5 -46.5 48.5c-44.667 28.667 -90.667 33.334 -138 14.001c-0.666992 -1.33301 -2.33398 -3 -5.00098 -5v-218zM80 722.001c68 -4 125.329 -21.6689 171.996 -53.002
c28.667 -20 49.834 -44.667 63.501 -74s16.167 -63 7.5 -101c-10.667 -47.333 -46.667 -98.666 -108 -153.999c32.667 -2.66699 64.334 -14.334 95.001 -35.001c29.333 -18.667 52.333 -42.5 69 -71.5s21.334 -60.5 14.001 -94.5
c-12.667 -63.333 -54.667 -107.666 -126 -132.999c-50 -17.333 -108.667 -23.666 -176 -18.999c-8 0.666992 -14.833 4.16699 -20.5 10.5s-8.16699 13.5 -7.5 21.5c0.666992 9.33301 4.66699 16.666 12 21.999v88v120c-1.33301 0.666992 -2.66602 1.66699 -3.99902 3
c-8 6 -12.5 13.667 -13.5 23s1.83301 18 8.5 26c2.66699 2.66699 5.66699 5.33398 9 8.00098c-0.666992 134 -2.33398 250 -5.00098 348v6c-6.66699 2 -12.167 5.83301 -16.5 11.5s-6.16602 12.167 -5.49902 19.5c0.666992 8 4 14.833 10 20.5s13.333 8.16699 22 7.5z" />
    <glyph glyph-name="C" unicode="C" horiz-adv-x="356" 
d="M285 451c-3.33301 68.667 -14.6602 122.662 -33.9932 161.995c-14 28.667 -28.833 43.334 -44.5 44.001s-31.834 -12.666 -48.501 -39.999c-22.667 -38.667 -38.334 -93.667 -47.001 -165c-16 -130.667 -5.66699 -239 31 -325c9.33301 -22 19 -39.333 29 -52
s17.667 -20.167 23 -22.5s10.333 -3.16602 15 -2.49902c9.33301 2 19.666 10.5 30.999 25.5s21.333 37.167 30 66.5c5.33301 15.333 10.666 36.333 15.999 63l16 67c2 8 6.5 14.167 13.5 18.5s14.5 5.5 22.5 3.5s14.167 -6.5 18.5 -13.5s5.5 -14.5 3.5 -22.5l-15 -66
c-6 -28 -11.667 -50.667 -17 -68c-24.667 -80 -60.667 -124.333 -108 -133c-27.333 -5.33301 -52.333 2.33398 -75 23.001s-42.334 50.334 -59.001 89.001c-40.667 96 -52.334 215 -35.001 357c10 79.333 28.333 141.666 55 186.999c28.667 48.667 63 72 103 70
c39.333 -1.33301 71.333 -27.333 96 -78c23.333 -46.667 36.666 -108.667 39.999 -186c0.666992 -8 -1.83301 -15 -7.5 -21s-12.667 -9.33301 -21 -10s-15.5 1.83301 -21.5 7.5s-9.33301 12.834 -10 21.501z" />
    <glyph glyph-name="D" unicode="D" 
d="M127 83c60 68.667 109.996 133.333 149.996 194s65.667 119.667 77 177c16.667 86 -8.66602 142 -75.999 168c-47.333 18 -100.666 17.667 -159.999 -1c0 -31.333 1.16699 -76 3.5 -134s3.83301 -100 4.5 -126c0.666992 -30.667 0.833984 -77 0.500977 -139
s-0.166016 -108.333 0.500977 -139zM111.996 681.999c68 18.667 130.669 16.9971 188.002 -5.00293c44 -16.667 76.667 -45 98 -85c21.333 -40.667 26 -90.667 14 -150c-6 -32 -17.333 -66.167 -34 -102.5s-33.334 -68.166 -50.001 -95.499s-39.667 -59.5 -69 -96.5
s-52 -64.5 -68 -82.5l-68 -77c-5.33301 -6 -12.166 -9.33301 -20.499 -10s-15.5 2 -21.5 8c-2.66699 2 -4.66699 4.33301 -6 7c-4 4.66699 -6 10.334 -6 17.001c-2 44 -2.83301 102.333 -2.5 175s0.166016 131.334 -0.500977 176.001c-0.666992 26 -2 65.167 -4 117.5
s-3.33301 91.5 -4 117.5c-14.667 -3.33301 -25.667 1.66699 -33 15c-4 6.66699 -4.83301 14 -2.5 22s7.16602 14 14.499 18c6.66699 4 13.667 7.66699 21 11v3c0 8 3 14.833 9 20.5s13.333 8.5 22 8.5c9.33301 0 17 -4 23 -12z" />
    <glyph glyph-name="E" unicode="E" horiz-adv-x="369" 
d="M52 643c-0.666992 5.33301 -1.00098 10.332 -1.00098 14.999c-0.666992 8.66699 1.83301 16 7.5 22s12.667 9.33301 21 10s15.5 -1.83301 21.5 -7.5s9.33301 -12.5 10 -20.5v-4l78 20c54 13.333 98.667 23 134 29c8.66699 1.33301 16.334 -0.5 23.001 -5.5
s10.667 -11.667 12 -20s-0.5 -15.833 -5.5 -22.5s-11.5 -10.667 -19.5 -12c-34 -6 -77.333 -15.333 -130 -28l-89 -22c2 -60.667 2.33301 -136.667 1 -228c70.667 20 128.667 31.333 174 34c8 0.666992 15.167 -1.83301 21.5 -7.5s9.83301 -12.5 10.5 -20.5
s-1.83301 -15.167 -7.5 -21.5s-12.5 -9.83301 -20.5 -10.5c-42.667 -2.66699 -102.334 -15 -179.001 -37c-1.33301 -111.333 -1.66602 -194 -0.999023 -248c77.333 19.333 150.333 34 219 44c8 0.666992 15.333 -1.5 22 -6.5s10.5 -11.5 11.5 -19.5s-1 -15.333 -6 -22
s-11.5 -10.667 -19.5 -12c-72 -10 -150.333 -25.667 -235 -47c-5.33301 -6 -12 -9 -20 -9s-15 2.66699 -21 8c-6.66699 4 -11 9.83301 -13 17.5s-1 14.834 3 21.501c-2 59.333 -2 153 0 281l-2 6c-2 8 -1 15.333 3 22c1.33301 103.333 1 185.333 -1 246
c-10 4 -16 11.333 -18 22c-2 6.66699 -1.33301 13.167 2 19.5s8 10.833 14 13.5z" />
    <glyph glyph-name="F" unicode="F" horiz-adv-x="328" 
d="M52 643c-0.666992 5.33301 -1 10.332 -1 14.999c-0.666992 8.66699 1.83301 16 7.5 22s12.667 9.33301 21 10s15.5 -1.83301 21.5 -7.5s9.33301 -12.5 10 -20.5v-4l78 20c54 13.333 98.667 23 134 29c8.66699 1.33301 16.334 -0.5 23.001 -5.5s10.667 -11.667 12 -20
s-0.5 -15.833 -5.5 -22.5s-11.5 -10.667 -19.5 -12c-34 -6 -77.333 -15.333 -130 -28l-89 -22c2 -60.667 2.33301 -136.667 1 -228c70.667 20 128.667 31.333 174 34c8 0.666992 15.167 -1.83301 21.5 -7.5s9.83301 -12.5 10.5 -20.5s-1.83301 -15.167 -7.5 -21.5
s-12.5 -9.83301 -20.5 -10.5c-42.667 -2.66699 -102.334 -15 -179.001 -37c-2 -129.333 -2 -225.666 0 -288.999c0 -8.66699 -2.83301 -16 -8.5 -22s-12.667 -9 -21 -9s-15.5 2.83301 -21.5 8.5s-9 12.5 -9 20.5c-2 63.333 -2 163 0 299l-2 6c-2 8 -1 15.333 3 22
c1.33301 103.333 1 185.333 -1 246c-10 4 -16 11.333 -18 22c-2 6.66699 -1.33301 13.167 2 19.5s8 10.833 14 13.5z" />
    <glyph glyph-name="G" unicode="G" horiz-adv-x="497" 
d="M241 304c22 2.66699 44.333 6.00195 67 10.002s50.667 9.5 84 16.5s55.333 11.5 66 13.5c8 2 15.5 0.666992 22.5 -4s11.333 -11 13 -19s0.166992 -15.5 -4.5 -22.5s-11 -11.167 -19 -12.5l-81 -17c4.66699 -34.667 13.334 -79 26.001 -133
c20 -81.333 32.333 -135 37 -161c1.33301 -8 -0.333984 -15.333 -5.00098 -22s-11.167 -10.834 -19.5 -12.501s-15.833 -0.166992 -22.5 4.5s-11 11.334 -13 20.001c-4 24 -15.667 76.333 -35 157l-3 14l-3 -13c-8 -31.333 -16.333 -56.666 -25 -75.999
c-12.667 -28 -28 -47.333 -46 -58c-22.667 -13.333 -45.667 -16.666 -69 -9.99902c-18 5.33301 -35.333 16.333 -52 33c-20 22 -38 52 -54 90c-45.333 109.333 -53.333 241.333 -24 396c4.66699 26 14 55.333 28 88c14 33.333 30.333 61 49 83
c27.333 32 55.666 46.333 84.999 43c34 -3.33301 63.667 -29 89 -77c4 -8 7.5 -16.167 10.5 -24.5s5.5 -17.833 7.5 -28.5l5 -26c1.33301 -6.66699 2.5 -16.334 3.5 -29.001s1.66699 -20.834 2 -24.501s0.833008 -12.667 1.5 -27s1 -21.833 1 -22.5
c0.666992 -8 -1.83301 -15 -7.5 -21s-12.667 -9.33301 -21 -10s-15.5 1.83301 -21.5 7.5s-9.33301 12.834 -10 21.501c0 2 -0.166992 8.16699 -0.5 18.5s-0.666016 16.833 -0.999023 19.5s-0.833008 8.5 -1.5 17.5s-1.16699 15.5 -1.5 19.5s-1 9.83301 -2 17.5
s-1.83301 13.834 -2.5 18.501l-4 15c-1.33301 6 -3 11.333 -5 16s-4.33301 9.33398 -7 14.001c-14.667 29.333 -28 44.666 -40 45.999c-9.33301 0.666992 -20.666 -7 -33.999 -23c-14.667 -17.333 -28 -40.333 -40 -69c-12.667 -28.667 -21 -53.667 -25 -75
c-26.667 -141.333 -19.334 -262 21.999 -362c12.667 -30.667 26.667 -54 42 -70c8.66699 -9.33301 16.667 -15 24 -17s15 -0.666992 23 4c6.66699 4 13.667 14.167 21 30.5s14.333 38.166 21 65.499c4.66699 18 10 42.667 16 74c3.33301 21.333 6 35.666 8 42.999
c-24.667 -4 -47.667 -7.33301 -69 -10c-8 -0.666992 -15.167 1.5 -21.5 6.5s-10 11.667 -11 20s1 15.666 6 21.999s11.833 10.166 20.5 11.499z" />
    <glyph glyph-name="H" unicode="H" horiz-adv-x="453" 
d="M127 681c0 -22 1.32715 -51.001 3.99414 -87.001c4 -46.667 6.33301 -76.667 7 -90c2.66699 -59.333 4.33398 -112.666 5.00098 -159.999c62 20 119 35 171 45c-5.33301 162 -8 263.667 -8 305c0 8 3 15 9 21s13 9 21 9s15 -3 21 -9s9 -13 9 -21
c0 -44 2.66699 -142 8 -294c16.667 2.66699 33.334 5 50.001 7c8 0.666992 15.167 -1.5 21.5 -6.5s10 -11.667 11 -20s-1 -15.666 -6 -21.999s-11.833 -10.166 -20.5 -11.499c-18 -2 -36.333 -4.33301 -55 -7c4 -123.333 2.33301 -229.333 -5 -318
c-0.666992 -8.66699 -4.16699 -15.667 -10.5 -21s-13.666 -7.66602 -21.999 -6.99902s-15.166 4.16699 -20.499 10.5s-7.66602 13.5 -6.99902 21.5c6.66699 82 8.66699 183 6 303c-51.333 -11.333 -108.666 -27.333 -171.999 -48
c-0.666992 -102.667 -6.33398 -196.334 -17.001 -281.001c-1.33301 -8 -5.16602 -14.5 -11.499 -19.5s-13.666 -7 -21.999 -6s-15 4.66699 -20 11s-7.16699 13.833 -6.5 22.5c10 76.667 15.333 161 16 253l-36 -12c-8 -2.66699 -15.667 -2.33398 -23 0.999023
s-12.333 9 -15 17s-2.33398 15.667 0.999023 23s9 12.333 17 15l56 20c0 52 -1.66699 111 -5 177c-0.666992 12.667 -2.66699 42 -6 88c-3.33301 37.333 -5 67.666 -5 90.999c0 8 3 15 9 21s13 9 21 9s15 -3 21 -9s9 -13 9 -21z" />
    <glyph glyph-name="I" unicode="I" horiz-adv-x="312" 
d="M44 675c27.333 -1.33301 55.998 0.334961 85.998 5.00195c6 5.33301 13 8 21 8c4.66699 0 9 -1 13 -3c26 4.66699 54.333 11.667 85 21c8 2 15.5 1 22.5 -3s11.667 -10 14 -18s1.5 -15.5 -2.5 -22.5s-10 -11.833 -18 -14.5c-30 -8.66699 -58 -15.667 -84 -21
c0.666992 -62.667 4.66699 -157.334 12 -284.001c7.33301 -127.333 11.333 -220.666 12 -279.999c9.33301 0 23 -0.166992 41 -0.5s31.333 -0.5 40 -0.5c8 0 15 -3 21 -9s9 -13 9 -21s-3 -15 -9 -21s-13 -9 -21 -9c-9.33301 0 -24.166 0.166992 -44.499 0.5
s-35.5 0.5 -45.5 0.5c-6 -6 -13 -9 -21 -9s-14.667 2.66699 -20 8c-32.667 -1.33301 -61.667 -4.33301 -87 -9c-8 -2 -15.5 -0.666992 -22.5 4s-11.333 11 -13 19s-0.166992 15.5 4.5 22.5s11 11.167 19 12.5c26 5.33301 55.667 8.66602 89 9.99902
c-0.666992 46.667 -4.66699 139.334 -12 278.001c-6.66699 123.333 -10.667 216.333 -12 279c-27.333 -2.66699 -53.666 -3.66699 -78.999 -3c-8.66699 0 -15.667 3.16699 -21 9.5s-8 13.666 -8 21.999s3.16699 15.166 9.5 20.499s13.5 8 21.5 8z" />
    <glyph glyph-name="J" unicode="J" horiz-adv-x="359" 
d="M152 688c26 -0.666992 53.3291 0.665039 81.9961 3.99805c4.66699 6 10.667 9.66699 18 11c8.66699 2 16.334 0.666992 23.001 -4c24.667 4.66699 52 11.334 82 20.001c8 2 15.5 1 22.5 -3s11.667 -10 14 -18s1.5 -15.5 -2.5 -22.5s-10 -11.833 -18 -14.5
c-28 -8 -54.333 -14.667 -79 -20c18.667 -122 20.334 -272 5.00098 -450c-3.33301 -36 -10 -70.667 -20 -104c-16.667 -54.667 -40.334 -87.667 -71.001 -99c-41.333 -15.333 -76.333 -3.66602 -105 35.001c-18.667 25.333 -33.667 63.333 -45 114
c-15.333 70 -22.333 142 -21 216c0 8 3 14.833 9 20.5s13.167 8.5 21.5 8.5s15.333 -3 21 -9s8.5 -13.333 8.5 -22c-1.33301 -68.667 5.33398 -135.667 20.001 -201c9.33301 -42 20.666 -72.333 33.999 -91c10.667 -14.667 23 -19.667 37 -15c12 4.66699 23.333 25 34 61
c8.66699 28.667 14.334 59.334 17.001 92.001c14.667 174 13.334 319 -3.99902 435c-29.333 -3.33301 -57.666 -4.66602 -84.999 -3.99902c-8.66699 0 -15.667 3.16699 -21 9.5s-8 13.666 -8 21.999s3.16699 15.166 9.5 20.499s13.5 8 21.5 8z" />
    <glyph glyph-name="K" unicode="K" horiz-adv-x="462" 
d="M346 602c-12 -22.667 -26.3291 -46.3311 -42.9961 -70.998s-31 -45 -43 -61l-51 -64l-45 -59l-25 -35l-10 -14l28 -21l106 -77c100 -71.333 158 -111 174 -119c7.33301 -4 12.166 -10 14.499 -18s1.66602 -15.667 -2.00098 -23s-9.5 -12.166 -17.5 -14.499
s-15.667 -1.83301 -23 1.5c-18 9.33301 -78.333 50.666 -181 123.999l-107 78l-12 9c-3.33301 -77.333 -10 -153.333 -20 -228c-1.33301 -8 -5.33301 -14.5 -12 -19.5s-14 -7 -22 -6s-14.5 4.83301 -19.5 11.5s-7.16699 14 -6.5 22c29.333 218 32 436.333 8 655
c-0.666992 8 1.5 15.167 6.5 21.5s11.667 10 20 11s15.666 -1 21.999 -6s10.166 -11.833 11.499 -20.5c10.667 -98.667 16 -198.667 16 -300l3 4l47 61l49 62l40.5 57.5c15.667 23 28.834 45.167 39.501 66.5c4 7.33301 10 12.166 18 14.499s15.667 1.66602 23 -2.00098
s12.166 -9.5 14.499 -17.5s1.83301 -15.667 -1.5 -23z" />
    <glyph glyph-name="L" unicode="L" horiz-adv-x="365" 
d="M111 683c4.66699 -81.333 6 -192.667 4 -334s-2.66699 -238.333 -2 -291c77.333 19.333 150.333 34 219 44c8 0.666992 15.333 -1.5 22 -6.5s10.5 -11.5 11.5 -19.5s-1 -15.333 -6 -22s-11.5 -10.667 -19.5 -12c-72.667 -10 -151.667 -26 -237 -48
c-5.33301 -4.66699 -11.333 -7 -18 -7c-6 0 -11.333 1.33301 -16 4c-9.33301 4 -15.333 10.667 -18 20c-2 8 -1 15.333 3 22c-1.33301 49.333 -1 155 1 317c2 139.333 0.666992 249 -4 329c-0.666992 8.66699 1.83301 16 7.5 22s12.667 9.33301 21 10
s15.5 -1.83301 21.5 -7.5s9.33301 -12.5 10 -20.5z" />
    <glyph glyph-name="M" unicode="M" horiz-adv-x="543" 
d="M49 18l-5.00098 129.993c-2.66699 68.667 -4.5 124.834 -5.5 168.501s-1.5 87.167 -1.5 130.5c0 8 -0.333008 22.667 -1 44s-1 40.833 -1 58.5s1 33.834 3 48.501v5v13c0.666992 8 2.66699 15 6 21c4 7.33301 10 12.333 18 15c8 3.33301 16 3.33301 24 0
c3.33301 -1.33301 6.33301 -3.16602 9 -5.49902s4.33398 -4.5 5.00098 -6.5l2 -2c0.666992 -1.33301 1.33398 -3 2.00098 -5c0 -1.33301 0.333008 -2.66602 1 -3.99902c0.666992 -2.66699 1.33398 -6 2.00098 -10c1.33301 -5.33301 3 -13.666 5 -24.999
c6 -28.667 9.33301 -45 10 -49c15.333 -64 31.333 -116.333 48 -157c26 -61.333 54 -99.666 84 -114.999c1.33301 -0.666992 2.33301 -1.33398 3 -2.00098c5.33301 8.66699 11.666 21.334 18.999 38.001c9.33301 22.667 20.333 53 33 91l31 98c12 38.667 19 60.667 21 66
c6.66699 20.667 16.334 48.334 29.001 83.001l13 33l4 10l1 3v2c0.666992 0 1 0.333008 1 1c0.666992 0.666992 1 1.66699 1 3c1.33301 1.33301 2.66602 3 3.99902 5c3.33301 2.66699 7 5 11 7c13.333 5.33301 24.666 2.33301 33.999 -9c3.33301 -4 6 -9.33301 8 -16
c0.666992 -2.66699 1 -6.33398 1 -11.001c1.33301 -6 2.33301 -14.667 3 -26c1.33301 -18 2.33301 -42.333 3 -73c0.666992 -14.667 1.33398 -31.167 2.00098 -49.5s1.16699 -33 1.5 -44s0.5 -17.833 0.5 -20.5c5.33301 -67.333 9.83301 -120.333 13.5 -159
s9.83398 -86.167 18.501 -142.5s19 -107.5 31 -153.5c2 -8.66699 1 -16.5 -3 -23.5s-10.167 -11.5 -18.5 -13.5s-16 -1 -23 3s-11.5 10 -13.5 18c-13.333 51.333 -24.333 105 -33 161c-8.66699 58 -14.834 106.5 -18.501 145.5s-8.16699 92.5 -13.5 160.5
c0 1.33301 -1 28.333 -3 81c-0.666992 -3.33301 -7 -24.333 -19 -63l-30 -95c-13.333 -39.333 -25 -71 -35 -95c-14 -33.333 -26.667 -55 -38 -65c-10.667 -10 -24.334 -13.333 -41.001 -10c-7.33301 1.33301 -15.333 4 -24 8c-44 21.333 -81.667 70 -113 146
c-6 14 -12 29.333 -18 46c0.666992 -31.333 4.66699 -161.666 12 -390.999c0 -8 -2.83301 -15.167 -8.5 -21.5s-12.5 -9.5 -20.5 -9.5s-15.167 2.83301 -21.5 8.5s-9.5 12.5 -9.5 20.5z" />
    <glyph glyph-name="N" unicode="N" horiz-adv-x="462" 
d="M60 13c-4 54 -8.00391 130.505 -12.0039 229.505s-7 165.5 -9 199.5c0 1.33301 -0.5 6.83301 -1.5 16.5s-2.16699 22 -3.5 37s-2.33301 28.833 -3 41.5c-2 26 -3.33301 46.333 -4 61v22c0.666992 4.66699 1.33398 8.33398 2.00098 11.001c0.666992 4 2 7.33301 4 10
c6 10.667 15 15.667 27 15c6.66699 0 12.667 -2.33301 18 -7c1.33301 -1.33301 3 -2.66602 5 -3.99902c0.666992 -1.33301 1.66699 -3 3 -5s3 -4.66699 5 -8c2.66699 -5.33301 6 -12.666 10 -21.999l29 -64l42 -95c0.666992 -2.66699 4.33398 -10.334 11.001 -23.001l27 -50
l77 -139l50 -91c0 5.33301 0.333008 32.666 1 81.999c2 157.333 20.667 314.666 56 471.999c1.33301 8.66699 5.5 15.167 12.5 19.5s14.667 5.66602 23 3.99902s14.666 -6 18.999 -13s5.5 -14.5 3.5 -22.5c-34 -154.667 -52 -308 -54 -460
c-0.666992 -54 -0.333984 -94 0.999023 -120c0.666992 -14.667 2.66699 -35.667 6 -63c0.666992 -8.66699 1 -15.334 1 -20.001c-0.666992 -8.66699 -4 -15.667 -10 -21c-9.33301 -10 -20.666 -12.333 -33.999 -7c-2.66699 1.33301 -5 2.66602 -7 3.99902
s-3.33301 2.33301 -4 3l-1 2c-0.666992 0.666992 -1.5 1.66699 -2.5 3s-2.16699 3 -3.5 5l-8 13l-26 45l-76 136l-77 140l-27 50l-14 27l-19 46c1.33301 -16.667 2 -25.667 2 -27c2 -34.667 5 -101.334 9 -200.001s8 -175 12 -229
c0.666992 -8 -1.66602 -15.167 -6.99902 -21.5s-12.166 -9.83301 -20.499 -10.5s-15.666 1.66602 -21.999 6.99902s-9.83301 12.333 -10.5 21z" />
    <glyph glyph-name="O" unicode="O" 
d="M221 637c-24 -4.66699 -47.001 -27.3301 -69.001 -67.9971c-27.333 -50.667 -46 -113.334 -56 -188.001c-10 -76.667 -8 -145.334 6 -206.001c14 -61.333 38.333 -100.333 73 -117c38.667 -18.667 73.334 -12.334 104.001 18.999c28 28.667 48.333 68.667 61 120
c6.66699 28 10 62.667 10 104s-3.66699 84.333 -11 129c-18.667 99.333 -50.667 164.333 -96 195c-6 4 -13.333 8 -22 12zM254.999 687.004c8.66699 -4 15.998 -8.00195 21.998 -12.002c58.667 -40 99 -118 121 -234c8 -47.333 12 -94 12 -140s-4 -85.333 -12 -118
c-15.333 -62 -40.666 -111.333 -75.999 -148c-50.667 -52 -108.334 -62.333 -173.001 -31c-52 25.333 -87 78 -105 158c-16 66 -18.333 141.667 -7 227c10.667 83.333 31.334 153 62.001 209c20.667 36.667 43.667 63.667 69 81c0 4.66699 1 9.33398 3 14.001
c3.33301 7.33301 9 12.333 17 15s15.667 2.33398 23 -0.999023c2.66699 -1.33301 9.33398 -4.33301 20.001 -9h2c8.66699 0 16 -3.66699 22 -11z" />
    <glyph glyph-name="P" unicode="P" horiz-adv-x="431" 
d="M91 381c-1.33301 -94.667 -6.00195 -214.999 -14.002 -360.999c-0.666992 -8 -4 -14.833 -10 -20.5s-13.167 -8.16699 -21.5 -7.5s-15.333 4 -21 10s-8.16699 13.333 -7.5 22c14.667 266 18 478.667 10 638c-0.666992 8 1.83301 15 7.5 21s12.667 9.33301 21 10
s15.5 -1.83301 21.5 -7.5s9.33301 -12.834 10 -21.501l2 -55c42.667 37.333 84.334 66.333 125.001 87c92.667 46.667 165.334 45 218.001 -5c16.667 -16 27.667 -35.667 33 -59s4.33301 -45.333 -3 -66c-22 -66 -81 -115.333 -177 -148c-54 -18 -118.667 -30.333 -194 -37z
M91.998 441.001c67.333 6.66699 125.333 18.001 174 34.001c77.333 26 123.333 62.333 138 109c8.66699 25.333 4 46.333 -14 63c-32 31.333 -81.667 29.666 -149 -5.00098c-53.333 -27.333 -103.333 -65 -150 -113c0.666992 -28.667 1 -58 1 -88z" />
    <glyph glyph-name="Q" unicode="Q" horiz-adv-x="434" 
d="M333 129c10.667 21.333 18.998 43.6699 24.998 67.0029c6.66699 28 10 62.667 10 104s-3.66699 84.333 -11 129c-18.667 99.333 -50.667 164.333 -96 195c-6 4 -13.333 8 -22 12c-24 -4.66699 -47 -27.334 -69 -68.001c-27.333 -50.667 -46 -113.334 -56 -188.001
c-10 -76.667 -8 -145.334 6 -206.001c14 -61.333 38.333 -100.333 73 -117c38.667 -18.667 73.334 -12.334 104.001 18.999c-14.667 21.333 -27.667 41.333 -39 60c-4 6.66699 -5 14 -3 22s6.5 14.167 13.5 18.5s14.5 5.5 22.5 3.5s14.333 -6.66699 19 -14
c6.66699 -11.333 14.334 -23.666 23.001 -36.999zM330.998 26.0039c-48.667 -44.667 -103.335 -52.3359 -164.002 -23.0029c-52 25.333 -87 78 -105 158c-16 66 -18.333 141.667 -7 227c10.667 83.333 31.334 153 62.001 209c20.667 36.667 43.667 63.667 69 81
c0 4.66699 1 9.33398 3 14.001c3.33301 7.33301 9 12.333 17 15s15.667 2.33398 23 -0.999023c2.66699 -1.33301 9.33398 -4.33301 20.001 -9h2c8.66699 0 16 -3.66699 22 -11c8.66699 -4 16 -8 22 -12c58.667 -40 99 -118 121 -234c8 -47.333 12 -94 12 -140
s-4 -85.333 -12 -118c-10 -40 -25 -76 -45 -108l40 -58c4.66699 -7.33301 6.16699 -15 4.5 -23s-6 -14.333 -13 -19s-14.5 -6.16699 -22.5 -4.5s-14.333 5.83398 -19 12.501z" />
    <glyph glyph-name="R" unicode="R" horiz-adv-x="428" 
d="M155 319c75.333 -90 163.663 -178.67 264.996 -266.003c6 -5.33301 9.33301 -12.166 10 -20.499s-1.66602 -15.666 -6.99902 -21.999s-12.166 -9.83301 -20.499 -10.5s-15.833 1.66602 -22.5 6.99902c-100 87.333 -188 176 -264 266c-1.33301 -24.667 -3 -51 -5 -79
l-8 -92c-3.33301 -29.333 -5.66602 -54.666 -6.99902 -75.999c-0.666992 -8.66699 -4.16699 -15.667 -10.5 -21s-13.666 -7.66602 -21.999 -6.99902s-15.166 4.16699 -20.499 10.5s-7.66602 13.5 -6.99902 21.5l9 102c4.66699 53.333 7.66699 90.333 9 111
s3.16602 53.667 5.49902 99s3.33301 81.833 3 109.5s-1.5 60.167 -3.5 97.5c-2.66699 34 -6.66699 69 -12 105c-1.33301 8.66699 0.5 16.334 5.5 23.001s11.667 10.667 20 12s15.833 -0.5 22.5 -5.5s10.667 -11.5 12 -19.5c6 -42.667 10.333 -87 13 -133
c24.667 47.333 58 87.666 100 120.999c21.333 17.333 45 29.333 71 36c44.667 12 76 2 94 -30c18 -31.333 15 -69.333 -9 -114c-16.667 -30.667 -44.334 -65.667 -83.001 -105c-40 -40.667 -86 -80.667 -138 -120zM134.997 378.997
c44.667 35.333 83.335 69.332 116.002 101.999c34 34.667 58 65.334 72 92.001c13.333 24.667 16.666 43 9.99902 55c-2.66699 5.33301 -11.334 6 -26.001 2c-18 -4.66699 -34.333 -12.667 -49 -24c-67.333 -54 -108.333 -129.667 -123 -227z" />
    <glyph glyph-name="S" unicode="S" horiz-adv-x="290" 
d="M238 481c-4 9.33301 -9.16504 23.498 -15.498 42.498s-10.833 31.833 -13.5 38.5c-10.667 28 -22 49 -34 63c-11.333 12 -21 19 -29 21c-4 0.666992 -7.33301 0 -10 -2c-5.33301 -4 -9.5 -11.167 -12.5 -21.5s-3.83301 -22.5 -2.5 -36.5
c1.33301 -14.667 3.66602 -29.334 6.99902 -44.001s8.16602 -31 14.499 -49s11.5 -32 15.5 -42l21 -50l19 -47c20 -49.333 35 -94.666 45 -135.999c9.33301 -42 11.333 -85.333 6 -130c-2 -17.333 -7.83301 -34 -17.5 -50s-21.834 -28.333 -36.501 -37
c-16 -10.667 -34 -14.667 -54 -12c-20.667 2.66699 -39 12.334 -55 29.001c-26 26.667 -43 75.667 -51 147c-1.33301 15.333 -2.5 32.166 -3.5 50.499s-1.66699 36.5 -2 54.5s-0.833008 30.667 -1.5 38c-0.666992 8.66699 1.83301 16 7.5 22s12.667 9.33301 21 10
s15.5 -1.83301 21.5 -7.5s9.33301 -12.5 10 -20.5c0 -0.666992 0.666992 -19 2 -55s3 -64.667 5 -86c6 -57.333 17 -94.333 33 -111c12 -12 23.667 -14.667 35 -8c15.333 9.33301 24 24 26 44c4.66699 37.333 2.83398 74.333 -5.49902 111s-22.166 78.334 -41.499 125.001
l-19 44l-20 52c-4.66699 11.333 -10.5 26.833 -17.5 46.5s-12.333 37.834 -16 54.501s-6.5 33.667 -8.5 51c-2 21.333 0.166992 42.166 6.5 62.499s16.833 36.5 31.5 48.5c18 14 38 18.333 60 13c20.667 -4.66699 40.667 -17.667 60 -39
c18 -19.333 33.667 -46.666 47 -81.999c2 -6.66699 6.16699 -19 12.5 -37s11.5 -31.667 15.5 -41c2.66699 -8 2.5 -15.833 -0.5 -23.5s-8.33301 -13 -16 -16s-15.334 -3 -23.001 0s-13.167 8.16699 -16.5 15.5z" />
    <glyph glyph-name="T" unicode="T" horiz-adv-x="350" 
d="M12 669c90.667 1.33301 203.999 15.332 339.999 41.999c8 2 15.5 0.666992 22.5 -4s11.333 -11 13 -19s0.166992 -15.5 -4.5 -22.5s-11 -11.167 -19 -12.5c-64.667 -13.333 -120.667 -23.333 -168 -30c0.666992 -64 4.66699 -160.667 12 -290
c8 -141.333 12 -246.333 12 -315c0 -8 -3 -15 -9 -21s-13 -9 -21 -9s-15 3 -21 9s-9 13 -9 21c0 68.667 -4 172.334 -12 311.001c-7.33301 127.333 -11.333 223 -12 287c-42.667 -4 -84 -6.33301 -124 -7c-8 0 -15 2.83301 -21 8.5s-9 12.667 -9 21s2.83301 15.5 8.5 21.5
s12.834 9 21.501 9z" />
    <glyph glyph-name="U" unicode="U" horiz-adv-x="387" 
d="M107 675c-5.33301 -34.667 -8.66504 -82.333 -9.99805 -143c-1.33301 -63.333 0.666992 -133.333 6 -210c7.33301 -80 19 -144.333 35 -193c16.667 -50.667 36.334 -79.667 59.001 -87c15.333 -5.33301 30.333 1.33398 45 20.001c12 16.667 23.667 40.667 35 72
c19.333 56 33.666 143.667 42.999 263s9.66602 211 0.999023 275c-0.666992 8 1.5 15.333 6.5 22s11.5 10.5 19.5 11.5s15.333 -1 22 -6s10.667 -11.5 12 -19.5c8.66699 -68.667 8 -164.667 -2 -288c-9.33301 -123.333 -24.666 -216 -45.999 -278
c-12.667 -38 -27.334 -67.667 -44.001 -89c-31.333 -40.667 -68 -54.334 -110 -41.001c-42 14 -74.667 56 -98 126c-18 54 -30.667 122.667 -38 206c-5.33301 78.667 -7.33301 150.834 -6 216.501s4.66602 116.5 9.99902 152.5c1.33301 8 5.33301 14.5 12 19.5
s14.167 6.83301 22.5 5.5s15 -5.33301 20 -12s6.83301 -14.334 5.5 -23.001z" />
    <glyph glyph-name="V" unicode="V" horiz-adv-x="362" 
d="M97 665c26.667 -95.333 59.668 -249.664 99.001 -462.997c0 -2 2 -16.333 6 -43l22 103c10 51.333 25.667 124.666 47 219.999l45 205c1.33301 8 5.5 14.333 12.5 19s14.5 6.16699 22.5 4.5s14.333 -6 19 -13s6 -14.5 4 -22.5l-45 -205l-47 -220
c-21.333 -104.667 -34 -170.334 -38 -197.001c-0.666992 -2 -1 -5 -1 -9v-18c0 -10 -1.66699 -18 -5 -24c-4.66699 -10 -12 -16 -22 -18c-10 -2.66699 -19.333 -1 -28 5c-6.66699 4.66699 -12.334 12.667 -17.001 24c-2 6 -4.33301 13.667 -7 23c-4 14.667 -8 34 -12 58
l-9 58c-4 23.333 -6.33301 36.666 -7 39.999c-38 210.667 -70.333 363 -97 457c-2 8 -1 15.667 3 23s10 12 18 14s15.667 1 23 -3s12 -10 14 -18z" />
    <glyph glyph-name="W" unicode="W" horiz-adv-x="572" 
d="M90 674c10.667 -40.667 19.8379 -84.9971 27.5049 -132.997s14.667 -100.5 21 -157.5s12.166 -100.5 17.499 -130.5c0.666992 -7.33301 6 -38 16 -92l11 44c12.667 50 22.667 87 30 111c5.33301 16.667 10.333 29.667 15 39c3.33301 6.66699 6.66602 12 9.99902 16
c6.66699 8.66699 14.667 14 24 16c11.333 1.33301 21.666 -2.33398 30.999 -11.001c4 -3.33301 8.33301 -8.33301 13 -15c6.66699 -9.33301 14 -22.666 22 -39.999c13.333 -26.667 30 -64.667 50 -114l26 -68l3 24c10.667 87.333 25.334 170.333 44.001 249
c19.333 82.667 44.333 178 75 286c2.66699 8 7.5 14 14.5 18s14.5 4.83301 22.5 2.5s14 -7 18 -14s5 -14.5 3 -22.5c-30.667 -107.333 -55.667 -201.666 -75 -282.999c-18 -78.667 -32 -160 -42 -244c-6 -50.667 -9.33301 -78.334 -10 -83.001
c-2.66699 -14.667 -5 -26.334 -7 -35.001c-2 -6 -4 -11 -6 -15c-6 -12 -15 -18.667 -27 -20c-5.33301 -0.666992 -10 -0.166992 -14 1.5s-6.83301 3.33398 -8.5 5.00098s-2.5 2.83398 -2.5 3.50098l-4 4l-2 4c0 0.666992 -0.333008 2 -1 4l-5 11l-14 38l-44 112
c-19.333 47.333 -35.333 84 -48 110l-3 6l-1 -4c-7.33301 -22.667 -17 -58 -29 -106c-16.667 -66.667 -26.334 -104.334 -29.001 -113.001c-4.66699 -17.333 -8.66699 -31 -12 -41c-5.33301 -15.333 -10.666 -26 -15.999 -32c-8 -8 -17.333 -10.667 -28 -8
c-6.66699 1.33301 -12.334 4.66602 -17.001 9.99902c-2.66699 2.66699 -4.33398 5.66699 -5.00098 9l-2 6c-0.666992 2 -1.33398 5 -2.00098 9c-0.666992 6 -1.66699 14.333 -3 25l-2 16c-0.666992 6 -1.33398 10.667 -2.00098 14l-1 6c-2.66699 18.667 -7 45.167 -13 79.5
s-10.333 58.166 -13 71.499c-5.33301 33.333 -11.166 78.166 -17.499 134.499s-13 107.333 -20 153s-15.833 88.167 -26.5 127.5c-2 8 -1 15.667 3 23s10 12 18 14s15.667 1 23 -3s12 -10 14 -18zM256.004 327.003l-3 5.00098c-2 -2.66699 -1 -4.33398 3 -5.00098z" />
    <glyph glyph-name="X" unicode="X" 
d="M232 320c-56 -134.667 -104.003 -238.334 -144.003 -311.001c-4 -7.33301 -10 -12.166 -18 -14.499s-15.5 -1.5 -22.5 2.5s-11.667 10 -14 18s-1.5 15.333 2.5 22l23 45l22 42l22 46l18 43l20 47l19 43l20 47l19 46l-125 285c-2.66699 8 -2.5 15.833 0.5 23.5
s8.33301 13 16 16s15.334 3 23.001 0s13.167 -8.16699 16.5 -15.5l102 -234l63 135l49 100c3.33301 7.33301 9 12.333 17 15s15.667 2.33398 23 -0.999023s12.333 -9 15 -17s2.33398 -15.667 -0.999023 -23l-43 -88l-50 -107l-41 -89c66 -151.333 116 -276 150 -374
c2.66699 -8 2.33398 -15.667 -0.999023 -23s-9 -12.333 -17 -15s-15.667 -2.33398 -23 0.999023s-12.333 9 -15 17c-30.667 88.667 -72.667 194.667 -126 318z" />
    <glyph glyph-name="Y" unicode="Y" horiz-adv-x="344" 
d="M363 681c-7.33301 -22.667 -18.8369 -56.1689 -34.5039 -100.502s-29.167 -84 -40.5 -119s-21.333 -68.833 -30 -101.5c-3.33301 -12 -6.5 -24.167 -9.5 -36.5s-5.83301 -26 -8.5 -41s-5 -27.333 -7 -37s-4.33301 -23.5 -7 -41.5l-6 -38
c-1.33301 -6 -3.5 -19.833 -6.5 -41.5s-4.83301 -34.167 -5.5 -37.5s-2.66699 -17.5 -6 -42.5s-5 -37.833 -5 -38.5c-1.33301 -8 -5.33301 -14.5 -12 -19.5s-14 -7 -22 -6s-14.5 4.83301 -19.5 11.5s-7.16699 14 -6.5 22c16.667 122.667 30 208.667 40 258
c-3.33301 33.333 -10.666 68.5 -21.999 105.5s-22.333 67.833 -33 92.5l-46 104c-20 43.333 -34.667 76 -44 98c-2.66699 8 -2.5 15.833 0.5 23.5s8.33301 13 16 16s15.334 3 23.001 0s13.167 -8.16699 16.5 -15.5c8 -20 21 -49.167 39 -87.5s33.833 -73.833 47.5 -106.5
s25.167 -64 34.5 -94c8 28.667 17.667 59.334 29 92.001l36 108l33 91c2 8 6.83301 13.833 14.5 17.5s15.334 4.33398 23.001 2.00098s13.334 -7.33301 17.001 -15s4.16699 -15.167 1.5 -22.5z" />
    <glyph glyph-name="Z" unicode="Z" horiz-adv-x="477" 
d="M142 705c89.333 -10.667 192.004 -8.33203 308.004 7.00098c8 0.666992 15.333 -1.5 22 -6.5s10.667 -11.5 12 -19.5c0.666992 -7.33301 -0.833008 -14 -4.5 -20s-9.16699 -10 -16.5 -12c-44 -69.333 -92.667 -153 -146 -251
c31.333 -1.33301 60.333 -3.66602 87 -6.99902c8 -1.33301 14.5 -5.33301 19.5 -12s7 -14 6 -22s-4.83301 -14.5 -11.5 -19.5s-14 -7.16699 -22 -6.5c-32.667 4.66699 -69.667 7.33398 -111 8.00098l-91 -160l-82 -138c111.333 10 212.666 8 303.999 -6
c8 -1.33301 14.5 -5.33301 19.5 -12s6.83301 -14.167 5.5 -22.5s-5.33301 -15 -12 -20s-14.334 -6.83301 -23.001 -5.5c-108 16.667 -226.333 16 -355 -2c-8 -0.666992 -15.333 1.5 -22 6.5s-10.667 11.5 -12 19.5c-0.666992 7.33301 1 14.166 5 20.499
s9.66699 10.5 17 12.5c19.333 36 49.166 87.833 89.499 155.5s69.5 117.834 87.5 150.501c-9.33301 0 -23.333 -0.333008 -42 -1s-29.334 -1 -32.001 -1c-8.66699 0 -16 2.83301 -22 8.5s-9 12.667 -9 21s2.83301 15.5 8.5 21.5s12.5 9 20.5 9c60.667 2 97 3 109 3
c50.667 94.667 96.667 174.667 138 240c-92 -8.66699 -176.333 -8.33398 -253 0.999023c-8 1.33301 -14.5 5.16602 -19.5 11.499s-7 13.666 -6 21.999s4.66699 15 11 20s13.833 7.16699 22.5 6.5z" />
    <glyph glyph-name="bracketleft" unicode="[" horiz-adv-x="262" 
d="M229 692c-4 0 -17.333 -0.667969 -40 -2.00098c-21.333 -1.33301 -39.333 -2.66602 -54 -3.99902c-22.667 -2 -39.667 -4 -51 -6c-1.33301 0 -3 -0.333008 -5 -1v-5v-58c0.666992 -42.667 2.33398 -101.334 5.00098 -176.001l4 -124l5 -111
c1.33301 -29.333 2 -47.333 2 -54v-16c0 -8.66699 0.166992 -20.334 0.5 -35.001s0.5 -27.667 0.5 -39c0 -23.333 0.333008 -41.666 1 -54.999v-5h2c12 -1.33301 28.333 -1.66602 49 -0.999023c13.333 0.666992 31 1.66699 53 3s35 2 39 2c8 0 15 -3 21 -9s9 -13 9 -21
s-3 -15 -9 -21s-13 -9 -21 -9c-4 0 -16.667 -0.666992 -38 -2s-38.666 -2.33301 -51.999 -3c-22.667 -0.666992 -41.334 -0.333984 -56.001 0.999023c-9.33301 0.666992 -17 2 -23 4c-12 2.66699 -21 8 -27 16c-1.33301 2 -2.5 4.16699 -3.5 6.5s-1.5 3.83301 -1.5 4.5l-1 2
v4c-0.666992 2 -1 4.33301 -1 7v20c-0.666992 13.333 -1 32 -1 56c0 11.333 -0.166992 24.166 -0.5 38.499s-0.5 25.833 -0.5 34.5v15c0 6.66699 -0.666992 24.667 -2 54l-5 111l-4 124c-2.66699 75.333 -4.33398 134.333 -5.00098 177v60c0 8 0.333008 14.333 1 19
c0 3.33301 0.333008 6 1 8c0.666992 6 2.33398 11 5.00098 15c5.33301 7.33301 13.666 13 24.999 17c6 2 13.667 3.66699 23 5c12.667 2.66699 31.334 5 56.001 7c15.333 1.33301 33.333 2.66602 54 3.99902c21.333 0.666992 33.666 1.33398 36.999 2.00098
c8.66699 0.666992 16.167 -1.5 22.5 -6.5s10 -11.667 11 -20s-1 -15.666 -6 -21.999s-11.5 -10.166 -19.5 -11.499z" />
    <glyph glyph-name="backslash" unicode="\" horiz-adv-x="462" 
d="M388 -6c-54.667 80 -119.666 190.999 -194.999 332.999c-95.333 178.667 -156 290 -182 334c-4 7.33301 -5 15 -3 23s6.66699 14 14 18s15 5 23 3s14 -6.66699 18 -14c26 -44.667 87 -156.667 183 -336c74 -138.667 138 -247.667 192 -327
c4.66699 -6.66699 6.16699 -14.167 4.5 -22.5s-5.83398 -14.833 -12.501 -19.5s-14.167 -6.16699 -22.5 -4.5s-14.833 5.83398 -19.5 12.501z" />
    <glyph glyph-name="bracketright" unicode="]" horiz-adv-x="256" 
d="M57 3c5.33301 0.666992 18.332 1.33594 38.999 2.00293l55 3c22 2 39 4 51 6c2 0 3.66699 0.333008 5 1v5c0.666992 13.333 0.666992 32.666 0 57.999c-0.666992 43.333 -2 102 -4 176l-5 122l-4 113c-0.666992 29.333 -1 47.333 -1 54v17v33v40v55v5h-3
c-12 1.33301 -28.333 1.66602 -49 0.999023l-53 -2c-22 -1.33301 -35 -2 -39 -2c-8 0 -15 3 -21 9s-9 13 -9 21s3 15 9 21s13 9 21 9c4 0 16.333 0.666992 37 2l53 2c23.333 0.666992 42 0.333984 56 -0.999023c9.33301 -0.666992 17.333 -2 24 -4
c11.333 -3.33301 20 -8.66602 26 -15.999l6 -12v-5c0.666992 -2 1 -4.33301 1 -7c0 -4.66699 0.333008 -11.334 1 -20.001v-56v-39v-32v-17c0 -7.33301 0.333008 -25.666 1 -54.999l4 -112l5 -122c2.66699 -75.333 4 -134.333 4 -177c0.666992 -26 0.666992 -46 0 -60
c0 -8 -0.333008 -14.667 -1 -20c0 -2.66699 -0.333008 -5.33398 -1 -8.00098c-0.666992 -5.33301 -2.33398 -10 -5.00098 -14c-5.33301 -7.33301 -13.666 -13 -24.999 -17c-6 -2 -13.667 -3.66699 -23 -5c-14 -2.66699 -32.667 -4.66699 -56 -6
c-14 -1.33301 -33 -2.66602 -57 -3.99902c-19.333 -0.666992 -30.666 -1.33398 -33.999 -2.00098c-8.66699 -0.666992 -16.167 1.5 -22.5 6.5s-10 11.667 -11 20s1 15.666 6 21.999s11.5 10.166 19.5 11.499z" />
    <glyph glyph-name="asciicircum" unicode="^" horiz-adv-x="331" 
d="M32 584l84.999 105.003c12 13.333 21.667 23.333 29 30c12 10 24.333 15 37 15c13.333 0 26 -5.33301 38 -16c6 -5.33301 14 -15 24 -29l17 -23l24 -36l27 -37c4.66699 -6.66699 6.5 -14 5.5 -22s-4.83301 -14.5 -11.5 -19.5s-14 -7 -22 -6s-14.667 4.83301 -20 11.5
l-27 37l-26 36l-16 24c-5.33301 8 -9.66602 13.667 -12.999 17c-4.66699 -4 -11.334 -11 -20.001 -21l-85 -104c-5.33301 -6.66699 -12.166 -10.334 -20.499 -11.001s-15.666 1.66602 -21.999 6.99902s-9.83301 12.166 -10.5 20.499s1.66602 15.5 6.99902 21.5z" />
    <glyph glyph-name="underscore" unicode="_" 
d="M33 -85l108.999 16.9951c50 8.66699 94 15.667 132 21s74.333 9.66602 109 12.999c8.66699 0.666992 16.167 -1.66602 22.5 -6.99902s9.83301 -12.166 10.5 -20.499s-1.66602 -15.666 -6.99902 -21.999s-12 -9.83301 -20 -10.5
c-35.333 -3.33301 -71.666 -7.66602 -108.999 -12.999s-80.833 -12.166 -130.5 -20.499s-85.834 -14.166 -108.501 -17.499c-8 -1.33301 -15.333 0.5 -22 5.5s-10.667 11.667 -12 20s0.5 15.833 5.5 22.5s11.833 10.667 20.5 12z" />
    <glyph glyph-name="grave" unicode="`" horiz-adv-x="200" 
d="M75 774c13.333 -16 33.0029 -41.3311 59.0029 -75.998c24.667 -32 44 -55.667 58 -71c5.33301 -6.66699 7.66602 -14 6.99902 -22s-4.16699 -14.833 -10.5 -20.5s-13.5 -8.16699 -21.5 -7.5s-15 4 -21 10c-14.667 16.667 -34.334 41.667 -59.001 75
c-26 33.333 -45.333 57.333 -58 72c-5.33301 6.66699 -7.66602 14.167 -6.99902 22.5s4.16699 15.166 10.5 20.499s13.666 7.66602 21.999 6.99902s15.166 -4 20.499 -10z" />
    <glyph glyph-name="a" unicode="a" horiz-adv-x="434" 
d="M311 331l-6.00195 -7.00098c-11.333 -12 -29.666 -30 -54.999 -54l-51 -48c-41.333 -40.667 -68.666 -73.667 -81.999 -99c-14.667 -27.333 -15.667 -49 -3 -65c2.66699 -3.33301 9 -6.33301 19 -9c16 -4 33 1.33301 51 16c18 15.333 36.333 39.333 55 72
c31.333 54.667 54 112.667 68 174c2.66699 10.667 4 17.334 4 20.001zM103.998 423.999c7.33301 6.66699 23.9961 16.332 49.9961 28.999c24.667 12.667 49.667 23 75 31c34 11.333 61.667 15 83 11c16.667 -2.66699 30 -9.66699 40 -21
c10 -12.667 14.667 -28.334 14 -47.001c0 -3.33301 -0.333008 -6.66602 -1 -9.99902c2 -1.33301 3.66699 -3 5 -5c2.66699 -2.66699 4.66699 -6 6 -10c0.666992 -2 1.33398 -4.66699 2.00098 -8c0.666992 -4 1.33398 -9.33301 2.00098 -16
c0.666992 -9.33301 1.33398 -22.666 2.00098 -39.999c0 -8.66699 0.166992 -18 0.5 -28s0.666016 -18.167 0.999023 -24.5s0.5 -9.83301 0.5 -10.5c8.66699 -105.333 26 -187.333 52 -246c2.66699 -7.33301 2.5 -15 -0.5 -23s-8.16699 -13.5 -15.5 -16.5s-15 -3 -23 0
s-13.667 8.16699 -17 15.5c-22 52 -38 115 -48 189c-12.667 -31.333 -26.334 -60.333 -41.001 -87c-22 -39.333 -45 -69 -69 -89c-33.333 -26.667 -67.666 -35.667 -102.999 -27c-24 6 -41.667 16.333 -53 31c-28 36.667 -28.667 79.667 -2 129
c16.667 30.667 47.667 68.667 93 114l50 47l55 54c28.667 30 43.334 51 44.001 63v6c-1.33301 0.666992 -2.66602 1 -3.99902 1c-12 2 -30.333 -1 -55 -9c-14.667 -4.66699 -30.334 -11 -47.001 -19c-16.667 -7.33301 -29.834 -13.666 -39.501 -18.999
s-15.834 -9 -18.501 -11c-6 -5.33301 -13.167 -7.66602 -21.5 -6.99902s-15.166 4.16699 -20.499 10.5s-7.66602 13.666 -6.99902 21.999s4.33398 15.166 11.001 20.499z" />
    <glyph glyph-name="b" unicode="b" horiz-adv-x="387" 
d="M101 45c61.333 27.333 114.332 66.333 158.999 117c56.667 64 80 127.333 70 190c-4 28 -17 45.333 -39 52c-12 4 -26 -0.333008 -42 -13c-18 -13.333 -37 -35.333 -57 -66c-16.667 -26 -31.667 -53.333 -45 -82c-13.333 -29.333 -22.666 -53 -27.999 -71
c-7.33301 -23.333 -11.333 -37.333 -12 -42s-2 -20 -4 -46c0 -3.33301 -0.333008 -12.333 -1 -27c-0.666992 -6 -1 -9.66699 -1 -11v-1zM94.999 651c7.33301 -92.667 10.3389 -212.669 9.00586 -360.002c12 24.667 24.667 47 38 67c23.333 36 46.666 63 69.999 81
c33.333 25.333 65.666 33 96.999 23c23.333 -8 41.666 -21 54.999 -39s22 -38.333 26 -61c12.667 -81.333 -15.666 -161.333 -84.999 -240c-28 -32 -60.667 -60.667 -98 -86c-36.667 -24.667 -73 -43.334 -109 -56.001c-8 -2.66699 -15.667 -2.33398 -23 0.999023
s-12.333 9 -15 17c-2.66699 6.66699 -2.66699 13.334 0 20.001c-7.33301 3.33301 -12.666 8.33301 -15.999 15c-0.666992 2 -1.33398 4.33301 -2.00098 7l-1 7v2c0 34.667 0.666992 96.334 2 185.001s1.66602 164.667 0.999023 228
c-0.666992 58.667 -3.66699 120.334 -9 185.001c-0.666992 8 1.66602 15.167 6.99902 21.5s12.166 9.83301 20.499 10.5s15.666 -1.66602 21.999 -6.99902s9.83301 -12.333 10.5 -21z" />
    <glyph glyph-name="c" unicode="c" horiz-adv-x="334" 
d="M275 350c-26 51.333 -51.0029 81.3301 -75.0029 89.9971c-15.333 4.66699 -31 -1.66602 -47 -18.999c-19.333 -21.333 -35.166 -52.333 -47.499 -93s-17.833 -80 -16.5 -118c1.33301 -30.667 5 -57.5 11 -80.5s13.5 -40.167 22.5 -51.5s18 -19.666 27 -24.999
s17.5 -7.66602 25.5 -6.99902c22 1.33301 44.167 17.5 66.5 48.5s37.833 76.833 46.5 137.5c1.33301 8.66699 5.33301 15.334 12 20.001s14.167 6.5 22.5 5.5s14.833 -4.83301 19.5 -11.5s6.66699 -14 6 -22c-10 -69.333 -30.333 -125.666 -61 -168.999
s-66.667 -66.333 -108 -69c-43.333 -2.66699 -78.666 16.666 -105.999 57.999s-42 96 -44 164c-1.33301 44.667 5 91.334 19 140.001c14.667 47.333 34.667 85 60 113c34 37.333 71 49.333 111 36c39.333 -13.333 76 -53 110 -119c3.33301 -7.33301 3.83301 -15 1.5 -23
s-7.16602 -13.833 -14.499 -17.5s-15 -4.33398 -23 -2.00098s-14 7.16602 -18 14.499z" />
    <glyph glyph-name="d" unicode="d" horiz-adv-x="397" 
d="M316 48l-5.00391 13.001c-2 5.33301 -8.66699 25.333 -20 60c-1.33301 5.33301 -5.66602 21 -12.999 47s-15.166 51.5 -23.499 76.5s-17.166 48.167 -26.499 69.5c-17.333 38 -34.666 65.667 -51.999 83c-16 15.333 -32.333 20.333 -49 15
c-18 -5.33301 -29.667 -24 -35 -56c-5.33301 -28.667 -5 -59.334 1 -92.001c11.333 -57.333 37 -104.833 77 -142.5s88.667 -62.167 146 -73.5zM388.996 656.001c4 -58.667 5.66992 -136.999 5.00293 -234.999c-0.666992 -126 -0.666992 -203.333 0 -232
c0 -1.33301 0.166992 -6.33301 0.5 -15s0.666016 -19.834 0.999023 -33.501s0.5 -26.167 0.5 -37.5c0.666992 -23.333 1.33398 -41.666 2.00098 -54.999v-19c-0.666992 -2.66699 -1 -5 -1 -7v-4l-2 -6c-0.666992 -2.66699 -2 -5 -4 -7c-1.33301 -2 -3 -3.66699 -5 -5
c-6 -12 -15.667 -17.667 -29 -17c-80 4.66699 -149.667 31 -209 79c-60 47.333 -97.667 110.666 -113 189.999c-8 40 -8.66699 78.333 -2 115c10 55.333 35.333 89.666 76 102.999c38.667 12 75 2 109 -30c23.333 -22.667 45 -56.667 65 -102c16 -36.667 33 -86 51 -148
c-0.666992 28 -0.666992 105 0 231c0.666992 96.667 -1 173.667 -5 231c-0.666992 8 1.66602 15.167 6.99902 21.5s12.166 9.83301 20.499 10.5s15.666 -1.66602 21.999 -6.99902s9.83301 -12.333 10.5 -21z" />
    <glyph glyph-name="e" unicode="e" horiz-adv-x="356" 
d="M126 336c6 -4 17.334 -4.66895 34.001 -2.00195c19.333 4 38.333 11.667 57 23c19.333 12.667 32.166 25.167 38.499 37.5s6.83301 23.5 1.5 33.5c-2 4 -6.33301 7 -13 9c-28 8.66699 -55 -2.66602 -81 -33.999c-14 -17.333 -26.333 -39.666 -37 -66.999zM76.001 371.998
c12 27.333 25.667 50.334 41 69.001c42 52.667 90.333 70.667 145 54c22.667 -7.33301 39 -20.333 49 -39c15.333 -29.333 15.666 -57.333 0.999023 -84s-35.667 -48.334 -63 -65.001c-25.333 -16 -51.666 -26.667 -78.999 -32c-24 -4 -45 -3 -63 3
c-0.666992 -4 -1.66699 -8.33301 -3 -13c-12 -57.333 -12.667 -108.666 -2 -153.999c9.33301 -40.667 26 -63.334 50 -68.001c36.667 -6.66699 72 16 106 68c8 11.333 19 36 33 74c2.66699 8 7.83398 13.667 15.501 17s15.334 3.66602 23.001 0.999023
s13.167 -7.83398 16.5 -15.501s3.66602 -15.167 0.999023 -22.5c-1.33301 -3.33301 -3.33301 -9 -6 -17s-5 -14 -7 -18l-6 -16c-2.66699 -6.66699 -5.66699 -13 -9 -19s-7 -12 -11 -18c-48.667 -73.333 -104 -104 -166 -92c-50.667 8.66699 -83.667 46.334 -99 113.001
c-12 52.667 -11 112.334 3 179.001c4 19.333 9 38 15 56c-3.33301 6.66699 -3.83301 13.667 -1.5 21s6.5 13 12.5 17c1.33301 0.666992 2.66602 1 3.99902 1z" />
    <glyph glyph-name="f" unicode="f" horiz-adv-x="328" 
d="M288 491c2.66699 28.667 1.49805 58.3311 -3.50195 88.998s-13.833 54 -26.5 70c-8.66699 11.333 -21 15.333 -37 12s-27 -12.666 -33 -27.999c-3.33301 -10 -5.83301 -21.5 -7.5 -34.5s-2.66699 -31 -3 -54s-0.5 -37.167 -0.5 -42.5
c-1.33301 -32.667 -2.33301 -68 -3 -106c28 1.33301 52 1.66602 72 0.999023c8 0 14.833 -3.16699 20.5 -9.5s8.5 -13.5 8.5 -21.5s-3.16699 -14.833 -9.5 -20.5s-13.5 -8.5 -21.5 -8.5c-20 0.666992 -43.333 0.333984 -70 -0.999023c0.666992 -18.667 1 -43.667 1 -75
c2 -112.667 2.33301 -194 1 -244c0 -8 -3 -14.833 -9 -20.5s-13.167 -8.5 -21.5 -8.5s-15.333 3 -21 9s-8.5 13.333 -8.5 22c1.33301 48.667 1.33301 129 0 241c-0.666992 29.333 -1 54 -1 74c-26.667 -1.33301 -48.667 -2 -66 -2c-8 0 -15 3 -21 9s-9 13 -9 21s3 15 9 21
s13 9 21 9c17.333 0 39 0.666992 65 2c0.666992 40 1.66699 76.667 3 110c0 4.66699 0.166992 15 0.5 31s0.833008 29.5 1.5 40.5s2 24.167 4 39.5s5 28 9 38c5.33301 16 14.833 29.833 28.5 41.5s28.667 20 45 25s33.666 4.83301 51.999 -0.5s33.833 -16 46.5 -32
c20 -24.667 33.167 -56 39.5 -94s7.83301 -74.333 4.5 -109c-0.666992 -8 -4.16699 -14.667 -10.5 -20s-13.666 -7.66602 -21.999 -6.99902s-15.166 4.16699 -20.499 10.5s-7.66602 13.833 -6.99902 22.5z" />
    <glyph glyph-name="g" unicode="g" horiz-adv-x="337" 
d="M273 438c-2 0 -3.33496 0.333984 -4.00195 1.00098h-6c-40 -12.667 -79 -48 -117 -106c-34.667 -52.667 -57 -104.334 -67 -155.001c-5.33301 -28.667 -6.16602 -54.5 -2.49902 -77.5s11.5 -34.833 23.5 -35.5c13.333 -1.33301 27 5.66699 41 21
c14.667 16 29.334 40.333 44.001 73c10.667 24.667 21.667 55.667 33 93c2.66699 7.33301 5.66699 16.666 9 27.999l8 28l7 19c16.667 48 26 75.333 28 82c0.666992 0.666992 1 1.83398 1 3.50098s0.166992 4.5 0.5 8.5s0.5 7.66699 0.5 11c0.666992 2.66699 1 4.66699 1 6z
M282.998 258.001l-7.99902 -23.998c-12 -39.333 -23.667 -72.333 -35 -99c-17.333 -38.667 -35.666 -68.334 -54.999 -89.001c-26.667 -30 -56.334 -43.667 -89.001 -41c-24.667 2 -43.167 11.333 -55.5 28s-20.166 36 -23.499 58c-4.66699 30 -3.33398 63 3.99902 99
c10.667 57.333 35.667 116 75 176c46 70 95.667 113.667 149 131c10 2.66699 21.667 3 35 1c0 -0.666992 3.66699 -1.66699 11 -3c3.33301 -0.666992 5.66602 -1 6.99902 -1c7.33301 -0.666992 13.5 -3.5 18.5 -8.5s7.83301 -11.167 8.5 -18.5c2.66699 -2 5 -4.33301 7 -7
c3.33301 -4 5.66602 -8.66699 6.99902 -14c0.666992 -2.66699 1.33398 -5.66699 2.00098 -9c0.666992 -5.33301 1.33398 -12 2.00098 -20v-49c0 -10 -0.166992 -21.167 -0.5 -33.5s-0.5 -22.5 -0.5 -30.5v-16c0 -3.33301 0.5 -17 1.5 -41s1.5 -45.5 1.5 -64.5
s-0.166992 -42 -0.5 -69s-1.66602 -53.667 -3.99902 -80s-5.5 -50.5 -9.5 -72.5c-14 -72.667 -38.667 -119.667 -74 -141c-46.667 -27.333 -103.334 -10.333 -170.001 51c-6 5.33301 -9.33301 12.166 -10 20.499s1.83301 15.5 7.5 21.5s12.667 9.33301 21 10
s15.5 -2 21.5 -8c45.333 -41.333 78.666 -55.666 99.999 -42.999c19.333 11.333 34.333 44.666 45 99.999c11.333 62 15 157.333 11 286zM281.999 420.003c-4.66699 -2.66699 -4.33301 -4.66699 1 -6c-0.666992 2.66699 -1 4.66699 -1 6z" />
    <glyph glyph-name="h" unicode="h" 
d="M55 98c-2.66699 17.333 -3.99707 29.668 -3.99707 37.001c-4 95.333 -15 281.333 -33 558c-0.666992 8 1.83301 15.167 7.5 21.5s12.5 9.83301 20.5 10.5s15.167 -1.83301 21.5 -7.5s9.83301 -12.5 10.5 -20.5l25 -386c6.66699 17.333 13.667 33.333 21 48
c20.667 42 42 73 64 93c33.333 30 67.666 36.667 102.999 20c30.667 -14.667 54 -45.667 70 -93c11.333 -34 18.666 -77.667 21.999 -131c4.66699 -80.667 1.33398 -159 -9.99902 -235c-1.33301 -8 -5.33301 -14.5 -12 -19.5s-14.167 -6.83301 -22.5 -5.5
s-15 5.33301 -20 12s-6.83301 14.334 -5.5 23.001c11.333 71.333 14.666 145 9.99902 221c-2.66699 48.667 -9 87.667 -19 117c-10 30.667 -23 49.667 -39 57c-10.667 5.33301 -23 1.66602 -37 -11.001c-16.667 -14.667 -33.334 -39 -50.001 -73
c-14 -29.333 -26.167 -60.5 -36.5 -93.5s-16.833 -57.5 -19.5 -73.5c-4 -22 -6.33301 -44.333 -7 -67c0.666992 -8.66699 1.33398 -16.334 2.00098 -23.001c3.33301 -30.667 2.66602 -54.667 -2.00098 -72c-0.666992 -3.33301 -1.66699 -6 -3 -8
c-8.66699 -15.333 -21 -19.666 -37 -12.999c-4 1.33301 -7.5 3.5 -10.5 6.5s-4.83301 5.16699 -5.5 6.5l-1 3l-2 6c0 2 -0.333008 4.66699 -1 8c0 4 -0.333008 9.66699 -1 17c-0.666992 16.667 -0.666992 32.667 0 48c0 7.33301 0.333008 13.666 1 18.999z" />
    <glyph glyph-name="i" unicode="i" horiz-adv-x="100" 
d="M88 461c0.666992 -42.667 0.5 -117.833 -0.5 -225.5s-0.5 -182.834 1.5 -225.501c0 -9.33301 -2.83301 -17 -8.5 -23s-12.667 -9 -21 -9s-15.5 2.83301 -21.5 8.5s-9 12.834 -9 21.501c-2 43.333 -2.5 118.833 -1.5 226.5s1.16699 183.167 0.5 226.5
c0 8.66699 2.83301 16 8.5 22s12.667 9 21 9s15.5 -2.83301 21.5 -8.5s9 -13.167 9 -22.5zM89 573.001c0 -8 -3 -15 -9 -21s-13 -9 -21 -9s-15 3 -21 9s-9 13 -9 21s3 15 9 21s13 9 21 9s15 -3 21 -9s9 -13 9 -21z" />
    <glyph glyph-name="j" unicode="j" horiz-adv-x="244" 
d="M85 114c0 -72.667 2.66797 -124.664 8.00098 -155.997s12.666 -53 21.999 -65c6 -8 14 -10 24 -6c12 4.66699 20.333 15 25 31c4.66699 12.667 7.83398 27.167 9.50098 43.5s2.5 30.666 2.5 42.999s-0.333008 29.166 -1 50.499s-1 37.333 -1 48c0 46 -1 110.667 -3 194
s-3.33301 137.333 -4 162c0 8 2.83301 15 8.5 21s12.667 9 21 9s15.5 -2.83301 21.5 -8.5s9 -12.834 9 -21.501c0.666992 -24 2 -77.833 4 -161.5s3 -148.5 3 -194.5c0 -7.33301 0.333008 -22.166 1 -44.499s1 -40.5 1 -54.5s-1.16699 -31 -3.5 -51
s-5.83301 -37.667 -10.5 -53c-4.66699 -14.667 -12.334 -28.334 -23.001 -41.001s-23.334 -22 -38.001 -28c-38 -15.333 -69 -7 -93 25c-15.333 20.667 -26.666 51 -33.999 91c-6 35.333 -9 91 -9 167c0 8 3 15 9 21s13 9 21 9s15 -3 21 -9s9 -13 9 -21zM235.001 565.003
c0 -8 -3 -15 -9 -21s-13 -9 -21 -9s-15 3 -21 9s-9 13 -9 21s3 15 9 21s13 9 21 9s15 -3 21 -9s9 -13 9 -21z" />
    <glyph glyph-name="k" unicode="k" horiz-adv-x="428" 
d="M313 396l-24.002 -26.0068l-43 -48l-46 -51c-27.333 -30 -48.333 -54 -63 -72c-7.33301 -9.33301 -13 -17 -17 -23c4.66699 -3.33301 11 -6.66602 19 -9.99902c20.667 -9.33301 50 -19.333 88 -30c32.667 -8.66699 64 -16 94 -22c32 -6 53 -9 63 -9
c8 0 14.833 -3.16699 20.5 -9.5s8.5 -13.5 8.5 -21.5s-3.16699 -14.833 -9.5 -20.5s-13.5 -8.5 -21.5 -8.5c-12.667 0.666992 -36 4.16699 -70 10.5s-67.667 13.833 -101 22.5c-40.667 11.333 -73 22.666 -97 33.999c-4 1.33301 -7.66699 3 -11 5
c-3.33301 -34 -7 -66 -11 -96c-1.33301 -8.66699 -5.33301 -15.334 -12 -20.001s-14.167 -6.5 -22.5 -5.5s-14.833 4.83301 -19.5 11.5s-6.66699 14 -6 22c4 28 7.5 56.5 10.5 85.5s5.16699 60.5 6.5 94.5s2.33301 63.333 3 88s0.833984 57.334 0.500977 98.001
s-0.666016 70.334 -0.999023 89.001s-1.16602 50.834 -2.49902 96.501s-2 74.834 -2 87.501c0 8.66699 2.83301 16 8.5 22s12.667 9 21 9s15.5 -2.83301 21.5 -8.5s9 -12.5 9 -20.5c4.66699 -207.333 6 -343.666 4 -408.999l44 50l46 51l43 47c11.333 12.667 19 21 23 25
c5.33301 6.66699 12.166 10.334 20.499 11.001s15.666 -1.66602 21.999 -6.99902s9.83301 -12.166 10.5 -20.499s-1.66602 -15.5 -6.99902 -21.5z" />
    <glyph glyph-name="l" unicode="l" horiz-adv-x="128" 
d="M99 665c-2 -42 -3.16699 -83.834 -3.5 -125.501s0.333984 -89 2.00098 -142s3 -92.667 4 -119s3.33301 -73.666 7 -141.999s5.83398 -110.166 6.50098 -125.499c0.666992 -8 -1.83301 -15 -7.5 -21s-12.667 -9.33301 -21 -10s-15.5 1.83301 -21.5 7.5
s-9.33301 12.834 -10 21.501c-0.666992 10 -2.83398 51.333 -6.50098 124s-6 121.167 -7 145.5s-2.33301 64.166 -4 119.499s-2.33398 103.666 -2.00098 144.999s1.5 82.666 3.5 123.999c0.666992 8.66699 4 15.834 10 21.501s13.167 8.16699 21.5 7.5s15.333 -4 21 -10
s8.16699 -13 7.5 -21z" />
    <glyph glyph-name="m" unicode="m" horiz-adv-x="631" 
d="M267 425c-2.66699 -2 -5.3291 -4.66504 -7.99609 -7.99805c-10 -12.667 -19.333 -27.667 -28 -45c-40.667 -82 -70.334 -157 -89.001 -225c-2 -7.33301 -5.33301 -27.666 -10 -60.999c-4 -30.667 -10.333 -54.667 -19 -72c-2 -3.33301 -4 -6.33301 -6 -9
c-5.33301 -6.66699 -12.333 -10.667 -21 -12c-12.667 -2 -22.667 2.66699 -30 14c-2 3.33301 -3.66699 7.33301 -5 12c-1.33301 6 -2 15.333 -2 28c0 3.33301 0.333008 13.666 1 30.999v23c-2.66699 46 -4.33398 79 -5.00098 99c-4 114 -10 204.667 -18 272
c-0.666992 8 1.5 15.167 6.5 21.5s11.667 10 20 11s15.666 -1 21.999 -6s10.166 -11.833 11.499 -20.5c8 -72 13.667 -155.333 17 -250c18 52 42.333 108.667 73 170c11.333 22 23.333 41 36 57c12 14 23.667 23.667 35 29c20.667 10.667 39.667 9.33398 57 -3.99902
c7.33301 -6 13 -16 17 -30c2.66699 -8.66699 5.33398 -19.667 8.00098 -33c4 -21.333 8 -50 12 -86l1 -15c15.333 36 33.666 68.667 54.999 98c17.333 23.333 34.333 41 51 53c16.667 10.667 32.667 16 48 16c20.667 0 38 -9.33301 52 -28c5.33301 -7.33301 10 -19 14 -35
c3.33301 -12 6.33301 -27.333 9 -46c5.33301 -30 10.666 -71.333 15.999 -124c2.66699 -22.667 5.66699 -51.334 9 -86.001l9 -84c2 -22.667 4 -39 6 -49c1.33301 -8.66699 -0.5 -16.334 -5.5 -23.001s-11.667 -10.667 -20 -12s-15.833 0.5 -22.5 5.5s-10.667 11.5 -12 19.5
l-6 50l-8 86c-4 34.667 -7 63.334 -9 86.001c-5.33301 49.333 -10.666 89.666 -15.999 120.999c-2.66699 18 -5.33398 32 -8.00098 42l-4 13l-4 4c-3.33301 0 -8 -2 -14 -6c-11.333 -8 -23.666 -21 -36.999 -39c-22 -30.667 -40.5 -65.667 -55.5 -105
s-24.167 -78.333 -27.5 -117c-1.33301 -10 -1.33301 -26.667 0 -50c1.33301 -25.333 1.33301 -44.333 0 -57c0 -1.33301 -0.333008 -2.66602 -1 -3.99902c0 -2 -0.333008 -3.66699 -1 -5c-0.666992 -2 -1.66699 -4 -3 -6c-3.33301 -5.33301 -8 -9.33301 -14 -12
c-10.667 -4.66699 -20.667 -3.33398 -30 3.99902c-3.33301 2.66699 -6 6 -8 10c-1.33301 2 -2 4.33301 -2 7c-0.666992 1.33301 -1 2.66602 -1 3.99902c-0.666992 2 -1 5.33301 -1 10c0 2 -0.666992 13 -2 33c-2 40.667 -4 71 -6 91c0 2.66699 -1.33301 21.334 -4 56.001
s-5.33398 63.667 -8.00098 87c-3.33301 34.667 -7 62 -11 82c-1.33301 7.33301 -2.66602 13.666 -3.99902 18.999z" />
    <glyph glyph-name="n" unicode="n" 
d="M93 208c19.333 47.333 39.3398 91.3379 60.0068 132.005c18.667 36 36 65.667 52 89c22 30.667 42.667 50 62 58c23.333 9.33301 44.666 6.66602 63.999 -8.00098c14 -10.667 25.333 -27.667 34 -51c13.333 -33.333 22.333 -82.333 27 -147
c6.66699 -85.333 7 -174 1 -266c-0.666992 -8 -4 -14.833 -10 -20.5s-13.167 -8.16699 -21.5 -7.5s-15.333 4 -21 10s-8.16699 13.333 -7.5 22c6 91.333 5.66699 177 -1 257c-4 58.667 -11.667 102 -23 130c-4.66699 12.667 -9.66699 21 -15 25
c-0.666992 0.666992 -2.33398 0.666992 -5.00098 0c-8 -3.33301 -19.667 -15.666 -35 -36.999c-14.667 -20.667 -30.667 -48 -48 -82c-26.667 -52.667 -49.667 -104.334 -69 -155.001c-2.66699 -8 -7.66699 -25 -15 -51l-15 -55v-2
c0 -0.666992 -0.166992 -2.33398 -0.5 -5.00098s-0.833008 -5.66699 -1.5 -9c-0.666992 -8.66699 -2.33398 -15.334 -5.00098 -20.001c-5.33301 -8.66699 -12.666 -14 -21.999 -16c-8.66699 -2 -17.334 -0.333008 -26.001 5
c-4.66699 3.33301 -8.33398 7.66602 -11.001 12.999c-0.666992 2 -1.16699 4 -1.5 6s-0.833008 4.33301 -1.5 7c-0.666992 3.33301 -1 7.66602 -1 12.999c-0.666992 9.33301 -1.33398 21.333 -2.00098 36c-0.666992 16 -1 34.667 -1 56c-2 145.333 -7.33301 255 -16 329
c-0.666992 8.66699 1.5 16.167 6.5 22.5s11.667 10 20 11s15.666 -1 21.999 -6s10.166 -11.5 11.499 -19.5c8 -70 13 -158 15 -264z" />
    <glyph glyph-name="o" unicode="o" horiz-adv-x="337" 
d="M166 489c6.66699 7.33301 15.001 10.334 25.001 9.00098c1.33301 -0.666992 3.33301 -1 6 -1h10c12.667 -0.666992 23 -3 31 -7c31.333 -16.667 55.333 -51.334 72 -104.001c14 -45.333 21 -95.666 21 -150.999c0 -57.333 -8 -107 -24 -149
c-20 -52 -49.667 -83.667 -89 -95c-31.333 -8.66699 -59.666 -8.5 -84.999 0.5s-46 25.167 -62 48.5c-26.667 39.333 -39.334 93 -38.001 161c1.33301 63.333 13.666 122 36.999 176c24.667 57.333 56.667 94.666 96 111.999zM194.001 436.001
c-26.667 -9.33301 -49.667 -36.999 -69 -82.999c-20 -47.333 -30.667 -98.333 -32 -153c-0.666992 -55.333 8.66602 -97.333 27.999 -126c18 -26.667 45 -35 81 -25c20 5.33301 36.333 24.666 49 57.999c13.333 35.333 20 78 20 128c0 49.333 -6 93.333 -18 132
c-12 37.333 -26.333 60.333 -43 69c0 0.666992 -1.66699 1 -5 1h-7c-1.33301 -0.666992 -2.66602 -1 -3.99902 -1z" />
    <glyph glyph-name="p" unicode="p" horiz-adv-x="365" 
d="M86 0c-0.666992 -64 -1.00098 -112.334 -1.00098 -145.001c0 -8 -3 -15 -9 -21s-13 -9 -21 -9s-15 3 -21 9s-9 13 -9 21c0 33.333 0.166992 83.5 0.5 150.5s0.5 120.5 0.5 160.5s-0.5 88.5 -1.5 145.5s-2.83301 109.5 -5.5 157.5c-0.666992 8.66699 1.83301 16 7.5 22
s12.667 9.33301 21 10s15.5 -1.83301 21.5 -7.5s9.33301 -12.5 10 -20.5c2.66699 -47.333 4.66699 -98.333 6 -153c13.333 26 26.666 48.667 39.999 68c56.667 82.667 116.334 115 179.001 97c26.667 -8 47.334 -26 62.001 -54c20 -36.667 19 -80 -3 -130
c-16 -37.333 -44.333 -78.666 -85 -123.999c-44.667 -50 -108.667 -109 -192 -177zM85.999 77.999c61.333 51.333 110.331 97.666 146.998 138.999c35.333 40 60.333 76 75 108s16.667 58 6 78c-7.33301 12.667 -16.666 20.667 -27.999 24
c-34 10.667 -71.333 -13.666 -112 -72.999c-8.66699 -12.667 -17.667 -27.5 -27 -44.5s-16.666 -30.833 -21.999 -41.5l-20 -44l-16 -33c-0.666992 -2 -1.66699 -3.66699 -3 -5v-108z" />
    <glyph glyph-name="q" unicode="q" horiz-adv-x="387" 
d="M325 417l-1.00098 13c-42.667 -15.333 -82.167 -42 -118.5 -80s-67.166 -81.333 -92.499 -130c-14 -26 -22.667 -51.333 -26 -76c-3.33301 -26 1.66699 -42 15 -48c12 -5.33301 28 0.666992 48 18c21.333 19.333 45.333 51.333 72 96c20.667 34.667 42 75.667 64 123z
M381.999 484c7.33301 -146.667 10.999 -357.667 10.999 -633c0 -8 -3 -15 -9 -21s-13 -9 -21 -9s-15 3 -21 9s-9 13 -9 21c0 186.667 -1.33301 331 -4 433c-19.333 -40.667 -37.666 -75.334 -54.999 -104.001c-29.333 -50 -57.333 -86.667 -84 -110
c-39.333 -35.333 -77.333 -44.666 -114 -27.999c-40 18 -56 54.667 -48 110c4 31.333 14.333 63.333 31 96c30 57.333 67.667 108.5 113 153.5s96 75.5 152 91.5c4.66699 12.667 13.667 19.334 27 20.001c8 0.666992 15 -1.83301 21 -7.5s9.33301 -12.834 10 -21.501z" />
    <glyph glyph-name="r" unicode="r" horiz-adv-x="269" 
d="M82 295c36 89.333 86.332 158 150.999 206c6.66699 4.66699 14.167 6.5 22.5 5.5s14.833 -4.83301 19.5 -11.5s6.5 -14.167 5.5 -22.5s-4.83301 -14.833 -11.5 -19.5c-52 -38.667 -92.667 -91.334 -122 -158.001s-47.333 -138.667 -54 -216
c-0.666992 -4 -0.666992 -12 0 -24c0.666992 -14.667 0.333984 -26.334 -0.999023 -35.001c-0.666992 -2.66699 -1.16699 -4.83398 -1.5 -6.50098s-0.833008 -3.16699 -1.5 -4.5c-2 -4.66699 -4.66699 -8.66699 -8 -12c-7.33301 -6 -15.666 -8.33301 -24.999 -7
c-8 0.666992 -14.667 4.33398 -20 11.001c-2.66699 4 -4.33398 8 -5.00098 12c-0.666992 2 -1 4.33301 -1 7c-0.666992 4.66699 -0.666992 13.667 0 27v64c0 4.66699 -0.166992 11.334 -0.5 20.001s-0.5 15.334 -0.5 20.001c0 7.33301 -1.83301 47 -5.5 119
s-5.5 126.333 -5.5 163c0 8 3 15 9 21s13 9 21 9s15 -3 21 -9s9 -13 9 -21c0 -36.667 1.33301 -82.667 4 -138z" />
    <glyph glyph-name="s" unicode="s" horiz-adv-x="300" 
d="M254 347c-17.333 28.667 -29.334 47.6621 -36.001 56.9951c-15.333 19.333 -28 30.333 -38 33c-17.333 4 -31 2.33301 -41 -5s-14.667 -19 -14 -35c0 -8 6 -21.333 18 -40c0.666992 -1.33301 16.667 -23.666 48 -66.999c15.333 -21.333 27.666 -39.5 36.999 -54.5
s19 -34 29 -57s16.333 -44.5 19 -64.5c2.66699 -24.667 -0.333008 -47.5 -9 -68.5s-22 -37.5 -40 -49.5c-19.333 -11.333 -40.333 -15.833 -63 -13.5s-45 11.5 -67 27.5c-13.333 10 -25.5 22.833 -36.5 38.5s-18.5 28.167 -22.5 37.5l-16 43
c-2.66699 7.33301 -2.33398 14.833 0.999023 22.5s8.83301 12.834 16.5 15.501s15.334 2.33398 23.001 -0.999023s12.834 -9 15.501 -17c9.33301 -24.667 17.666 -43.667 24.999 -57s17.333 -24.666 30 -33.999c24 -17.333 44.667 -20.666 62 -9.99902s24.333 30.667 21 60
c-4 35.333 -28.667 84 -74 146c-27.333 38.667 -43.666 62.334 -48.999 71.001c-18 27.333 -27.333 50.666 -28 69.999c-1.33301 36.667 11.334 65 38.001 85c25.333 18.667 55.666 23.667 90.999 15c24 -6 47.667 -24.333 71 -55
c8.66699 -10.667 22.334 -31.667 41.001 -63c4 -6.66699 5 -14 3 -22s-6.5 -14.167 -13.5 -18.5s-14.5 -5.5 -22.5 -3.5s-14.333 6.66699 -19 14z" />
    <glyph glyph-name="t" unicode="t" horiz-adv-x="331" 
d="M45 527c21.333 -3.33301 44.6699 -4.6748 70.0029 -4.00781c3.33301 82.667 5 131.334 5 146.001c0 8 3 15 9 21s13 9 21 9s15 -3 21 -9s9 -13 9 -21c0 -14.667 -1.66699 -62 -5 -142c0.666992 0 29.334 3.33301 86.001 10c8 0.666992 15.167 -1.5 21.5 -6.5
s10 -11.5 11 -19.5s-1 -15.167 -6 -21.5s-11.833 -10.166 -20.5 -11.499c-58.667 -6.66699 -90 -10 -94 -10c-2 -50.667 -3 -95 -3 -133c0 -85.333 1.66699 -147.666 5 -186.999c5.33301 -54 13.333 -87.667 24 -101c4.66699 -5.33301 8.66699 -8.66602 12 -9.99902
c2.66699 -0.666992 6.33398 0.333008 11.001 3c9.33301 4.66699 18 17.334 26 38.001c7.33301 20.667 12.666 48.334 15.999 83.001c6 54 6.33301 108.333 1 163c-0.666992 8.66699 1.66602 16 6.99902 22s12.166 9.33301 20.499 10s15.666 -1.66602 21.999 -6.99902
s9.83301 -11.666 10.5 -18.999c5.33301 -59.333 5 -117.666 -1 -174.999c-4 -38.667 -10.667 -71 -20 -97c-12.667 -35.333 -30.667 -59 -54 -71c-20 -10 -39 -12 -57 -6c-15.333 4.66699 -29.333 15 -42 31c-17.333 21.333 -29 65 -35 131c-4 42.667 -6 106.667 -6 192
c0 37.333 1 80.333 3 129c-28 -0.666992 -53.333 0.666016 -76 3.99902c-8.66699 1.33301 -15.334 5.33301 -20.001 12s-6.5 14 -5.5 22s4.83301 14.333 11.5 19s14 6.66699 22 6z" />
    <glyph glyph-name="u" unicode="u" horiz-adv-x="290" 
d="M99 468c0 -2.66699 -0.167969 -16.499 -0.500977 -41.499s-0.5 -46.5 -0.5 -64.5s0.666992 -41.333 2 -70s3 -54.667 5 -78c6 -56 15 -99.333 27 -130c11.333 -28.667 24 -43.334 38 -44.001c8.66699 -0.666992 17.667 11.666 27 36.999
c10.667 28.667 18.667 70.667 24 126c2.66699 23.333 4.66699 48.833 6 76.5s2.16602 50.667 2.49902 69s0.5 38.166 0.5 59.499v39c0 8 3 14.833 9 20.5s13.167 8.5 21.5 8.5s15.333 -3 21 -9s8.5 -13.333 8.5 -22v-39c0 -22 -0.166992 -42.5 -0.5 -61.5
s-1.16602 -42.5 -2.49902 -70.5s-3.33301 -53.667 -6 -77c-6 -59.333 -15.333 -106.333 -28 -141c-19.333 -52.667 -47.666 -78 -84.999 -76c-40 2 -70.333 29 -91 81c-14.667 36.667 -25 85.667 -31 147c-2.66699 24.667 -4.66699 51.834 -6 81.501s-2 53.834 -2 72.501
s0.166992 40.5 0.5 65.5s0.5 38.5 0.5 40.5c0 8 3 15 9 21s13 9 21 9s15 -3 21 -9s9 -13 9 -21z" />
    <glyph glyph-name="v" unicode="v" horiz-adv-x="328" 
d="M61 478c14 -30 26.335 -60.666 37.002 -91.999c10.667 -32.667 22.167 -70.5 34.5 -113.5s21.5 -73.167 27.5 -90.5l11 -38c1.33301 6.66699 2.66602 12 3.99902 16c31.333 127.333 68.333 229.333 111 306c4 6.66699 10 11.167 18 13.5s15.5 1.5 22.5 -2.5
s11.667 -10 14 -18s1.5 -15.667 -2.5 -23c-40 -71.333 -75 -168 -105 -290c-2.66699 -10 -8.33398 -37.667 -17.001 -83c-3.33301 -18.667 -6 -32 -8 -40c-1.33301 -6 -2.33301 -10.667 -3 -14c-0.666992 -2.66699 -1.33398 -5 -2.00098 -7l-4 -6
c-4 -6.66699 -9.66699 -11 -17 -13c-10 -2.66699 -19 -0.666992 -27 6c-2.66699 2 -4.66699 4.33301 -6 7c-1.33301 1.33301 -2.33301 2.66602 -3 3.99902c0 1.33301 -0.333008 2.33301 -1 3v1v2l-1 3l-3 11l-9 39c-10.667 41.333 -20.667 76.333 -30 105l-27 93
c-12 42 -23.167 78.333 -33.5 109s-21.833 59.334 -34.5 86.001c-3.33301 7.33301 -3.66602 15 -0.999023 23s7.66699 13.667 15 17s15 3.66602 23 0.999023s13.667 -7.66699 17 -15z" />
    <glyph glyph-name="w" unicode="w" horiz-adv-x="456" 
d="M223 234c-14 -39.333 -30.334 -92.9902 -49.001 -160.99l-7 -29c-3.33301 -11.333 -5 -17.333 -5 -18c-2 -7.33301 -3.66699 -12.833 -5 -16.5s-2.66602 -6.83398 -3.99902 -9.50098c-2.66699 -4 -5.66699 -7.33301 -9 -10
c-10.667 -7.33301 -21.667 -7.66602 -33 -0.999023c-4.66699 2.66699 -8.66699 6.66699 -12 12c-0.666992 1.33301 -1.33398 2.83301 -2.00098 4.5s-1.33398 3.83398 -2.00098 6.50098c-0.666992 3.33301 -1.33398 7.66602 -2.00098 12.999c-2 8 -4 19.333 -6 34l-10 66
c-20.667 137.333 -41.334 248.333 -62.001 333c-2 8 -0.833008 15.5 3.5 22.5s10.5 11.5 18.5 13.5s15.5 0.833008 22.5 -3.5s11.5 -10.5 13.5 -18.5c20.667 -83.333 40.667 -188.333 60 -315c17.333 71.333 32.333 113.666 45 126.999v6v5
c0.666992 8 2.33398 14.667 5.00098 20c4 7.33301 10 12.666 18 15.999c7.33301 3.33301 15.333 3.33301 24 0c10 -3.33301 19.667 -12.333 29 -27c6 -8.66699 12.333 -20.334 19 -35.001c10.667 -24 24 -56 40 -96l12 -31l3 28
c2.66699 19.333 4.33398 30.666 5.00098 33.999c15.333 77.333 41.666 165.666 78.999 264.999c2.66699 7.33301 7.83398 12.666 15.501 15.999s15.334 3.66602 23.001 0.999023s13.167 -7.83398 16.5 -15.501s3.66602 -15.5 0.999023 -23.5
c-36.667 -97.333 -62.334 -182.333 -77.001 -255c0 -1.33301 -1 -11 -3 -29l-7 -58c-3.33301 -24 -6.33301 -42.667 -9 -56c-1.33301 -8.66699 -2.66602 -15.334 -3.99902 -20.001c-0.666992 -4 -1.66699 -7.33301 -3 -10s-3 -5.33398 -5 -8.00098
c-6 -7.33301 -13.667 -11 -23 -11c-8.66699 0 -16 3 -22 9c-2 1.33301 -3.66699 3 -5 5c-0.666992 2 -1.66699 4 -3 6s-2.66602 5.33301 -3.99902 10c-2 4 -6 14.333 -12 31l-34 91c-13.333 34 -24.666 61.333 -33.999 82z" />
    <glyph glyph-name="x" unicode="x" horiz-adv-x="341" 
d="M192 174c-34.667 -68 -67.665 -125 -98.998 -171c-4.66699 -6.66699 -11.167 -10.834 -19.5 -12.501s-15.833 -0.166992 -22.5 4.5s-10.834 11.167 -12.501 19.5s-0.166992 15.833 4.5 22.5c35.333 50.667 74.333 120 117 208
c-30.667 65.333 -67.334 134.666 -110.001 207.999c-4 7.33301 -5 15 -3 23s6.66699 14 14 18s15 5 23 3s14 -6.66699 18 -14c34 -58.667 64.333 -115 91 -169c35.333 72.667 63.666 128 84.999 166c4 6.66699 10 11.167 18 13.5s15.5 1.5 22.5 -2.5s11.667 -10 14 -18
s1.5 -15.667 -2.5 -23c-19.333 -36 -53.666 -104.667 -102.999 -206c36 -79.333 64.667 -155 86 -227c2 -7.33301 1 -14.666 -3 -21.999s-9.83301 -12.166 -17.5 -14.499s-15.167 -1.5 -22.5 2.5s-12.333 10 -15 18c-16 55.333 -37 113 -63 173z" />
    <glyph glyph-name="y" unicode="y" horiz-adv-x="300" 
d="M98 463c-3.33301 -106.667 -3.33398 -184.335 -0.000976562 -233.002c4 -54 11.333 -95.333 22 -124c8.66699 -26 18 -39 28 -39c10.667 0 21 6.66699 31 20c10.667 15.333 19.667 38.333 27 69c7.33301 30 14.666 81 21.999 153c4.66699 48 7 82.667 7 104
c-0.666992 18 -1 33.333 -1 46c0 2.66699 0.333008 5.33398 1 8.00098c0 2 0.333008 4 1 6c1.33301 3.33301 3.66602 6.66602 6.99902 9.99902c8.66699 8.66699 18.667 11 30 7c7.33301 -2 13 -6.33301 17 -13c0.666992 -1.33301 1.33398 -3 2.00098 -5
c0.666992 -1.33301 1.33398 -3 2.00098 -5v-3v-1v-1v-12c0.666992 -13.333 1 -23.333 1 -30v-14l5 -96c2.66699 -49.333 4.33398 -89.666 5.00098 -120.999c3.33301 -128 -5 -216.667 -25 -266c-12 -28.667 -28.667 -52.834 -50 -72.501s-45.333 -32.834 -72 -39.501
c-27.333 -6.66699 -54.833 -5.33398 -82.5 3.99902s-52.5 26.333 -74.5 51c-6 6 -8.66699 13.167 -8 21.5s4 15.333 10 21s13.167 8.16699 21.5 7.5s15.166 -4 20.499 -10c30 -33.333 63 -45.666 99 -36.999c16.667 4 32.334 12.667 47.001 26c14 13.333 25 30 33 50
c12 30 19 76.333 21 139c-5.33301 -11.333 -11 -21.666 -17 -30.999c-21.333 -31.333 -48 -46.666 -80 -45.999c-38 0.666992 -66.333 27 -85 79c-12 34 -20.333 80.667 -25 140c-3.33301 50.667 -3.33301 130.334 0 239.001c0 8 3.16699 14.833 9.5 20.5s13.5 8.5 21.5 8.5
s14.833 -3.16699 20.5 -9.5s8.5 -13.5 8.5 -21.5z" />
    <glyph glyph-name="z" unicode="z" horiz-adv-x="365" 
d="M68 486c62.667 4 102.334 5.99902 119.001 5.99902c28.667 0.666992 52 0.666992 70 0c11.333 -1.33301 20.666 -2.66602 27.999 -3.99902c14 -3.33301 24 -9.33301 30 -18c4.66699 -7.33301 6.66699 -16 6 -26c-0.666992 -5.33301 -2 -11 -4 -17
c-2.66699 -9.33301 -7.66699 -21.333 -15 -36c-11.333 -23.333 -28 -53.666 -50 -90.999l-22 -37c27.333 1.33301 51.666 2.33301 72.999 3c8.66699 0 16 -2.83301 22 -8.5s9 -12.667 9 -21s-2.83301 -15.5 -8.5 -21.5s-12.5 -9 -20.5 -9
c-30.667 -0.666992 -68.667 -2.66699 -114 -6l-29 -45l-49 -78l-8 -13c24.667 3.33301 50.667 5.33301 78 6s59.166 0.5 95.499 -0.5s60.5 -1.5 72.5 -1.5c8 0 15 -3 21 -9s9 -13 9 -21s-3 -15 -9 -21s-13 -9 -21 -9c-13.333 0 -40.833 0.666992 -82.5 2
s-75.5 1.33301 -101.5 0s-51.333 -4.33301 -76 -9c-0.666992 -0.666992 -1.33398 -1.16699 -2.00098 -1.5s-2.16699 -1 -4.5 -2s-5.5 -2.16699 -9.5 -3.5c-21.333 -8 -38.333 -5 -51 9c-5.33301 6 -7.66602 13.333 -6.99902 22c0 2 0.333008 4 1 6l2 6
c0.666992 2 1.66699 4.33301 3 7c2.66699 3.33301 6 8.66602 10 15.999l29 48l50 79l4 7c-11.333 -0.666992 -21.666 -1.33398 -30.999 -2.00098c-8 -0.666992 -15.167 1.83301 -21.5 7.5s-9.83301 12.5 -10.5 20.5s1.83301 15.167 7.5 21.5s12.5 9.83301 20.5 10.5
c14 0.666992 39 2.33398 75 5.00098l45 73c20.667 36 36.334 65 47.001 87c2.66699 5.33301 5 10.333 7 15h-2c-16 0.666992 -37.667 0.666992 -65 0c-15.333 0 -54 -2 -116 -6c-8.66699 -0.666992 -16 1.83301 -22 7.5s-9.33301 12.667 -10 21s1.83301 15.5 7.5 21.5
s12.5 9.33301 20.5 10z" />
    <glyph glyph-name="braceleft" unicode="{" horiz-adv-x="328" 
d="M297 689c-44 2.66699 -80.501 -8.66602 -109.501 -33.999s-40.5 -58 -34.5 -98c0.666992 -4.66699 1.66699 -9.66699 3 -15l5 -18c2 -7.33301 4 -13.666 6 -18.999c7.33301 -28.667 8.33301 -52.667 3 -72c-6 -24 -23.667 -51.333 -53 -82
c33.333 -17.333 50.666 -47.333 51.999 -90c0.666992 -14 -1.33301 -32 -6 -54c-4.66699 -20.667 -7 -34.667 -7 -42c-2.66699 -55.333 5.66602 -94 24.999 -116c20 -22.667 55 -32.334 105 -29.001c8 0.666992 15.167 -1.83301 21.5 -7.5s9.83301 -12.5 10.5 -20.5
s-1.83301 -15.167 -7.5 -21.5s-12.5 -9.83301 -20.5 -10.5c-70 -4.66699 -121.333 12 -154 50c-30 34 -43.333 86.333 -40 157c0.666992 10 3.33398 27.333 8.00098 52c3.33301 17.333 5 30.666 5 39.999c-0.666992 19.333 -7.33398 32.333 -20.001 39l-10 5
c-7.33301 2.66699 -11.666 4.33398 -12.999 5.00098c-18 8 -27.667 20.333 -29 37s7 30.334 25 41.001c5.33301 3.33301 8.66602 5.33301 9.99902 6h1c22.667 23.333 35.667 41.666 39 54.999c2.66699 10 1.33398 24.333 -3.99902 43c-9.33301 37.333 -14.333 57 -15 59
c-4.66699 32 -1.66699 61.333 9 88s26.334 48.167 47.001 64.5s44.334 28.666 71.001 36.999s53.667 11.833 81 10.5c8 -0.666992 14.833 -4 20.5 -10s8.16699 -13.167 7.5 -21.5s-4 -15.333 -10 -21s-13.333 -8.16699 -22 -7.5z" />
    <glyph glyph-name="bar" unicode="|" horiz-adv-x="702" 
d="M376 311c27.333 65.333 55.001 118.67 83.001 160.003c28 40 55.667 65.667 83 77c40.667 16.667 77 5.33398 109 -33.999c10 -14 14 -33 12 -57c-2 -18 -7 -39.333 -15 -64c-14.667 -43.333 -37.334 -94 -68.001 -152c-29.333 -54.667 -58 -101.334 -86 -140.001
c-14.667 -20 -28 -36 -40 -48c-16 -16.667 -31 -25.334 -45 -26.001c-15.333 -0.666992 -31.666 3.66602 -48.999 12.999c-4.66699 2 -10.667 5.33301 -18 10c-7.33301 5.33301 -11.666 8.33301 -12.999 9c-18.667 11.333 -46.334 33 -83.001 65
c-35.333 32 -68.333 65.333 -99 100c-38 44 -63.667 82.333 -77 115c-20.667 50 -14 87.333 20 112c25.333 18.667 58.666 19 99.999 1c28 -12.667 60.667 -33.334 98 -62.001c28.667 -22.667 58 -49 88 -79z" />
    <glyph glyph-name="braceright" unicode="}" horiz-adv-x="331" 
d="M56 27c43.333 -4 79.9941 6.33398 109.994 31.001s42.667 56.667 38 96c-0.666992 4.66699 -1.5 9.66699 -2.5 15s-2.5 11.666 -4.5 18.999c-2 6.66699 -3.66699 13.334 -5 20.001c-6.66699 28.667 -7.33398 52.667 -2.00098 72c6.66699 23.333 25 50 55 80
c-33.333 17.333 -50 48 -50 92c0 13.333 2.66699 31.333 8 54c4.66699 20 7.33398 33.667 8.00098 41c3.33301 55.333 -4 94.333 -22 117c-19.333 24 -53.666 34.333 -102.999 31c-8 -0.666992 -15.167 1.83301 -21.5 7.5s-9.83301 12.5 -10.5 20.5s1.83301 15.167 7.5 21.5
s12.5 9.83301 20.5 10.5c70.667 4.66699 122 -13 154 -53c28 -35.333 39.667 -88.333 35 -159c-0.666992 -11.333 -4 -28.666 -10 -51.999c-4 -17.333 -6 -30.333 -6 -39c0 -20 6 -33 18 -39c2.66699 -1.33301 6 -2.66602 10 -3.99902c6.66699 -2.66699 11 -4.66699 13 -6
c18.667 -8.66699 28.334 -21.667 29.001 -39c0.666992 -16.667 -7.66602 -30 -24.999 -40c-6 -3.33301 -9.66699 -5 -11 -5c-23.333 -23.333 -37 -41.666 -41 -54.999c-2.66699 -10 -2 -24.333 2 -43c8.66699 -37.333 13.334 -57 14.001 -59
c3.33301 -32 -0.666992 -61.333 -12 -88s-27.666 -47.834 -48.999 -63.501s-45.333 -27.5 -72 -35.5s-53.667 -10.667 -81 -8c-8 0.666992 -14.667 4.16699 -20 10.5s-7.66602 13.666 -6.99902 21.999s4.16699 15.166 10.5 20.499s13.833 7.66602 22.5 6.99902z" />
    <glyph glyph-name="asciitilde" unicode="~" horiz-adv-x="384" 
d="M41 576c34 26 65.332 39.334 93.999 40.001c22.667 0 45.667 -8.33301 69 -25l17 -13l14 -10c3.33301 -2.66699 7 -5.33398 11 -8.00098s7.5 -4.33398 10.5 -5.00098s6.33301 -1 10 -1s7.5 0.666992 11.5 2c3.33301 0.666992 12.333 6.33398 27 17.001l33 26
c6 4.66699 13.167 6.5 21.5 5.5s15 -4.66699 20 -11s7 -13.666 6 -21.999s-4.83301 -15.166 -11.5 -20.499l-34 -26c-19.333 -14.667 -34 -23.667 -44 -27c-8.66699 -2.66699 -17.167 -4.16699 -25.5 -4.5s-16.166 0.5 -23.499 2.5s-14.166 4.33301 -20.499 7
s-12.5 6 -18.5 10l-15 11c-4.66699 2.66699 -9.33398 6 -14.001 10s-8 6.66699 -10 8c-12.667 9.33301 -23.667 14 -33 14c-15.333 0 -34.333 -9.33301 -57 -28c-6.66699 -4.66699 -14.167 -6.5 -22.5 -5.5s-15 4.66699 -20 11s-7 13.666 -6 21.999s4.5 15.166 10.5 20.499z
" />
    <glyph glyph-name="exclamdown" unicode="&#xa1;" horiz-adv-x="100" 
d="M49 21c-4.66699 21.333 -8.50098 42.835 -11.501 64.502s-5.33301 45 -7 70s-3.16699 46.5 -4.5 64.5s-1.83301 41.5 -1.5 70.5s0.5 50.333 0.5 64s0.833008 37.167 2.5 70.5s2.66699 54.666 3 63.999s1.66602 32.333 3.99902 69s3.5 58 3.5 64
c0.666992 8.66699 4.16699 16.167 10.5 22.5s13.5 9.16602 21.5 8.49902s14.833 -4.5 20.5 -11.5s8.16699 -14.833 7.5 -23.5c-0.666992 -7.33301 -1.83398 -26.833 -3.50098 -58.5s-2.83398 -52.167 -3.50098 -61.5s-1.66699 -28.333 -3 -57s-2.16602 -49 -2.49902 -61
s-0.666016 -31 -0.999023 -57s-0.166016 -46.167 0.500977 -60.5s1.33398 -33 2.00098 -56s2 -43.167 4 -60.5l7 -55c2.66699 -20 5.66699 -39 9 -57c2 -8.66699 0.666992 -17 -4 -25s-11 -12.833 -19 -14.5s-15.5 0 -22.5 5s-11.167 12.167 -12.5 21.5zM99.999 700.002
c0 -8 -3 -15 -9 -21s-13 -9 -21 -9s-15 3 -21 9s-9 13 -9 21s3 15 9 21s13 9 21 9s15 -3 21 -9s9 -13 9 -21z" />
    <glyph glyph-name="cent" unicode="&#xa2;" horiz-adv-x="331" 
d="M131 111c2.66699 154.667 4.33203 237.668 4.99902 249.001c-3.33301 -6.66699 -6.66602 -14 -9.99902 -22c-16 -40.667 -23.5 -81.834 -22.5 -123.501s9.16699 -75.167 24.5 -100.5zM195.998 467.001c6.66699 -0.666992 13.3379 -2.33496 20.0049 -5.00195
c24.667 -10 44.167 -29.5 58.5 -58.5s22.166 -62.5 23.499 -100.5c0 -8.66699 -2.83301 -16 -8.5 -22s-12.667 -9 -21 -9s-15.5 2.83301 -21.5 8.5s-9 12.5 -9 20.5c-0.666992 28.667 -5.33398 52 -14.001 70s-18 29.333 -28 34c0 -12.667 -2 -117.667 -6 -315
c25.333 8.66699 53.666 31.667 84.999 69c5.33301 6.66699 12.166 10.334 20.499 11.001s15.666 -1.66602 21.999 -6.99902s9.83301 -12.166 10.5 -20.499s-1.66602 -15.5 -6.99902 -21.5c-45.333 -54.667 -89.333 -85.667 -132 -93v-70c0 -8 -3 -15 -9 -21s-13 -9 -21 -9
s-15 3 -21 9s-9 13 -9 21c0 24 0.333008 49.667 1 77c-20.667 9.33301 -38 25 -52 47c-22 34.667 -33.667 78.167 -35 130.5s7.66699 102.166 27 149.499c18 41.333 40 71 66 89c-0.666992 32 -1.33398 62.333 -2.00098 91c0 8 2.83301 15.167 8.5 21.5s12.5 9.5 20.5 9.5
s15.167 -2.83301 21.5 -8.5s9.5 -12.5 9.5 -20.5z" />
    <glyph glyph-name="sterling" unicode="&#xa3;" horiz-adv-x="456" 
d="M32 373c29.333 6.66699 57.3389 8.33398 84.0059 5.00098c1.33301 18.667 2.33301 34.667 3 48c10 112 28 186.333 54 223c16.667 24.667 37 43 61 55c24 11.333 48.333 15 73 11c26 -4 47.833 -15.667 65.5 -35s29.167 -44.333 34.5 -75
c1.33301 -8 -0.5 -15.5 -5.5 -22.5s-11.5 -11.167 -19.5 -12.5s-15.5 0.5 -22.5 5.5s-11.167 11.5 -12.5 19.5c-6 36.667 -22.333 57 -49 61c-12 2 -24.833 -0.333008 -38.5 -7s-26.5 -18 -38.5 -34c-19.333 -28 -33.333 -92.667 -42 -194
c-1.33301 -13.333 -2.66602 -32.666 -3.99902 -57.999l20 -7c14 -4.66699 25.5 -8 34.5 -10s21 -1.83301 36 0.5s31.5 7.83301 49.5 16.5c7.33301 3.33301 15 3.66602 23 0.999023s13.667 -7.66699 17 -15s3.66602 -15 0.999023 -23s-7.66699 -13.667 -15 -17
c-23.333 -11.333 -45.666 -18.5 -66.999 -21.5s-38.833 -3.33301 -52.5 -1s-29.167 6.5 -46.5 12.5l-5 2c-4 -52 -9.33301 -91 -16 -117c-0.666992 -2 -3 -12 -7 -30s-7.33301 -32 -10 -42c20 4.66699 38.333 5.66699 55 3c23.333 -4 49 -12.667 77 -26
c33.333 -16 51 -24.333 53 -25c14 -4.66699 26.333 -5.33398 37 -2.00098c15.333 5.33301 32.666 18.666 51.999 39.999c5.33301 6 12.166 9.33301 20.499 10s15.5 -1.83301 21.5 -7.5s9.33301 -12.667 10 -21s-2 -15.5 -8 -21.5c-26 -30 -52 -49 -78 -57
c-23.333 -7.33301 -48 -6.33301 -74 3c-6 2 -26 11 -60 27c-22.667 10.667 -43 17.334 -61 20.001c-20 3.33301 -39.667 -0.333984 -59 -11.001l-1 -1c-0.666992 -1.33301 -1.66699 -3.16602 -3 -5.49902s-2.33301 -3.83301 -3 -4.5
c-4.66699 -7.33301 -9.33398 -13 -14.001 -17c-6.66699 -4 -13.667 -6 -21 -6c-8.66699 -0.666992 -16.334 2 -23.001 8c-12 10 -16 22.667 -12 38c1.33301 6 4.66602 12.667 9.99902 20c1.33301 2 2.66602 3.83301 3.99902 5.5s2.33301 2.83398 3 3.50098l2 2l1 1v1
c3.33301 7.33301 6.5 15.833 9.5 25.5s5.16699 18.167 6.5 25.5l8 29l6 29c6 24.667 11 64.667 15 120c-20 3.33301 -41.667 2.33301 -65 -3c-8 -2 -15.667 -0.833008 -23 3.5s-11.833 10.5 -13.5 18.5s-0.333984 15.667 3.99902 23s10.5 11.666 18.5 12.999z" />
    <glyph glyph-name="currency" unicode="&#xa4;" horiz-adv-x="472" 
d="M125 504c29.333 26 63.3359 38.665 102.003 37.998c6 4.66699 12.667 6.66699 20 6c42 -2.66699 78 -14.667 108 -36c14.667 18 32.667 38.667 54 62c5.33301 6 12.166 9.33301 20.499 10s15.5 -1.83301 21.5 -7.5s9.33301 -12.667 10 -21s-2 -15.5 -8 -21.5l-56 -65
c27.333 -40 38 -85.667 32 -137c-4.66699 -36.667 -17.334 -69.667 -38.001 -99l69 -67c6 -6 9 -13.167 9 -21.5s-2.83301 -15.5 -8.5 -21.5s-12.667 -9 -21 -9s-15.5 2.66699 -21.5 8l-69 67c-40 -30.667 -88 -42.667 -144 -36c-25.333 3.33301 -48 10.666 -68 21.999
l-12 -10c-4 -3.33301 -6.66699 -5.5 -8 -6.5s-3 -2.33301 -5 -4s-3.66699 -3.16699 -5 -4.5l-5 -5c-2 -2 -5.33301 -5.16699 -10 -9.5s-9.33398 -9.16602 -14.001 -14.499c-6 -5.33301 -13.167 -8 -21.5 -8s-15.333 3 -21 9s-8.5 13.167 -8.5 21.5s3 15.5 9 21.5
c24 22.667 42.667 39.667 56 51c-32 42.667 -43.333 94.334 -34 155.001c4 30.667 13.667 59.334 29 86.001l-61 62c-5.33301 6 -8 13.167 -8 21.5s3 15.333 9 21s13.167 8.5 21.5 8.5s15.5 -3 21.5 -9zM243.003 479.998c-32 5.33301 -59.667 -3.33203 -83 -25.999
s-37.833 -53.334 -43.5 -92.001s-0.166992 -72.167 16.5 -100.5s43.334 -44.5 80.001 -48.5c43.333 -5.33301 79 4.5 107 29.5s44.333 57.167 49 96.5c4.66699 35.333 -1.83301 66.833 -19.5 94.5s-45.834 44.834 -84.501 51.501
c-6.66699 -4.66699 -14 -6.33398 -22 -5.00098z" />
    <glyph glyph-name="yen" unicode="&#xa5;" horiz-adv-x="531" 
d="M322 459c-42 -7.33301 -83.332 -16.334 -123.999 -27.001c11.333 -31.333 22.666 -59.666 33.999 -84.999l13 -37l8 2c10.667 20.667 18 36 22 46c15.333 35.333 31 69 47 101zM98.001 705.999c17.333 -40 39.6621 -100.668 66.9951 -182.001l13 -35
c58.667 14.667 118 26.667 178 36c33.333 64 69 124 107 180c4.66699 6.66699 11.167 10.834 19.5 12.501s15.833 0.166992 22.5 -4.5s10.834 -11.167 12.501 -19.5s0.166992 -15.833 -4.5 -22.5c-29.333 -42.667 -57 -87.667 -83 -135c15.333 2 30.666 3.66699 45.999 5
c8 0.666992 15.333 -1.66602 22 -6.99902s10.334 -12 11.001 -20s-1.66602 -15.333 -6.99902 -22s-12 -10.334 -20 -11.001c-29.333 -2.66699 -58.333 -6 -87 -10c-22 -43.333 -43.333 -89 -64 -137l-5 -11c20.667 3.33301 74 10.666 160 21.999
c8 0.666992 15.333 -1.5 22 -6.5s10.5 -11.5 11.5 -19.5s-1 -15.333 -6 -22s-11.5 -10.667 -19.5 -12c-101.333 -12.667 -168.333 -21.667 -201 -27c-6.66699 -13.333 -12.334 -24 -17.001 -32l-9 -14c-1.33301 -54 -4.66602 -119 -9.99902 -195
c-0.666992 -8 -4.16699 -14.833 -10.5 -20.5s-13.5 -8.16699 -21.5 -7.5s-14.833 4.16699 -20.5 10.5s-8.16699 13.5 -7.5 21.5c5.33301 79.333 9 146.666 11 201.999l-2 7l-3 10c-48 -10 -91.667 -22 -131 -36c-8 -2.66699 -15.667 -2.33398 -23 0.999023s-12.333 9 -15 17
s-2.33398 15.667 0.999023 23s9 12.333 17 15c40.667 14.667 85.334 27.334 134.001 38.001c-4 10.667 -7.33301 19 -10 25c-11.333 26.667 -23.666 58 -36.999 94c-28 -8 -56.333 -16.667 -85 -26c-7.33301 -2.66699 -14.833 -2.16699 -22.5 1.5
s-12.667 9.33398 -15 17.001s-1.66602 15.334 2.00098 23.001s9.5 12.5 17.5 14.5c27.333 9.33301 55 18 83 26l-10 32c-27.333 79.333 -49.666 138.333 -66.999 177c-2.66699 7.33301 -2.5 15 0.5 23s8.16699 13.5 15.5 16.5s15 3 23 0s13.667 -8.16699 17 -15.5z" />
    <glyph glyph-name="brokenbar" unicode="&#xa6;" horiz-adv-x="128" 
d="M106 699c6 -79.333 3.33301 -182.335 -8 -309.002c-0.666992 -8 -4.16699 -14.667 -10.5 -20s-13.666 -7.66602 -21.999 -6.99902s-15.166 4.16699 -20.499 10.5s-7.66602 13.833 -6.99902 22.5c11.333 119.333 14 219 8 299c-0.666992 8 1.66602 15.167 6.99902 21.5
s12.166 9.83301 20.499 10.5s15.666 -1.66602 21.999 -6.99902s9.83301 -12.333 10.5 -21zM102 205.998c15.333 -107.333 15.333 -219.999 0 -337.999c-1.33301 -8 -5.33301 -14.5 -12 -19.5s-14 -7 -22 -6s-14.5 4.83301 -19.5 11.5s-7.16699 14 -6.5 22
c15.333 112 15.333 219.333 0 322c-0.666992 8 1.33301 15.333 6 22s11.167 10.5 19.5 11.5s15.833 -0.833008 22.5 -5.5s10.667 -11.334 12 -20.001z" />
    <glyph glyph-name="section" unicode="&#xa7;" horiz-adv-x="328" 
d="M255 548c7.33301 39.333 6.00195 67.999 -3.99805 85.999c-6 10.667 -15 16.334 -27 17.001c-15.333 0 -31 -6.16699 -47 -18.5s-26.333 -27.833 -31 -46.5c-4 -14 -5.5 -25 -4.5 -33s5.16699 -17.333 12.5 -28c4 -6 24 -29 60 -69c38 -42 66.333 -76.333 85 -103
c31.333 -44.667 44.666 -81 39.999 -109c-5.33301 -30.667 -27 -50.334 -65 -59.001c38.667 -44 56.334 -86 53.001 -126c-2.66699 -37.333 -19.334 -62.333 -50.001 -75c-22.667 -9.33301 -50 -9 -82 1c-27.333 8 -53.833 21.333 -79.5 40s-44.834 38.667 -57.501 60
c-4 6.66699 -5 14 -3 22s6.5 14.167 13.5 18.5s14.5 5.5 22.5 3.5s14.333 -6.66699 19 -14c8 -14 21.833 -28 41.5 -42s39.834 -24.333 60.501 -31c18.667 -5.33301 33 -6 43 -2c7.33301 2.66699 11.333 10.334 12 23.001c1.33301 19.333 -5.5 39.333 -20.5 60
s-38.167 45 -69.5 73c-48 42.667 -74.667 67 -80 73c-29.333 30 -47 58 -53 84c-6.66699 26.667 -6 50.834 2 72.501s21.667 37.834 41 48.501c7.33301 4 15 7 23 9l-6 8c-12.667 19.333 -20 37.666 -22 54.999s0 36 6 56c8 30.667 25.5 56.5 52.5 77.5
s55.167 31.5 84.5 31.5c35.333 -0.666992 61.666 -16.667 78.999 -48c16.667 -30.667 20.334 -72.334 11.001 -125.001c-2 -8.66699 -6.33301 -15.334 -13 -20.001s-14.167 -6.16699 -22.5 -4.5s-14.833 5.83398 -19.5 12.501s-6.33398 14 -5.00098 22zM174.002 407.999
c-21.333 18 -40.667 22.332 -58 12.999c-16 -8.66699 -20.667 -26.667 -14 -54c4 -15.333 17 -34 39 -56c6.66699 -7.33301 32 -30.666 76 -69.999l2 -2c3.33301 1.33301 6.66602 2 9.99902 2c33.333 0 50.333 4.33301 51 13c2 12 -8 33.667 -30 65
c-15.333 22 -38.666 50.333 -69.999 85z" />
    <glyph glyph-name="dieresis" unicode="&#xa8;" horiz-adv-x="200" 
d="M73 658c0 -8 -3 -15 -9 -21s-13 -9 -21 -9s-15 3 -21 9s-9 13 -9 21s3 15 9 21s13 9 21 9s15 -3 21 -9s9 -13 9 -21zM203 652c0 -8 -3 -15 -9 -21s-13 -9 -21 -9s-15 3 -21 9s-9 13 -9 21s3 15 9 21s13 9 21 9s15 -3 21 -9s9 -13 9 -21z" />
    <glyph glyph-name="copyright" unicode="&#xa9;" 
d="M221 637c-24 -4.66699 -47.001 -27.3301 -69.001 -67.9971c-27.333 -50.667 -46 -113.334 -56 -188.001c-10 -76.667 -8 -145.334 6 -206.001c14 -61.333 38.333 -100.333 73 -117c38.667 -18.667 73.334 -12.334 104.001 18.999c28 28.667 48.333 68.667 61 120
c6.66699 28 10 62.667 10 104s-3.66699 84.333 -11 129c-18.667 99.333 -50.667 164.333 -96 195c-6 4 -13.333 8 -22 12zM254.999 687.004c8.66699 -4 15.998 -8.00195 21.998 -12.002c58.667 -40 99 -118 121 -234c8 -47.333 12 -94 12 -140s-4 -85.333 -12 -118
c-15.333 -62 -40.666 -111.333 -75.999 -148c-50.667 -52 -108.334 -62.333 -173.001 -31c-52 25.333 -87 78 -105 158c-16 66 -18.333 141.667 -7 227c10.667 83.333 31.334 153 62.001 209c20.667 36.667 43.667 63.667 69 81c0 4.66699 1 9.33398 3 14.001
c3.33301 7.33301 9 12.333 17 15s15.667 2.33398 23 -0.999023c2.66699 -1.33301 9.33398 -4.33301 20.001 -9h2c8.66699 0 16 -3.66699 22 -11zM257.997 393.002c-1.33301 16 -4.83789 27.499 -10.5049 34.499s-11.167 10.833 -16.5 11.5c-6 1.33301 -13.167 -1 -21.5 -7
s-16.166 -16.667 -23.499 -32c-8 -17.333 -12.167 -41.166 -12.5 -71.499s3.5 -57.5 11.5 -81.5c8 -20.667 17 -32.667 27 -36c12.667 -3.33301 31 5.66699 55 27c6 6 13.167 8.66699 21.5 8s15.333 -4 21 -10s8.16699 -13.167 7.5 -21.5s-4 -15.166 -10 -20.499
c-40 -36.667 -77 -50.334 -111 -41.001c-30 8.66699 -52.333 33 -67 73c-11.333 30.667 -16.666 65.334 -15.999 104.001s7 70.667 19 96c11.333 24.667 26.666 43.667 45.999 57s39.666 18.666 60.999 15.999c22.667 -3.33301 40.834 -14.166 54.501 -32.499
s21.834 -40.833 24.501 -67.5c0.666992 -8.66699 -1.66602 -16.167 -6.99902 -22.5s-12.166 -9.83301 -20.499 -10.5s-15.666 1.66602 -21.999 6.99902s-9.83301 12 -10.5 20z" />
    <glyph glyph-name="ordfeminine" unicode="&#xaa;" horiz-adv-x="300" 
d="M196 487c2.66699 15.333 7.99902 38.666 15.999 69.999c-32 -4 -59.167 -13.833 -81.5 -29.5s-37.5 -32 -45.5 -49s-11.667 -33.167 -11 -48.5c0.666992 -10 2.66699 -17 6 -21c2.66699 -3.33301 6.33398 -4.66602 11.001 -3.99902c26.667 0.666992 61.667 28 105 82z
M56.999 663c39.333 33.333 79.665 52.333 120.998 57c28 2.66699 50.667 -0.333008 68 -9c19.333 -9.33301 32 -24.666 38 -45.999c6 -22.667 2.33301 -60 -11 -112c-14 -54.667 -21 -90 -21 -106c-1.33301 -26.667 6.33398 -44 23.001 -52c8 -4 13.167 -9.83301 15.5 -17.5
s1.66602 -15.334 -2.00098 -23.001s-9.33398 -12.667 -17.001 -15s-15.167 -1.83301 -22.5 1.5c-26 12.667 -43 32.334 -51 59.001c-38 -35.333 -72.667 -53.666 -104 -54.999c-24.667 -1.33301 -44.334 6.66699 -59.001 24c-12.667 15.333 -19.667 34.666 -21 57.999
c-1.33301 20 2.33398 40.667 11.001 62s21.334 41.5 38.001 60.5s39.167 34.833 67.5 47.5s59.833 19.667 94.5 21c2 14 2.33301 24.333 1 31c-1.33301 4 -3.33301 7 -6 9c-7.33301 3.33301 -19.333 4 -36 2c-28.667 -2.66699 -57.667 -17 -87 -43
c-6.66699 -5.33301 -14.167 -7.66602 -22.5 -6.99902s-15.166 4.16699 -20.499 10.5s-7.66602 13.666 -6.99902 21.999s4 15.166 10 20.499z" />
    <glyph glyph-name="guillemotleft" unicode="&#xab;" horiz-adv-x="409" 
d="M250 414l-86.001 -82.001l-50 -51l-15 -18l-1 -2l9 -15c10 -15.333 29 -34.666 57 -57.999c39.333 -32.667 63.333 -54 72 -64c6 -6 8.66699 -13.167 8 -21.5s-4 -15.333 -10 -21s-13.167 -8.16699 -21.5 -7.5s-15.166 4 -20.499 10c-8 8.66699 -30 28 -66 58
c-32.667 26.667 -55.667 50.667 -69 72c-15.333 23.333 -21.666 43 -18.999 59c1.33301 7.33301 5.66602 16 12.999 26c4 5.33301 10.333 12.666 19 21.999c14 15.333 31.333 33.333 52 54l88 83c6 6 13.167 8.66699 21.5 8s15.333 -4 21 -10s8.16699 -13.167 7.5 -21.5
s-4 -15.166 -10 -20.499zM397.999 427.999c-8 -11.333 -36.0029 -43.6689 -84.0029 -97.002l-48 -53l-11 -12c2 -3.33301 4.66699 -7 8 -11c8.66699 -11.333 22 -25.333 40 -42c10 -9.33301 21 -19 33 -29l32 -26l19 -14c6 -5.33301 9.33301 -12.166 10 -20.499
s-1.66602 -15.666 -6.99902 -21.999s-12.166 -9.83301 -20.499 -10.5s-15.833 1.66602 -22.5 6.99902c-2 2 -8 7 -18 15l-33 27c-12 10 -23 19.667 -33 29c-20.667 18.667 -36.667 35.334 -48 50.001c-18 22.667 -25 43 -21 61l4 10c0.666992 0.666992 1.16699 1.5 1.5 2.5
s0.833008 1.83301 1.5 2.5l5 6l16 17l47 53c46.667 51.333 73 81.666 79 90.999c4.66699 6.66699 11.167 10.834 19.5 12.501s15.833 0.166992 22.5 -4.5s10.834 -11.167 12.501 -19.5s0.166992 -15.833 -4.5 -22.5z" />
    <glyph glyph-name="logicalnot" unicode="&#xac;" horiz-adv-x="362" 
d="M53 360c60 3.33301 128.663 12.333 205.996 27l3 1c0.666992 0.666992 2.33398 1.33398 5.00098 2.00098l8 4c19.333 7.33301 35.333 6 48 -4c6.66699 -4.66699 12 -11.667 16 -21c2.66699 -6 5 -13.333 7 -22c3.33301 -13.333 6.66602 -30 9.99902 -50
c4.66699 -29.333 8 -57.666 10 -84.999c0.666992 -8 -1.66602 -15.167 -6.99902 -21.5s-12.166 -9.83301 -20.499 -10.5s-15.666 1.66602 -21.999 6.99902s-9.83301 12.333 -10.5 21c-2 25.333 -5 52 -9 80c-2.66699 18 -5.66699 32.333 -9 43l-1 3
c-6.66699 -2.66699 -12 -4.33398 -16 -5.00098c-80 -16 -152 -25.667 -216 -29c-8 -0.666992 -15 1.83301 -21 7.5s-9.33301 12.667 -10 21s1.83301 15.5 7.5 21.5s12.834 9.33301 21.501 10z" />
    <glyph glyph-name="registered" unicode="&#xae;" 
d="M221 637c-24 -4.66699 -47.001 -27.3301 -69.001 -67.9971c-27.333 -50.667 -46 -113.334 -56 -188.001c-10 -76.667 -8 -145.334 6 -206.001c14 -61.333 38.333 -100.333 73 -117c38.667 -18.667 73.334 -12.334 104.001 18.999c28 28.667 48.333 68.667 61 120
c6.66699 28 10 62.667 10 104s-3.66699 84.333 -11 129c-18.667 99.333 -50.667 164.333 -96 195c-6 4 -13.333 8 -22 12zM254.999 687.004c8.66699 -4 15.998 -8.00195 21.998 -12.002c58.667 -40 99 -118 121 -234c8 -47.333 12 -94 12 -140s-4 -85.333 -12 -118
c-15.333 -62 -40.666 -111.333 -75.999 -148c-50.667 -52 -108.334 -62.333 -173.001 -31c-52 25.333 -87 78 -105 158c-16 66 -18.333 141.667 -7 227c10.667 83.333 31.334 153 62.001 209c20.667 36.667 43.667 63.667 69 81c0 4.66699 1 9.33398 3 14.001
c3.33301 7.33301 9 12.333 17 15s15.667 2.33398 23 -0.999023c2.66699 -1.33301 9.33398 -4.33301 20.001 -9h2c8.66699 0 16 -3.66699 22 -11zM201.997 341.002c22 10 38.667 20.665 50 31.998c10.667 10.667 13.334 21.334 8.00098 32.001
c-2.66699 6 -5.66699 9.33301 -9 10c-4 1.33301 -10 1 -18 -1c-10.667 -3.33301 -23.334 -9.66602 -38.001 -18.999c-3.33301 -16.667 -5.33301 -34.667 -6 -54h4c6 0.666992 9 0.666992 9 0zM141.997 431c28.667 21.333 53.332 34.999 73.999 40.999
c19.333 5.33301 37 5.66602 53 0.999023c20 -6.66699 35 -20.667 45 -42c17.333 -36 11 -69.333 -19 -100c-17.333 -17.333 -41 -32.666 -71 -45.999c-1.33301 0 -2.33301 -0.333008 -3 -1c5.33301 -8.66699 12.666 -18.334 21.999 -29.001
c18 -20.667 37.333 -40.334 58 -59.001c6 -5.33301 9.33301 -12.166 10 -20.499s-1.83301 -15.5 -7.5 -21.5s-12.667 -9.33301 -21 -10s-15.5 2 -21.5 8c-22.667 20 -43.667 41.333 -63 64l-8 9c1.33301 -32.667 2.33301 -54.667 3 -66c0 -8 -2.83301 -15.167 -8.5 -21.5
s-12.5 -9.5 -20.5 -9.5s-15.167 2.83301 -21.5 8.5s-9.5 12.5 -9.5 20.5c-0.666992 10.667 -1.5 28.834 -2.5 54.501s-1.83301 46.167 -2.5 61.5s-0.666992 34.333 0 57s2.33398 43.334 5.00098 62.001c-4 6 -5.16699 13 -3.5 21s5.83398 14 12.501 18z" />
    <glyph glyph-name="macron" unicode="&#xaf;" horiz-adv-x="428" 
d="M73 702c25.333 0 52.499 0.833008 81.499 2.5s53.667 3.5 74 5.5l81.5 8l77 9c8 0.666992 15.333 -1.66602 22 -6.99902s10.334 -12 11.001 -20s-1.66602 -15.333 -6.99902 -22s-12 -10.334 -20 -11.001c-18.667 -1.33301 -44.667 -4 -78 -8
c-35.333 -4 -63.333 -7 -84 -9s-45.834 -3.83301 -75.501 -5.5s-57.167 -2.5 -82.5 -2.5c-8 0 -15 3 -21 9s-9 13 -9 21s3 15 9 21s13 9 21 9z" />
    <glyph glyph-name="degree" unicode="&#xb0;" horiz-adv-x="284" 
d="M181 657h-2.99902l-5 1c-14 -5.33301 -28.167 -18.5 -42.5 -39.5s-24.833 -45.167 -31.5 -72.5c-6.66699 -28.667 -7.5 -51.5 -2.5 -68.5s14.5 -28.167 28.5 -33.5c22 -8 41.333 -5.33301 58 8c17.333 13.333 29.666 34.333 36.999 63c7.33301 29.333 7.5 57.333 0.5 84
s-20.167 46 -39.5 58zM228.001 697c18.667 -14.667 32.8311 -33.833 42.498 -57.5s14.5 -47 14.5 -70s-2.33301 -46.167 -7 -69.5c-10.667 -42 -30 -74 -58 -96c-34 -26 -72.333 -31.333 -115 -16c-18 6.66699 -32.667 16.5 -44 29.5s-18.833 27.833 -22.5 44.5
s-5.16699 33.334 -4.5 50.001c0.666992 16 3 32.333 7 49c8 34 22 65.667 42 95s43.333 48.666 70 57.999c9.33301 3.33301 20 4.33301 32 3c0.666992 0 4.33398 -0.333008 11.001 -1c2.66699 -0.666992 4.66699 -1 6 -1c12.667 -0.666992 21.334 -6.66699 26.001 -18z" />
    <glyph glyph-name="plusminus" unicode="&#xb1;" horiz-adv-x="499" 
d="M224 521c-1.33301 -34.667 -0.333008 -67 3 -97l94 24c8 2 15.667 1 23 -3s12 -10 14 -18s1 -15.667 -3 -23s-10 -12 -18 -14l-99 -25c8.66699 -35.333 22 -70 40 -104c4 -7.33301 4.83301 -15 2.5 -23s-7.16602 -13.833 -14.499 -17.5s-15 -4.33398 -23 -2.00098
s-13.667 7.16602 -17 14.499c-20.667 38.667 -36.334 78 -47.001 118l-110 -28c-8 -2 -15.5 -0.833008 -22.5 3.5s-11.5 10.5 -13.5 18.5s-0.833008 15.5 3.5 22.5s10.5 11.5 18.5 13.5l113 29c-4.66699 34.667 -6 72.334 -4 113.001c0.666992 8.66699 4 15.834 10 21.501
s13.167 8.16699 21.5 7.5s15.333 -4 21 -10s8.16699 -13 7.5 -21zM89 159c28.667 3.33301 60.832 8.33301 96.499 15s62.167 12 79.5 16l101 22c50.667 11.333 78.667 17.666 84 18.999c8.66699 2 16.5 0.833008 23.5 -3.5s11.333 -10.666 13 -18.999
s0.333984 -16 -3.99902 -23s-10.5 -11.167 -18.5 -12.5l-70 -16c-34.667 -8 -60.667 -13.667 -78 -17l-70 -15c-28 -6 -54.167 -11 -78.5 -15s-47.833 -7.66699 -70.5 -11c-8 -0.666992 -15.333 1.5 -22 6.5s-10.5 11.5 -11.5 19.5s1 15.333 6 22s11.5 10.667 19.5 12z" />
    <glyph glyph-name="uni00B2" unicode="&#xb2;" horiz-adv-x="344" 
d="M85 625c10 8.66699 26.0029 19.6641 48.0029 32.9971c22 12.667 43.667 23 65 31c30 11.333 55.333 14.333 76 9c32 -7.33301 49.333 -29.666 52 -66.999c3.33301 -48.667 -18 -103.334 -64 -164.001c-14.667 -19.333 -33.667 -41.666 -57 -66.999
c-30.667 -34 -47 -52.333 -49 -55l-8 -8l5 1c38.667 6.66699 98.667 10 180 10c8 0 15 -3 21 -9s9 -13 9 -21s-3 -15 -9 -21s-13 -9 -21 -9c-78 0 -134.667 -3.33301 -170 -10c-4.66699 -0.666992 -10.334 -1.66699 -17.001 -3l-22 -5c-8 -1.33301 -14.333 -2.33301 -19 -3
c-11.333 -2.66699 -20 -4.33398 -26 -5.00098c-4.66699 -0.666992 -8.33398 -1 -11.001 -1c-2.66699 -0.666992 -5 -0.666992 -7 0c-2.66699 0 -5 0.333008 -7 1c-6.66699 2.66699 -12 6.66699 -16 12c-4.66699 6.66699 -6.33398 14 -5.00098 22
c0.666992 2.66699 1.66699 5.33398 3 8.00098l2 4c0.666992 1.33301 1.66699 2.33301 3 3c0 0.666992 0.666992 1.66699 2 3l6 6l19 19c20 20.667 34 36 42 46c2.66699 2.66699 19.667 21.334 51 56.001c24 26.667 41.667 47.667 53 63c36.667 48.667 54 89.667 52 123
c-0.666992 8 -2.66699 12.333 -6 13c-8.66699 2 -22.667 -0.333008 -42 -7c-17.333 -6.66699 -35.333 -15.667 -54 -27s-31.667 -20.333 -39 -27c-6.66699 -5.33301 -14 -7.66602 -22 -6.99902s-14.833 4.16699 -20.5 10.5s-8.16699 13.5 -7.5 21.5s4 15 10 21z" />
    <glyph glyph-name="uni00B3" unicode="&#xb3;" horiz-adv-x="359" 
d="M80 629c9.33301 8.66699 23.3359 19.666 42.0029 32.999c18.667 12.667 37.334 23 56.001 31c26 11.333 48.333 16 67 14c14.667 -2 26.667 -7.66699 36 -17s15.666 -22 18.999 -38c5.33301 -31.333 -5.33398 -63.333 -32.001 -96c-6 -7.33301 -13 -15 -21 -23
c29.333 -6 53 -20 71 -42c34 -41.333 43 -79.666 27 -114.999c-12 -28 -39 -50 -81 -66c-31.333 -12 -67.333 -20 -108 -24c-41.333 -4 -72 -4 -92 0c-8 1.33301 -14.5 5.5 -19.5 12.5s-6.83301 14.5 -5.5 22.5s5.5 14.5 12.5 19.5s14.5 6.83301 22.5 5.5
c18.667 -3.33301 45 -3.33301 79 0s63.667 10 89 20c26.667 10 42.834 21.333 48.501 34s-0.5 30.334 -18.5 53.001c-14 16.667 -35.667 24.667 -65 24c-10 -0.666992 -21 -2.33398 -33 -5.00098c-2 0 -4.33301 -0.333008 -7 -1s-4.33398 -1 -5.00098 -1
c-2.66699 -0.666992 -5 -1 -7 -1h-7c-8 0.666992 -14.667 4 -20 10c-6 7.33301 -9 15.666 -9 24.999c0.666992 9.33301 4.33398 17.333 11.001 24c4.66699 4 11.667 7.66699 21 11c1.33301 0.666992 3.66602 1.5 6.99902 2.5s5.66602 1.83301 6.99902 2.5
c2 0.666992 3 1.33398 3 2.00098c25.333 20 43.333 36.333 54 49c14.667 17.333 20.667 33 18 47c-0.666992 4 -1.33398 5.66699 -2.00098 5c-8 1.33301 -20 -1.66699 -36 -9c-14.667 -6.66699 -30 -15.5 -46 -26.5s-27.333 -19.833 -34 -26.5
c-6 -5.33301 -13.167 -8 -21.5 -8s-15.333 3 -21 9s-8.5 13.167 -8.5 21.5s3 15.5 9 21.5z" />
    <glyph glyph-name="acute" unicode="&#xb4;" horiz-adv-x="187" 
d="M189 736l-48 -60.999c-22.667 -28.667 -40 -51.334 -52 -68.001c-4.66699 -6.66699 -11.167 -10.667 -19.5 -12s-15.833 0.5 -22.5 5.5s-10.667 11.667 -12 20s0.666992 15.833 6 22.5l53 67l47 62c5.33301 6.66699 12 10.5 20 11.5s15.333 -1 22 -6
s10.5 -11.5 11.5 -19.5s-0.833008 -15.333 -5.5 -22z" />
    <glyph glyph-name="uni00B5" unicode="&#xb5;" 
d="M338 81c2.66699 -5.33301 5.33594 -10.0068 8.00293 -14.0068l4 -9c1.33301 -1.33301 2.16602 -2.5 2.49902 -3.5s0.833008 -1.83301 1.5 -2.5l7 -7l18 -22c5.33301 -6 7.66602 -13.167 6.99902 -21.5s-4.16699 -15.166 -10.5 -20.499s-13.666 -7.66602 -21.999 -6.99902
s-15.166 4.33398 -20.499 11.001l-18 20l-9 12c-2 2.66699 -4.33301 6 -7 10c-40.667 -42 -85.667 -54 -135 -36c-23.333 8.66699 -44.333 23.334 -63 44.001c-0.666992 -28.667 -1 -57.334 -1 -86.001c0 -8 -3 -15 -9 -21s-13 -9 -21 -9s-15 3 -21 9s-9 13 -9 21
c0 152.667 9.33301 335.334 28 548.001c0.666992 8 4.16699 14.667 10.5 20s13.666 7.66602 21.999 6.99902s15.166 -4.16699 20.499 -10.5s7.66602 -13.833 6.99902 -22.5c-11.333 -124.667 -19.333 -239 -24 -343c1.33301 -2 2.33301 -4.33301 3 -7
c8 -23.333 19 -43.333 33 -60s29 -28 45 -34c32.667 -12 63 3.66699 91 47c17.333 27.333 28 84.333 32 171c2.66699 70.667 1 135.334 -5 194.001c-0.666992 8 1.66602 15.333 6.99902 22s12 10.334 20 11.001s15.333 -1.66602 22 -6.99902s10.334 -12 11.001 -20
c6 -62 7.66699 -129.333 5 -202c-4 -81.333 -14.333 -141.666 -31 -180.999c0.666992 0 1 -0.333008 1 -1z" />
    <glyph glyph-name="paragraph" unicode="&#xb6;" horiz-adv-x="462" 
d="M243 656c-1.33301 0.666992 -3 0.995117 -5 0.995117c-26 4.66699 -50 1.83398 -72 -8.49902s-39.333 -28.166 -52 -53.499c-20.667 -42 -19 -93 5 -153c11.333 -28 26 -52.667 44 -74s37.333 -37 58 -47c9.33301 -4 18.333 -7.33301 27 -10
c0 10.667 -0.333008 21.334 -1 32.001c0 26.667 -0.666992 75.834 -2 147.501s-2 126.834 -2 165.501zM353 575.995c-11.333 21.333 -28.001 39.332 -50.001 53.999c0 -33.333 0.666992 -82.166 2 -146.499s2 -110.833 2 -139.5c0.666992 -15.333 1 -30 1 -44
c12.667 -1.33301 29.334 -2 50.001 -2c0 10.667 -0.333008 21.667 -1 33c0 28.667 -0.5 70.167 -1.5 124.5s-1.83301 94.5 -2.5 120.5zM363.999 657.994c5.33301 4.66699 11.6641 6.99707 18.9971 6.99707c8 0 15 -3 21 -9s9 -13 9 -21v-45l2 -3
c3.33301 -8.66699 3 -17.334 -1 -26.001c0 -22 0.5 -58.667 1.5 -110s1.5 -91 1.5 -119c1.33301 -121.333 -2 -223.333 -10 -306c-0.666992 -8 -4.33398 -14.667 -11.001 -20s-14 -7.66602 -22 -6.99902s-14.667 4.33398 -20 11.001s-7.66602 14 -6.99902 22
c6 60.667 9.66699 129.334 11 206.001c-20.667 0 -37.667 0.666992 -51 2c-0.666992 -78.667 -4 -149.334 -10 -212.001c-0.666992 -8 -4.33398 -14.667 -11.001 -20s-14 -7.66602 -22 -6.99902s-14.667 4.33398 -20 11.001s-7.66602 14 -6.99902 22
c6 63.333 9.66699 135 11 215c-17.333 4 -34.333 10 -51 18c-29.333 13.333 -55.666 33.666 -78.999 60.999s-41.666 58 -54.999 92s-20.666 68 -21.999 102s5 67 19 99c19.333 38.667 46 65.667 80 81c34 16 70 20.667 108 14c44 -7.33301 82.667 -26.666 116 -57.999z" />
    <glyph glyph-name="periodcentered" unicode="&#xb7;" horiz-adv-x="136" 
d="M89 404c0 -8 -3 -15 -9 -21s-13 -9 -21 -9s-15 3 -21 9s-9 13 -9 21s3 15 9 21s13 9 21 9s15 -3 21 -9s9 -13 9 -21z" />
    <glyph glyph-name="cedilla" unicode="&#xb8;" horiz-adv-x="136" 
d="M91 32c-8.66699 -31.333 -20.333 -57 -35 -77s-35.667 -38.667 -63 -56c-6.66699 -4.66699 -14 -6.16699 -22 -4.5s-14.333 6 -19 13s-6.16699 14.5 -4.5 22.5s6.16699 14.333 13.5 19c20.667 14 36.167 28 46.5 42s18.833 33 25.5 57c2.66699 8 7.5 14 14.5 18
s14.5 4.83301 22.5 2.5s14 -7 18 -14s5 -14.5 3 -22.5z" />
    <glyph glyph-name="uni00B9" unicode="&#xb9;" horiz-adv-x="100" 
d="M92 678c1.33301 -30 2.83398 -61.833 4.50098 -95.5l5.5 -110.5l6 -95c0.666992 -8.66699 -1.83301 -16 -7.5 -22s-12.667 -9.33301 -21 -10s-15.5 1.83301 -21.5 7.5s-9.33301 12.5 -10 20.5l-6 96l-5.5 111.5c-1.66699 33.667 -3.16699 65.5 -4.5 95.5
c0 8 2.66699 15 8 21s12.166 9.16699 20.499 9.5s15.5 -2.16699 21.5 -7.5s9.33301 -12.333 10 -21z" />
    <glyph glyph-name="ordmasculine" unicode="&#xba;" horiz-adv-x="293" 
d="M148 640c-6 -4.66699 -11.665 -9.99805 -16.998 -15.998c-10.667 -14 -19.834 -35.5 -27.501 -64.5s-10.5 -57.167 -8.5 -84.5c1.33301 -28 8 -48.667 20 -62c11.333 -12.667 28.333 -17.334 51 -14.001c29.333 4 48.666 30.333 57.999 79c4 24 4.66699 46.833 2 68.5
s-8 38.5 -16 50.5c-6 10.667 -13.333 18.667 -22 24s-22 11.666 -40 18.999zM197.002 684.002c28.667 -13.333 50.332 -31.666 64.999 -54.999c12 -20 20 -45 24 -75c3.33301 -30 2.33301 -59 -3 -87c-6 -32 -17.667 -60.333 -35 -85c-18 -24 -42.667 -38.333 -74 -43
c-44 -6 -79 5.66699 -105 35c-20 23.333 -31.333 55.666 -34 96.999c-2.66699 34 0.833008 69.167 10.5 105.5s22.834 64.833 39.501 85.5c4 5.33301 8.16699 10.166 12.5 14.499s9.33301 8.33301 15 12s10.167 6.16699 13.5 7.5l14 8l13 7c6.66699 4 14 4.83301 22 2.5
s14 -7.16602 18 -14.499c2.66699 -4.66699 4 -9.66699 4 -15z" />
    <glyph glyph-name="guillemotright" unicode="&#xbb;" horiz-adv-x="459" 
d="M138 467c8.66699 -18.667 31.9941 -47.002 69.9941 -85.002l41 -43c15.333 -17.333 25 -32 29 -44c8 -21.333 1.33301 -46.666 -20 -75.999c-14 -18.667 -34.333 -40.334 -61 -65.001c-12.667 -12 -27 -24.667 -43 -38l-46 -38l-28 -21
c-6 -5.33301 -13.167 -7.66602 -21.5 -6.99902s-15.166 4.16699 -20.499 10.5s-7.66602 13.666 -6.99902 21.999s4.33398 15.166 11.001 20.499l26 21l46 36l43 38c24 22 41.333 40.667 52 56c2 2.66699 3.83301 5.33398 5.5 8.00098s2.83398 4.83398 3.50098 6.50098
s1.33398 3 2.00098 4s1 1.83301 1 2.5v1c-2 4.66699 -7.66699 12.334 -17 23.001c-6 6.66699 -19 20.334 -39 41.001c-42.667 44 -69.667 77.667 -81 101c-3.33301 7.33301 -3.66602 15 -0.999023 23s7.66699 13.667 15 17s15 3.66602 23 0.999023s13.667 -7.66699 17 -15z
M264.994 491.998c39.333 -28.667 74.666 -58.999 105.999 -90.999c22.667 -23.333 39.667 -44.333 51 -63c16.667 -29.333 20.334 -54.666 11.001 -75.999c-1.33301 -3.33301 -3.66602 -6.66602 -6.99902 -9.99902l-7 -8l-20 -22l-59 -63
c-64.667 -68.667 -97.334 -103.667 -98.001 -105c-5.33301 -6 -12.166 -9.33301 -20.499 -10s-15.666 1.66602 -21.999 6.99902s-9.83301 12.166 -10.5 20.499s1.66602 15.833 6.99902 22.5c5.33301 5.33301 38.666 40.666 99.999 105.999l59 63l19 21l3 4
c0 4.66699 -2.33301 11.334 -7 20.001c-8.66699 14 -22.667 31 -42 51c-28.667 29.333 -61.667 57.666 -99 84.999c-6.66699 4.66699 -10.667 11.167 -12 19.5s0.5 15.833 5.5 22.5s11.667 10.667 20 12s15.833 -0.666992 22.5 -6z" />
    <glyph glyph-name="onequarter" unicode="&#xbc;" horiz-adv-x="490" 
d="M351 202l-2 20.999c-3.33301 36 -5.33301 58 -6 66c-18.667 -29.333 -40 -58.666 -64 -87.999c14 -0.666992 31.333 -0.666992 52 0c6 0.666992 12.667 1 20 1zM374 433.999c4.66699 0 8.99414 -1.00488 12.9941 -3.00488c7.33301 -3.33301 12.333 -9 15 -17
s2.33398 -15.667 -0.999023 -23l-4 -9c0.666992 -20.667 4.66699 -71.667 12 -153l2 -23c16.667 0.666992 30.334 1.66699 41.001 3c8.66699 0.666992 16.167 -1.66602 22.5 -6.99902s9.83301 -12.166 10.5 -20.499s-1.66602 -15.666 -6.99902 -21.999
s-12 -9.83301 -20 -10.5c-10.667 -0.666992 -25 -1.66699 -43 -3c2.66699 -36.667 4 -69.667 4 -99c0 -8 -3 -15 -9 -21s-13 -9 -21 -9s-15 3 -21 9s-9 13 -9 21c0 28.667 -1.33301 60.334 -4 95.001h-22c-32 -1.33301 -57.667 -1.33301 -77 0
c-12 0.666992 -21.667 1.66699 -29 3c-5.33301 1.33301 -10 3 -14 5c-8.66699 4 -15 10 -19 18c-7.33301 18.667 -2 35.334 16 50.001c2.66699 2 4.83398 3.5 6.50098 4.5s2.83398 1.66699 3.50098 2s1.33398 0.833008 2.00098 1.5c47.333 57.333 85.333 114 114 170v8
c0 8.66699 2.83301 16 8.5 22s12.5 9 20.5 9c3.33301 0 6.33301 -0.333008 9 -1zM129.994 633.994c3.33301 -24.667 6.33105 -50.498 8.99805 -77.498l9 -93.5l6 -78c0.666992 -8.66699 -1.66602 -16.167 -6.99902 -22.5s-12.166 -9.83301 -20.499 -10.5
s-15.666 1.66602 -21.999 6.99902s-9.83301 12 -10.5 20l-6 77c-2.66699 34.667 -5.33398 65.5 -8.00098 92.5s-6 52.833 -10 77.5c-0.666992 8 1.33301 15.333 6 22s11.167 10.5 19.5 11.5s15.833 -0.833008 22.5 -5.5s10.667 -11.334 12 -20.001zM387.992 672.996
c-14.667 -33.333 -35.6699 -76 -63.0029 -128c-33.333 -62 -55 -103 -65 -123l-192 -410c-3.33301 -7.33301 -9 -12.333 -17 -15s-15.667 -2.33398 -23 0.999023s-12.333 9 -15 17s-2.33398 15.667 0.999023 23l192 410c2.66699 4.66699 24.667 46.667 66 126
c26.667 50.667 47.334 91.667 62.001 123c3.33301 8 8.83301 13.333 16.5 16s15.334 2.33398 23.001 -0.999023s12.834 -8.83301 15.501 -16.5s2.33398 -15.167 -0.999023 -22.5z" />
    <glyph glyph-name="onehalf" unicode="&#xbd;" horiz-adv-x="534" 
d="M174 634c3.33301 -24.667 6.33105 -50.498 8.99805 -77.498l9 -93.5l6 -78c0.666992 -8.66699 -1.66602 -16.167 -6.99902 -22.5s-12.166 -9.83301 -20.499 -10.5s-15.666 1.66602 -21.999 6.99902s-9.83301 12 -10.5 20l-6 77
c-2.66699 34.667 -5.33398 65.5 -8.00098 92.5s-6 52.833 -10 77.5c-0.666992 8 1.33301 15.333 6 22s11.167 10.5 19.5 11.5s15.833 -0.833008 22.5 -5.5s10.667 -11.334 12 -20.001zM431.998 673.002c-14.667 -33.333 -35.6699 -76 -63.0029 -128
c-33.333 -62 -55 -103 -65 -123l-192 -410c-3.33301 -7.33301 -9 -12.333 -17 -15s-15.667 -2.33398 -23 0.999023s-12.333 9 -15 17s-2.33398 15.667 0.999023 23l192 410c2.66699 4.66699 24.667 46.667 66 126c26.667 50.667 47.334 91.667 62.001 123
c3.33301 8 8.83301 13.333 16.5 16s15.334 2.33398 23.001 -0.999023s12.834 -8.83301 15.501 -16.5s2.33398 -15.167 -0.999023 -22.5zM295.995 303.002c14.667 13.333 32.0029 25.668 52.0029 37.001s39.333 18 58 20c28.667 3.33301 50 -5.33398 64 -26.001
c13.333 -19.333 17 -47 11 -83c-4.66699 -26 -19.667 -56.667 -45 -92c-3.33301 -4.66699 -19 -25 -47 -61c35.333 0.666992 75 -10 119 -32c8 -4 13.167 -9.83301 15.5 -17.5s1.66602 -15.334 -2.00098 -23.001s-9.33398 -12.667 -17.001 -15s-15.167 -1.83301 -22.5 1.5
c-23.333 11.333 -43.833 19 -61.5 23s-36.167 4 -55.5 0l-17 -12c-20.667 -14 -39.667 -16 -57 -6c-10.667 6 -15.667 15.333 -15 28c0 3.33301 0.666992 6.66602 2 9.99902c1.33301 2.66699 2.66602 5 3.99902 7c1.33301 1.33301 3 3.33301 5 6l13 16
c15.333 16.667 26 29.334 32 38.001c4 4.66699 12.5 15.334 25.5 32.001s22.833 29.667 29.5 39c20 28 31.333 50.667 34 68c4 20 4 33 0 39l-9 1c-10 -1.33301 -22.167 -6 -36.5 -14s-26.833 -17.333 -37.5 -28c-6 -5.33301 -13.167 -8 -21.5 -8s-15.333 3 -21 9
s-8.5 13.167 -8.5 21.5s3 15.5 9 21.5z" />
    <glyph glyph-name="threequarters" unicode="&#xbe;" horiz-adv-x="634" 
d="M492 202l-2 20.999c-3.33301 36 -5.33301 58 -6 66c-18.667 -29.333 -40 -58.666 -64 -87.999c14 -0.666992 31.333 -0.666992 52 0c6 0.666992 12.667 1 20 1zM515 433.999c4.66699 0 8.99414 -1.00488 12.9941 -3.00488c7.33301 -3.33301 12.333 -9 15 -17
s2.33398 -15.667 -0.999023 -23l-4 -9c0.666992 -20.667 4.66699 -71.667 12 -153l2 -23c16.667 0.666992 30.334 1.66699 41.001 3c8.66699 0.666992 16.167 -1.66602 22.5 -6.99902s9.83301 -12.166 10.5 -20.499s-1.66602 -15.666 -6.99902 -21.999
s-12 -9.83301 -20 -10.5c-10.667 -0.666992 -25 -1.66699 -43 -3c2.66699 -36.667 4 -69.667 4 -99c0 -8 -3 -15 -9 -21s-13 -9 -21 -9s-15 3 -21 9s-9 13 -9 21c0 28.667 -1.33301 60.334 -4 95.001h-22c-32 -1.33301 -57.667 -1.33301 -77 0
c-12 0.666992 -21.667 1.66699 -29 3c-5.33301 1.33301 -10 3 -14 5c-8.66699 4 -15 10 -19 18c-7.33301 18.667 -2 35.334 16 50.001c2.66699 2 4.83398 3.5 6.50098 4.5s2.83398 1.66699 3.50098 2s1.33398 0.833008 2.00098 1.5c47.333 57.333 85.333 114 114 170v8
c0 8.66699 2.83301 16 8.5 22s12.5 9 20.5 9c3.33301 0 6.33301 -0.333008 9 -1zM528.994 672.994c-14.667 -33.333 -35.6699 -76 -63.0029 -128c-33.333 -62 -55 -103 -65 -123l-192 -410c-3.33301 -7.33301 -9 -12.333 -17 -15s-15.667 -2.33398 -23 0.999023
s-12.333 9 -15 17s-2.33398 15.667 0.999023 23l192 410c2.66699 4.66699 24.667 46.667 66 126c26.667 50.667 47.334 91.667 62.001 123c3.33301 8 8.83301 13.333 16.5 16s15.334 2.33398 23.001 -0.999023s12.834 -8.83301 15.501 -16.5
s2.33398 -15.167 -0.999023 -22.5zM92.9912 633.994c10 7.33301 25.332 16.001 45.999 26.001s41 17.667 61 23c27.333 8 50.666 9.66699 69.999 5c30 -6.66699 48 -25.334 54 -56.001c5.33301 -32 -6.66699 -63 -36 -93c12 -4.66699 23 -12 33 -22
c16.667 -18 22.667 -38.667 18 -62c-10 -50.667 -45.667 -88 -107 -112c-37.333 -14.667 -84 -24.334 -140 -29.001c-8 -0.666992 -15.167 1.66602 -21.5 6.99902s-9.83301 12.166 -10.5 20.499s1.66602 15.666 6.99902 21.999s12.333 9.83301 21 10.5
c50.667 4 91.334 12 122.001 24c41.333 16.667 65 39.667 71 69c0 2.66699 -1.33301 5.33398 -4 8.00098c-9.33301 10 -23.666 12.333 -42.999 7c-4.66699 -1.33301 -11.167 -3.33301 -19.5 -6s-14.166 -4.66699 -17.499 -6c-18.667 -5.33301 -34.667 -7.33301 -48 -6
c-2.66699 0.666992 -5 1 -7 1c-8.66699 2.66699 -15 7.66699 -19 15c-7.33301 13.333 -5.66602 25.333 5.00098 36c2 2.66699 4.66699 4.83398 8 6.50098s9 3.83398 17 6.50098c16 5.33301 24.667 8.33301 26 9c27.333 14 48.333 27.333 63 40
c17.333 16 24.666 30.667 21.999 44c-0.666992 4 -3 6.66699 -7 8c-9.33301 2 -23 0.333008 -41 -5c-16.667 -4 -33.667 -10.167 -51 -18.5s-29.333 -15.166 -36 -20.499s-14.167 -7.33301 -22.5 -6s-15 5.33301 -20 12s-6.83301 14.167 -5.5 22.5s5.33301 14.833 12 19.5z
" />
    <glyph glyph-name="questiondown" unicode="&#xbf;" horiz-adv-x="362" 
d="M355 163c-13.333 -37.333 -36.4912 -70.3311 -69.4912 -98.998s-67.5 -48 -103.5 -58c-42.667 -11.333 -77.334 -7 -104.001 13c-31.333 23.333 -45 61.333 -41 114c0.666992 12 2.16699 23.667 4.5 35s6 23 11 35s8.83301 21.667 11.5 29s8.33398 17.666 17.001 30.999
l16 25l18 28c10 15.333 15.667 23.666 17 24.999c24.667 36.667 43.167 70.334 55.5 101.001s17.833 65.667 16.5 105c0 8.66699 2.83301 16 8.5 22s12.667 9 21 9s15.5 -2.83301 21.5 -8.5s9 -12.5 9 -20.5c1.33301 -48 -5.33398 -90.167 -20.001 -126.5
s-35.334 -74.5 -62.001 -114.5c-2 -2.66699 -7.33301 -10.334 -16 -23.001s-13.834 -20.5 -15.501 -23.5s-5.83398 -9.83301 -12.501 -20.5s-11 -18 -13 -22l-10 -20c-4.66699 -9.33301 -7.83398 -17.166 -9.50098 -23.499s-3.33398 -13.666 -5.00098 -21.999
s-2.83398 -16.5 -3.50098 -24.5c-2.66699 -31.333 2.66602 -51.666 15.999 -60.999c12 -8.66699 29.667 -10 53 -4c27.333 7.33301 53.833 22.166 79.5 44.499s43.5 47.166 53.5 74.499c2.66699 8 7.66699 13.667 15 17s15 3.66602 23 0.999023s13.667 -7.66699 17 -15
s3.66602 -15 0.999023 -23zM271.009 674.002c0 -8 -3 -15 -9 -21s-13 -9 -21 -9s-15 3 -21 9s-9 13 -9 21s3 15 9 21s13 9 21 9s15 -3 21 -9s9 -13 9 -21z" />
    <glyph glyph-name="Agrave" unicode="&#xc0;" horiz-adv-x="459" 
d="M255 656l-1 2.00098c0 -0.666992 0.333008 -1.33398 1 -2.00098zM173 257.001c55.333 5.33301 111.667 19 169 41c-30 138.667 -47 216.334 -51 233.001c-8.66699 36 -14.667 59.667 -18 71l-20 -70c-45.333 -152.667 -72 -244.334 -80 -275.001zM158.001 196.001
c-16 -68 -27.666 -130.338 -34.999 -187.005c-1.33301 -8 -5.16602 -14.5 -11.499 -19.5s-13.666 -7 -21.999 -6s-15 4.66699 -20 11s-7.16699 13.833 -6.5 22.5c7.33301 54.667 18.333 114.334 33 179.001c-7.33301 1.33301 -13.333 4.83301 -18 10.5
s-6.66699 12.167 -6 19.5c0.666992 8.66699 4 15.834 10 21.501s13 8.16699 21 7.5h8c9.33301 36.667 37.333 134.334 84 293.001l22 74c6 19.333 11 34.666 15 45.999c2.66699 7.33301 5 13.333 7 18c1.33301 2.66699 2.66602 5 3.99902 7
c3.33301 6 7.66602 10.333 12.999 13c16 9.33301 30.667 6.33301 44 -9c4 -5.33301 8 -12.333 12 -21c5.33301 -11.333 11 -27.666 17 -48.999c4.66699 -16.667 11.334 -44 20.001 -82l49 -226c13.333 0 22.666 -6 27.999 -18
c3.33301 -7.33301 3.66602 -14.833 0.999023 -22.5s-8 -13.167 -16 -16.5c20.667 -93.333 41.667 -172.333 63 -237c2 -8 1.16699 -15.667 -2.5 -23s-9.5 -12.166 -17.5 -14.499s-15.667 -1.66602 -23 2.00098s-12.333 9.5 -15 17.5c-20.667 63.333 -41 140.333 -61 231
c-67.333 -24 -133 -38 -197 -42zM226.002 816.996l103.001 -58.001c7.33301 -4 12.166 -9.83301 14.499 -17.5s1.5 -15.167 -2.5 -22.5s-9.83301 -12.166 -17.5 -14.499s-15.167 -1.5 -22.5 2.5l-105 58c-7.33301 4 -12 10 -14 18s-1 15.667 3 23s10 12 18 14
s15.667 1 23 -3z" />
    <glyph glyph-name="Aacute" unicode="&#xc1;" horiz-adv-x="500" 
d="M255 656l-1 2.00098c0 -0.666992 0.333008 -1.33398 1 -2.00098zM173 257.001c55.333 5.33301 111.667 19 169 41c-30 138.667 -47 216.334 -51 233.001c-8.66699 36 -14.667 59.667 -18 71l-20 -70c-45.333 -152.667 -72 -244.334 -80 -275.001zM158.001 196.001
c-16 -68 -27.666 -130.338 -34.999 -187.005c-1.33301 -8 -5.16602 -14.5 -11.499 -19.5s-13.666 -7 -21.999 -6s-15 4.66699 -20 11s-7.16699 13.833 -6.5 22.5c7.33301 54.667 18.333 114.334 33 179.001c-7.33301 1.33301 -13.333 4.83301 -18 10.5
s-6.66699 12.167 -6 19.5c0.666992 8.66699 4 15.834 10 21.501s13 8.16699 21 7.5h8c9.33301 36.667 37.333 134.334 84 293.001l22 74c6 19.333 11 34.666 15 45.999c2.66699 7.33301 5 13.333 7 18c1.33301 2.66699 2.66602 5 3.99902 7
c3.33301 6 7.66602 10.333 12.999 13c16 9.33301 30.667 6.33301 44 -9c4 -5.33301 8 -12.333 12 -21c5.33301 -11.333 11 -27.666 17 -48.999c4.66699 -16.667 11.334 -44 20.001 -82l49 -226c13.333 0 22.666 -6 27.999 -18
c3.33301 -7.33301 3.66602 -14.833 0.999023 -22.5s-8 -13.167 -16 -16.5c20.667 -93.333 41.667 -172.333 63 -237c2 -8 1.16699 -15.667 -2.5 -23s-9.5 -12.166 -17.5 -14.499s-15.667 -1.66602 -23 2.00098s-12.333 9.5 -15 17.5c-20.667 63.333 -41 140.333 -61 231
c-67.333 -24 -133 -38 -197 -42zM194.002 759.996l27 13.998c8.66699 4 18 9.33301 28 16s17.833 11.667 23.5 15s15 9.5 28 18.5s21.5 15.167 25.5 18.5c6.66699 4.66699 14.167 6.16699 22.5 4.5s14.833 -5.83398 19.5 -12.501s6.16699 -14.167 4.5 -22.5
s-5.83398 -14.833 -12.501 -19.5l-25 -18l-29 -19l-25 -17c-11.333 -6.66699 -21.833 -12.5 -31.5 -17.5s-19.5 -9.83301 -29.5 -14.5c-8 -3.33301 -15.833 -3.66602 -23.5 -0.999023s-13.167 7.83398 -16.5 15.501s-3.66602 15.334 -0.999023 23.001
s7.66699 13.167 15 16.5z" />
    <glyph glyph-name="Acircumflex" unicode="&#xc2;" horiz-adv-x="468" 
d="M255 656l-1 2.00098c0 -0.666992 0.333008 -1.33398 1 -2.00098zM173 257.001c55.333 5.33301 111.667 19 169 41c-30 138.667 -47 216.334 -51 233.001c-8.66699 36 -14.667 59.667 -18 71l-20 -70c-45.333 -152.667 -72 -244.334 -80 -275.001zM158.001 196.001
c-16 -68 -27.666 -130.338 -34.999 -187.005c-1.33301 -8 -5.16602 -14.5 -11.499 -19.5s-13.666 -7 -21.999 -6s-15 4.66699 -20 11s-7.16699 13.833 -6.5 22.5c7.33301 54.667 18.333 114.334 33 179.001c-7.33301 1.33301 -13.333 4.83301 -18 10.5
s-6.66699 12.167 -6 19.5c0.666992 8.66699 4 15.834 10 21.501s13 8.16699 21 7.5h8c9.33301 36.667 37.333 134.334 84 293.001l22 74c6 19.333 11 34.666 15 45.999c2.66699 7.33301 5 13.333 7 18c1.33301 2.66699 2.66602 5 3.99902 7
c3.33301 6 7.66602 10.333 12.999 13c16 9.33301 30.667 6.33301 44 -9c4 -5.33301 8 -12.333 12 -21c5.33301 -11.333 11 -27.666 17 -48.999c4.66699 -16.667 11.334 -44 20.001 -82l49 -226c13.333 0 22.666 -6 27.999 -18
c3.33301 -7.33301 3.66602 -14.833 0.999023 -22.5s-8 -13.167 -16 -16.5c20.667 -93.333 41.667 -172.333 63 -237c2 -8 1.16699 -15.667 -2.5 -23s-9.5 -12.166 -17.5 -14.499s-15.667 -1.66602 -23 2.00098s-12.333 9.5 -15 17.5c-20.667 63.333 -41 140.333 -61 231
c-67.333 -24 -133 -38 -197 -42zM157.002 731.996c23.333 36.667 42.332 62.335 56.999 77.002c22 22.667 44 32 66 28c19.333 -3.33301 38 -17.666 56 -42.999c11.333 -16 27.333 -43.667 48 -83c3.33301 -7.33301 3.83301 -15 1.5 -23s-7.16602 -13.833 -14.499 -17.5
s-15 -4.33398 -23 -2.00098s-14 7.16602 -18 14.499c-18.667 37.333 -33 62.666 -43 75.999c-7.33301 10.667 -13 17 -17 19c-2.66699 -1.33301 -7 -5 -13 -11c-12 -12 -28.667 -34.333 -50 -67c-4.66699 -7.33301 -11 -11.833 -19 -13.5s-15.5 -0.166992 -22.5 4.5
s-11.333 11 -13 19s-0.166992 15.333 4.5 22z" />
    <glyph glyph-name="Atilde" unicode="&#xc3;" horiz-adv-x="500" 
d="M255 656l-1 2.00098c0 -0.666992 0.333008 -1.33398 1 -2.00098zM173 257.001c55.333 5.33301 111.667 19 169 41c-30 138.667 -47 216.334 -51 233.001c-8.66699 36 -14.667 59.667 -18 71l-20 -70c-45.333 -152.667 -72 -244.334 -80 -275.001zM158.001 196.001
c-16 -68 -27.666 -130.338 -34.999 -187.005c-1.33301 -8 -5.16602 -14.5 -11.499 -19.5s-13.666 -7 -21.999 -6s-15 4.66699 -20 11s-7.16699 13.833 -6.5 22.5c7.33301 54.667 18.333 114.334 33 179.001c-7.33301 1.33301 -13.333 4.83301 -18 10.5
s-6.66699 12.167 -6 19.5c0.666992 8.66699 4 15.834 10 21.501s13 8.16699 21 7.5h8c9.33301 36.667 37.333 134.334 84 293.001l22 74c6 19.333 11 34.666 15 45.999c2.66699 7.33301 5 13.333 7 18c1.33301 2.66699 2.66602 5 3.99902 7
c3.33301 6 7.66602 10.333 12.999 13c16 9.33301 30.667 6.33301 44 -9c4 -5.33301 8 -12.333 12 -21c5.33301 -11.333 11 -27.666 17 -48.999c4.66699 -16.667 11.334 -44 20.001 -82l49 -226c13.333 0 22.666 -6 27.999 -18
c3.33301 -7.33301 3.66602 -14.833 0.999023 -22.5s-8 -13.167 -16 -16.5c20.667 -93.333 41.667 -172.333 63 -237c2 -8 1.16699 -15.667 -2.5 -23s-9.5 -12.166 -17.5 -14.499s-15.667 -1.66602 -23 2.00098s-12.333 9.5 -15 17.5c-20.667 63.333 -41 140.333 -61 231
c-67.333 -24 -133 -38 -197 -42zM161.002 743.996c17.333 32.667 37.002 52.6641 59.002 59.9971c17.333 5.33301 37.666 3 60.999 -7c1.33301 -0.666992 4.83301 -2.16699 10.5 -4.5s9 -3.66602 10 -3.99902s3.66699 -1.33301 8 -3s7.16602 -2.5 8.49902 -2.5h7
c3.33301 0 6 0.333008 8 1s4.33301 1.66699 7 3s5.33398 3 8.00098 5c7.33301 5.33301 15 7.33301 23 6s14.5 -5.5 19.5 -12.5s6.83301 -14.5 5.5 -22.5s-5.33301 -14.333 -12 -19c-8 -6 -15.833 -10.667 -23.5 -14s-15.334 -5.33301 -23.001 -6s-14.167 -1 -19.5 -1
s-11.833 1.16699 -19.5 3.5s-12.834 3.83301 -15.501 4.5s-7.66699 2.66699 -15 6l-11 5c-9.33301 4 -15.333 5.66699 -18 5c-6.66699 -2 -14.667 -12.333 -24 -31c-4 -7.33301 -10 -12.166 -18 -14.499s-15.667 -1.66602 -23 2.00098s-12.166 9.5 -14.499 17.5
s-1.83301 15.667 1.5 23z" />
    <glyph glyph-name="Adieresis" unicode="&#xc4;" horiz-adv-x="462" 
d="M255 656l-1 2.00098c0 -0.666992 0.333008 -1.33398 1 -2.00098zM173 257.001c55.333 5.33301 111.667 19 169 41c-30 138.667 -47 216.334 -51 233.001c-8.66699 36 -14.667 59.667 -18 71l-20 -70c-45.333 -152.667 -72 -244.334 -80 -275.001zM158.001 196.001
c-16 -68 -27.666 -130.338 -34.999 -187.005c-1.33301 -8 -5.16602 -14.5 -11.499 -19.5s-13.666 -7 -21.999 -6s-15 4.66699 -20 11s-7.16699 13.833 -6.5 22.5c7.33301 54.667 18.333 114.334 33 179.001c-7.33301 1.33301 -13.333 4.83301 -18 10.5
s-6.66699 12.167 -6 19.5c0.666992 8.66699 4 15.834 10 21.501s13 8.16699 21 7.5h8c9.33301 36.667 37.333 134.334 84 293.001l22 74c6 19.333 11 34.666 15 45.999c2.66699 7.33301 5 13.333 7 18c1.33301 2.66699 2.66602 5 3.99902 7
c3.33301 6 7.66602 10.333 12.999 13c16 9.33301 30.667 6.33301 44 -9c4 -5.33301 8 -12.333 12 -21c5.33301 -11.333 11 -27.666 17 -48.999c4.66699 -16.667 11.334 -44 20.001 -82l49 -226c13.333 0 22.666 -6 27.999 -18
c3.33301 -7.33301 3.66602 -14.833 0.999023 -22.5s-8 -13.167 -16 -16.5c20.667 -93.333 41.667 -172.333 63 -237c2 -8 1.16699 -15.667 -2.5 -23s-9.5 -12.166 -17.5 -14.499s-15.667 -1.66602 -23 2.00098s-12.333 9.5 -15 17.5c-20.667 63.333 -41 140.333 -61 231
c-67.333 -24 -133 -38 -197 -42zM256.002 765.996c0 -8 -3 -15 -9 -21s-13 -9 -21 -9s-15 3 -21 9s-9 13 -9 21s3 15 9 21s13 9 21 9s15 -3 21 -9s9 -13 9 -21zM337.002 760.996c0 -8 -3 -15 -9 -21s-13 -9 -21 -9s-15 3 -21 9s-9 13 -9 21s3 15 9 21s13 9 21 9s15 -3 21 -9
s9 -13 9 -21z" />
    <glyph glyph-name="Aring" unicode="&#xc5;" horiz-adv-x="464" 
d="M173 257c55.333 5.33301 111.667 19 169 41c-30 138.667 -47 216.334 -51 233.001c-8.66699 36 -14.667 59.667 -18 71l-20 -70c-45.333 -152.667 -72 -244.334 -80 -275.001zM158.001 196c-16 -68 -27.667 -130.337 -35 -187.004
c-1.33301 -8 -5.16602 -14.5 -11.499 -19.5s-13.666 -7 -21.999 -6s-15 4.66699 -20 11s-7.16699 13.833 -6.5 22.5c7.33301 54.667 18.333 114.334 33 179.001c-7.33301 1.33301 -13.333 4.83301 -18 10.5s-6.66699 12.167 -6 19.5c0.666992 8.66699 4 15.834 10 21.501
s13 8.16699 21 7.5h8c9.33301 36.667 37.333 134.334 84 293.001l22 74c4 14 8 26.333 12 37c-32 11.333 -54 28 -66 50c-12.667 24 -12.667 49.667 0 77c10.667 22.667 28 41.667 52 57s49.667 24 77 26c43.333 2.66699 75.666 -5.33301 96.999 -24
c22 -20 28.667 -45.667 20 -77c-6 -20 -17.667 -38.833 -35 -56.5s-37.333 -30.834 -60 -39.501c4.66699 -10.667 9.66699 -25.667 15 -45c4.66699 -16 11.334 -43.333 20.001 -82l49 -226c13.333 0 22.666 -6 27.999 -18c3.33301 -7.33301 3.66602 -14.833 0.999023 -22.5
s-8 -13.167 -16 -16.5c20.667 -93.333 41.667 -172.333 63 -237c2 -8 1.16699 -15.667 -2.5 -23s-9.5 -12.166 -17.5 -14.499s-15.667 -1.66602 -23 2.00098s-12.333 9.5 -15 17.5c-20.667 63.333 -41 140.333 -61 231c-67.333 -24 -133 -38 -197 -42zM275.001 722.996
c18 3.33301 34.333 11.168 49 23.501s23.667 24.833 27 37.5c2 7.33301 1.33301 12.666 -2 15.999c-8.66699 8 -26.334 11 -53.001 9c-17.333 -1.33301 -33.333 -6.66602 -48 -15.999s-25 -20 -31 -32c-4 -9.33301 -4.33301 -17 -1 -23c5.33301 -10 18.333 -18 39 -24
c0.666992 -0.666992 1.33398 -1 2.00098 -1c4.66699 5.33301 10.667 8.66602 18 9.99902z" />
    <glyph glyph-name="AE" unicode="&#xc6;" horiz-adv-x="700" 
d="M255 656l-1 2.00098c0 -0.666992 0.333008 -1.33398 1 -2.00098zM173 257.001c55.333 5.33301 111.667 19 169 41c-30 138.667 -47 216.334 -51 233.001c-8.66699 36 -14.667 59.667 -18 71l-20 -70c-45.333 -152.667 -72 -244.334 -80 -275.001zM280.001 715.001
c22 0 45.168 1.82715 69.501 5.49414s44.333 7.16699 60 10.5s39.5 9 71.5 17c8 2 15.5 0.833008 22.5 -3.5s11.5 -10.5 13.5 -18.5s0.833008 -15.5 -3.5 -22.5s-10.5 -11.5 -18.5 -13.5c-77.333 -19.333 -136 -30.666 -176 -33.999c3.33301 -8 6.66602 -17.667 9.99902 -29
c4.66699 -15.333 11.334 -42.666 20.001 -81.999l49 -226h5c20 4 39.667 9.33301 59 16s45 16.667 77 30l63 26c8 2.66699 15.667 2.5 23 -0.5s12.5 -8.5 15.5 -16.5s3 -15.667 0 -23s-8.5 -12.666 -16.5 -15.999c-10.667 -4 -27 -10.667 -49 -20l-54 -23
c-14 -5.33301 -31.333 -11.166 -52 -17.499s-39.667 -11.5 -57 -15.5c19.333 -86.667 38.666 -160.667 57.999 -222c49.333 8 111.666 12 186.999 12c8 0 15 -3 21 -9s9 -13 9 -21s-3 -15 -9 -21s-13 -9 -21 -9c-80 0 -145.667 -4.66699 -197 -14
c-7.33301 -1.33301 -14.166 -0.333008 -20.499 3s-10.833 8.33301 -13.5 15c-4.66699 3.33301 -8 8 -10 14c-20.667 63.333 -41 140.333 -61 231c-67.333 -24 -133 -38 -197 -42c-16 -68 -27.667 -130.333 -35 -187c-1.33301 -8 -5.16602 -14.5 -11.499 -19.5
s-13.666 -7 -21.999 -6s-15 4.66699 -20 11s-7.16699 13.833 -6.5 22.5c7.33301 54.667 18.333 114.334 33 179.001c-7.33301 1.33301 -13.333 4.83301 -18 10.5s-6.66699 12.167 -6 19.5c0.666992 8.66699 4 15.834 10 21.501s13 8.16699 21 7.5h8
c9.33301 36.667 37.333 134.334 84 293.001l22 74c6 19.333 11 34.666 15 45.999c2.66699 7.33301 5 13.333 7 18c1.33301 2.66699 2.66602 5 3.99902 7c3.33301 6 7.66602 10.333 12.999 13c2 1.33301 4 2.33301 6 3c5.33301 4 11.333 6 18 6z" />
    <glyph glyph-name="Ccedilla" unicode="&#xc7;" horiz-adv-x="369" 
d="M285 451c-3.33301 68.667 -14.6631 122.661 -33.9961 161.994c-14 28.667 -28.833 43.334 -44.5 44.001s-31.834 -12.666 -48.501 -39.999c-22.667 -38.667 -38.334 -93.667 -47.001 -165c-16 -130.667 -5.66699 -239 31 -325c9.33301 -22 19 -39.333 29 -52
s17.667 -20.167 23 -22.5s10.333 -3.16602 15 -2.49902c9.33301 2 19.666 10.5 30.999 25.5s21.333 37.167 30 66.5c5.33301 15.333 10.666 36.333 15.999 63l16 67c2 8 6.5 14.167 13.5 18.5s14.5 5.5 22.5 3.5s14.167 -6.5 18.5 -13.5s5.5 -14.5 3.5 -22.5l-15 -66
c-6 -28 -11.667 -50.667 -17 -68c-18 -57.333 -42.333 -96.666 -73 -117.999c10.667 -10 19.334 -19.667 26.001 -29c19.333 -28.667 24 -55.667 14 -81c-8.66699 -19.333 -26 -34.666 -52 -45.999c-33.333 -14 -72.666 -20.667 -117.999 -20c-8 0 -14.833 3 -20.5 9
s-8.5 13.167 -8.5 21.5s3 15.333 9 21s13.333 8.5 22 8.5c36 -0.666992 66.667 4.33301 92 15c11.333 5.33301 18 10.333 20 15s-0.666992 12.334 -8 23.001c-4 6 -11 13.333 -21 22c-14.667 13.333 -24.667 23 -30 29c-36.667 12 -68 48.333 -94 109
c-40.667 96 -52.334 215 -35.001 357c10 79.333 28.333 141.666 55 186.999c28.667 48.667 63 72 103 70c39.333 -1.33301 71.333 -27.333 96 -78c23.333 -46.667 36.666 -108.667 39.999 -186c0.666992 -8 -1.83301 -15 -7.5 -21s-12.667 -9.33301 -21 -10
s-15.5 1.83301 -21.5 7.5s-9.33301 12.834 -10 21.501z" />
    <glyph glyph-name="Egrave" unicode="&#xc8;" horiz-adv-x="365" 
d="M52 643c-0.666992 5.33301 -1.00098 10.332 -1.00098 14.999c-0.666992 8.66699 1.83301 16 7.5 22s12.667 9.33301 21 10s15.5 -1.83301 21.5 -7.5s9.33301 -12.5 10 -20.5v-4l78 20c54 13.333 98.667 23 134 29c8.66699 1.33301 16.334 -0.5 23.001 -5.5
s10.667 -11.667 12 -20s-0.5 -15.833 -5.5 -22.5s-11.5 -10.667 -19.5 -12c-34 -6 -77.333 -15.333 -130 -28l-89 -22c2 -60.667 2.33301 -136.667 1 -228c70.667 20 128.667 31.333 174 34c8 0.666992 15.167 -1.83301 21.5 -7.5s9.83301 -12.5 10.5 -20.5
s-1.83301 -15.167 -7.5 -21.5s-12.5 -9.83301 -20.5 -10.5c-42.667 -2.66699 -102.334 -15 -179.001 -37c-1.33301 -111.333 -1.66602 -194 -0.999023 -248c77.333 19.333 150.333 34 219 44c8 0.666992 15.333 -1.5 22 -6.5s10.5 -11.5 11.5 -19.5s-1 -15.333 -6 -22
s-11.5 -10.667 -19.5 -12c-72 -10 -150.333 -25.667 -235 -47c-5.33301 -6 -12 -9 -20 -9s-15 2.66699 -21 8c-6.66699 4 -11 9.83301 -13 17.5s-1 14.834 3 21.501c-2 59.333 -2 153 0 281l-2 6c-2 8 -1 15.333 3 22c1.33301 103.333 1 185.333 -1 246
c-10 4 -16 11.333 -18 22c-2 6.66699 -1.33301 13.167 2 19.5s8 10.833 14 13.5zM116.999 809.999c2 -0.666992 41.3301 -17.334 117.997 -50.001c7.33301 -3.33301 12.5 -8.83301 15.5 -16.5s3 -15.334 0 -23.001s-8.33301 -13 -16 -16s-15.5 -3.16699 -23.5 -0.5
c-75.333 32.667 -114 49.334 -116 50.001c-7.33301 2.66699 -12.666 7.83398 -15.999 15.501s-3.66602 15.334 -0.999023 23.001s7.83398 13.167 15.501 16.5s15.5 3.66602 23.5 0.999023z" />
    <glyph glyph-name="Eacute" unicode="&#xc9;" horiz-adv-x="372" 
d="M52 643c-0.666992 5.33301 -1.00098 10.332 -1.00098 14.999c-0.666992 8.66699 1.83301 16 7.5 22s12.667 9.33301 21 10s15.5 -1.83301 21.5 -7.5s9.33301 -12.5 10 -20.5v-4l78 20c54 13.333 98.667 23 134 29c8.66699 1.33301 16.334 -0.5 23.001 -5.5
s10.667 -11.667 12 -20s-0.5 -15.833 -5.5 -22.5s-11.5 -10.667 -19.5 -12c-34 -6 -77.333 -15.333 -130 -28l-89 -22c2 -60.667 2.33301 -136.667 1 -228c70.667 20 128.667 31.333 174 34c8 0.666992 15.167 -1.83301 21.5 -7.5s9.83301 -12.5 10.5 -20.5
s-1.83301 -15.167 -7.5 -21.5s-12.5 -9.83301 -20.5 -10.5c-42.667 -2.66699 -102.334 -15 -179.001 -37c-1.33301 -111.333 -1.66602 -194 -0.999023 -248c77.333 19.333 150.333 34 219 44c8 0.666992 15.333 -1.5 22 -6.5s10.5 -11.5 11.5 -19.5s-1 -15.333 -6 -22
s-11.5 -10.667 -19.5 -12c-72 -10 -150.333 -25.667 -235 -47c-5.33301 -6 -12 -9 -20 -9s-15 2.66699 -21 8c-6.66699 4 -11 9.83301 -13 17.5s-1 14.834 3 21.501c-2 59.333 -2 153 0 281l-2 6c-2 8 -1 15.333 3 22c1.33301 103.333 1 185.333 -1 246
c-10 4 -16 11.333 -18 22c-2 6.66699 -1.33301 13.167 2 19.5s8 10.833 14 13.5zM125.999 756.999c33.333 12.667 63.668 31.334 91.001 56.001c6 6 13.167 8.66699 21.5 8s15.333 -4 21 -10s8.16699 -13.167 7.5 -21.5s-4 -15.166 -10 -20.499
c-32.667 -30 -69 -52.667 -109 -68c-8 -2.66699 -15.667 -2.33398 -23 0.999023s-12.5 8.83301 -15.5 16.5s-2.83301 15.167 0.5 22.5s8.66602 12.666 15.999 15.999z" />
    <glyph glyph-name="Ecircumflex" unicode="&#xca;" horiz-adv-x="365" 
d="M52 643c-0.666992 5.33301 -1.00098 10.332 -1.00098 14.999c-0.666992 8.66699 1.83301 16 7.5 22s12.667 9.33301 21 10s15.5 -1.83301 21.5 -7.5s9.33301 -12.5 10 -20.5v-4l78 20c54 13.333 98.667 23 134 29c8.66699 1.33301 16.334 -0.5 23.001 -5.5
s10.667 -11.667 12 -20s-0.5 -15.833 -5.5 -22.5s-11.5 -10.667 -19.5 -12c-34 -6 -77.333 -15.333 -130 -28l-89 -22c2 -60.667 2.33301 -136.667 1 -228c70.667 20 128.667 31.333 174 34c8 0.666992 15.167 -1.83301 21.5 -7.5s9.83301 -12.5 10.5 -20.5
s-1.83301 -15.167 -7.5 -21.5s-12.5 -9.83301 -20.5 -10.5c-42.667 -2.66699 -102.334 -15 -179.001 -37c-1.33301 -111.333 -1.66602 -194 -0.999023 -248c77.333 19.333 150.333 34 219 44c8 0.666992 15.333 -1.5 22 -6.5s10.5 -11.5 11.5 -19.5s-1 -15.333 -6 -22
s-11.5 -10.667 -19.5 -12c-72 -10 -150.333 -25.667 -235 -47c-5.33301 -6 -12 -9 -20 -9s-15 2.66699 -21 8c-6.66699 4 -11 9.83301 -13 17.5s-1 14.834 3 21.501c-2 59.333 -2 153 0 281l-2 6c-2 8 -1 15.333 3 22c1.33301 103.333 1 185.333 -1 246
c-10 4 -16 11.333 -18 22c-2 6.66699 -1.33301 13.167 2 19.5s8 10.833 14 13.5zM80.999 745.999c6.66699 8 23.6689 30.3369 51.002 67.0039c16.667 22.667 32 36.667 46 42c19.333 6 40.666 0.666992 63.999 -16c12.667 -9.33301 36.334 -30.333 71.001 -63
c6.66699 -6 10 -13 10 -21s-2.83301 -15.167 -8.5 -21.5s-12.5 -9.5 -20.5 -9.5s-15 2.66699 -21 8c-33.333 31.333 -55.333 50.666 -66 57.999c-4.66699 3.33301 -8.33398 5.66602 -11.001 6.99902c-3.33301 -3.33301 -8.66602 -10 -15.999 -20
c-28 -37.333 -45.667 -60.333 -53 -69c-5.33301 -6.66699 -12 -10.334 -20 -11.001s-15.333 1.66602 -22 6.99902s-10.334 12 -11.001 20s1.66602 15.333 6.99902 22z" />
    <glyph glyph-name="Edieresis" unicode="&#xcb;" horiz-adv-x="365" 
d="M52 643c-0.666992 5.33301 -1.00098 10.332 -1.00098 14.999c-0.666992 8.66699 1.83301 16 7.5 22s12.667 9.33301 21 10s15.5 -1.83301 21.5 -7.5s9.33301 -12.5 10 -20.5v-4l78 20c54 13.333 98.667 23 134 29c8.66699 1.33301 16.334 -0.5 23.001 -5.5
s10.667 -11.667 12 -20s-0.5 -15.833 -5.5 -22.5s-11.5 -10.667 -19.5 -12c-34 -6 -77.333 -15.333 -130 -28l-89 -22c2 -60.667 2.33301 -136.667 1 -228c70.667 20 128.667 31.333 174 34c8 0.666992 15.167 -1.83301 21.5 -7.5s9.83301 -12.5 10.5 -20.5
s-1.83301 -15.167 -7.5 -21.5s-12.5 -9.83301 -20.5 -10.5c-42.667 -2.66699 -102.334 -15 -179.001 -37c-1.33301 -111.333 -1.66602 -194 -0.999023 -248c77.333 19.333 150.333 34 219 44c8 0.666992 15.333 -1.5 22 -6.5s10.5 -11.5 11.5 -19.5s-1 -15.333 -6 -22
s-11.5 -10.667 -19.5 -12c-72 -10 -150.333 -25.667 -235 -47c-5.33301 -6 -12 -9 -20 -9s-15 2.66699 -21 8c-6.66699 4 -11 9.83301 -13 17.5s-1 14.834 3 21.501c-2 59.333 -2 153 0 281l-2 6c-2 8 -1 15.333 3 22c1.33301 103.333 1 185.333 -1 246
c-10 4 -16 11.333 -18 22c-2 6.66699 -1.33301 13.167 2 19.5s8 10.833 14 13.5zM180.999 760.999c0 -8 -3 -15 -9 -21s-13 -9 -21 -9s-15 3 -21 9s-9 13 -9 21s3 15 9 21s13 9 21 9s15 -3 21 -9s9 -13 9 -21zM277.999 760.999c0 -8 -3 -15 -9 -21s-13 -9 -21 -9
s-15 3 -21 9s-9 13 -9 21s3 15 9 21s13 9 21 9s15 -3 21 -9s9 -13 9 -21z" />
    <glyph glyph-name="Igrave" unicode="&#xcc;" horiz-adv-x="369" 
d="M66 675c27.333 -1.33301 55.998 0.334961 85.998 5.00195c6 5.33301 13 8 21 8c4.66699 0 9 -1 13 -3c26 4.66699 54.333 11.667 85 21c8 2 15.5 1 22.5 -3s11.667 -10 14 -18s1.5 -15.5 -2.5 -22.5s-10 -11.833 -18 -14.5c-30 -8.66699 -58 -15.667 -84 -21
c0.666992 -62.667 4.66699 -157.334 12 -284.001c7.33301 -127.333 11.333 -220.666 12 -279.999c9.33301 0 23 -0.166992 41 -0.5s31.333 -0.5 40 -0.5c8 0 15 -3 21 -9s9 -13 9 -21s-3 -15 -9 -21s-13 -9 -21 -9c-9.33301 0 -24.166 0.166992 -44.499 0.5
s-35.5 0.5 -45.5 0.5c-6 -6 -13 -9 -21 -9s-14.667 2.66699 -20 8c-32.667 -1.33301 -61.667 -4.33301 -87 -9c-8 -2 -15.5 -0.666992 -22.5 4s-11.333 11 -13 19s-0.166992 15.5 4.5 22.5s11 11.167 19 12.5c26 5.33301 55.667 8.66602 89 9.99902
c-0.666992 46.667 -4.66699 139.334 -12 278.001c-6.66699 123.333 -10.667 216.333 -12 279c-27.333 -2.66699 -53.666 -3.66699 -78.999 -3c-8.66699 0 -15.667 3.16699 -21 9.5s-8 13.666 -8 21.999s3.16699 15.166 9.5 20.499s13.5 8 21.5 8zM125.998 830.001
c46.667 -26.667 81.335 -44.332 104.002 -52.999c7.33301 -2.66699 12.666 -7.83398 15.999 -15.501s3.66602 -15.334 0.999023 -23.001s-7.83398 -13.167 -15.501 -16.5s-15.5 -3.66602 -23.5 -0.999023c-25.333 9.33301 -62.666 28.333 -111.999 57
c-7.33301 4 -12 10 -14 18s-1 15.667 3 23s10 12 18 14s15.667 1 23 -3z" />
    <glyph glyph-name="Iacute" unicode="&#xcd;" horiz-adv-x="312" 
d="M47 675c27.333 -1.33301 55.998 0.334961 85.998 5.00195c6 5.33301 13 8 21 8c4.66699 0 9 -1 13 -3c26 4.66699 54.333 11.667 85 21c8 2 15.5 1 22.5 -3s11.667 -10 14 -18s1.5 -15.5 -2.5 -22.5s-10 -11.833 -18 -14.5c-30 -8.66699 -58 -15.667 -84 -21
c0.666992 -62.667 4.66699 -157.334 12 -284.001c7.33301 -127.333 11.333 -220.666 12 -279.999c9.33301 0 23 -0.166992 41 -0.5s31.333 -0.5 40 -0.5c8 0 15 -3 21 -9s9 -13 9 -21s-3 -15 -9 -21s-13 -9 -21 -9c-9.33301 0 -24.166 0.166992 -44.499 0.5
s-35.5 0.5 -45.5 0.5c-6 -6 -13 -9 -21 -9s-14.667 2.66699 -20 8c-32.667 -1.33301 -61.667 -4.33301 -87 -9c-8 -2 -15.5 -0.666992 -22.5 4s-11.333 11 -13 19s-0.166992 15.5 4.5 22.5s11 11.167 19 12.5c26 5.33301 55.667 8.66602 89 9.99902
c-0.666992 46.667 -4.66699 139.334 -12 278.001c-6.66699 123.333 -10.667 216.333 -12 279c-27.333 -2.66699 -53.666 -3.66699 -78.999 -3c-8.66699 0 -15.667 3.16699 -21 9.5s-8 13.666 -8 21.999s3.16699 15.166 9.5 20.499s13.5 8 21.5 8zM64.998 764.001
c12.667 11.333 31.6641 26.667 56.9971 46l51 38c6.66699 5.33301 14.167 7.5 22.5 6.5s15 -4.66699 20 -11s7 -13.666 6 -21.999s-4.5 -14.833 -10.5 -19.5l-51 -39c-24.667 -18.667 -43.667 -33.667 -57 -45c-6 -5.33301 -13.167 -7.66602 -21.5 -6.99902
s-15.166 4.16699 -20.499 10.5s-7.66602 13.666 -6.99902 21.999s4.33398 15.166 11.001 20.499z" />
    <glyph glyph-name="Icircumflex" unicode="&#xce;" horiz-adv-x="334" 
d="M59 675c27.333 -1.33301 55.998 0.334961 85.998 5.00195c6 5.33301 13 8 21 8c4.66699 0 9 -1 13 -3c26 4.66699 54.333 11.667 85 21c8 2 15.5 1 22.5 -3s11.667 -10 14 -18s1.5 -15.5 -2.5 -22.5s-10 -11.833 -18 -14.5c-30 -8.66699 -58 -15.667 -84 -21
c0.666992 -62.667 4.66699 -157.334 12 -284.001c7.33301 -127.333 11.333 -220.666 12 -279.999c9.33301 0 23 -0.166992 41 -0.5s31.333 -0.5 40 -0.5c8 0 15 -3 21 -9s9 -13 9 -21s-3 -15 -9 -21s-13 -9 -21 -9c-9.33301 0 -24.166 0.166992 -44.499 0.5
s-35.5 0.5 -45.5 0.5c-6 -6 -13 -9 -21 -9s-14.667 2.66699 -20 8c-32.667 -1.33301 -61.667 -4.33301 -87 -9c-8 -2 -15.5 -0.666992 -22.5 4s-11.333 11 -13 19s-0.166992 15.5 4.5 22.5s11 11.167 19 12.5c26 5.33301 55.667 8.66602 89 9.99902
c-0.666992 46.667 -4.66699 139.334 -12 278.001c-6.66699 123.333 -10.667 216.333 -12 279c-27.333 -2.66699 -53.666 -3.66699 -78.999 -3c-8.66699 0 -15.667 3.16699 -21 9.5s-8 13.666 -8 21.999s3.16699 15.166 9.5 20.499s13.5 8 21.5 8zM51.998 761.001
c23.333 34.667 38.334 56.333 45.001 65c17.333 20.667 34.666 32 51.999 34c18 2 37.667 -5 59 -21c10 -8 31 -26.667 63 -56c6 -5.33301 9.33301 -12.166 10 -20.499s-1.83301 -15.5 -7.5 -21.5s-12.667 -9.33301 -21 -10s-15.5 2 -21.5 8
c-30.667 28 -50.334 45.333 -59.001 52c-7.33301 5.33301 -12.666 8.33301 -15.999 9c-2.66699 -1.33301 -6.66699 -5.33301 -12 -12s-19.333 -27 -42 -61c-4.66699 -6.66699 -11 -10.834 -19 -12.501s-15.5 -0.166992 -22.5 4.5s-11.333 11 -13 19s-0.166992 15.667 4.5 23
z" />
    <glyph glyph-name="Idieresis" unicode="&#xcf;" horiz-adv-x="328" 
d="M56 675c27.333 -1.33301 55.998 0.334961 85.998 5.00195c6 5.33301 13 8 21 8c4.66699 0 9 -1 13 -3c26 4.66699 54.333 11.667 85 21c8 2 15.5 1 22.5 -3s11.667 -10 14 -18s1.5 -15.5 -2.5 -22.5s-10 -11.833 -18 -14.5c-30 -8.66699 -58 -15.667 -84 -21
c0.666992 -62.667 4.66699 -157.334 12 -284.001c7.33301 -127.333 11.333 -220.666 12 -279.999c9.33301 0 23 -0.166992 41 -0.5s31.333 -0.5 40 -0.5c8 0 15 -3 21 -9s9 -13 9 -21s-3 -15 -9 -21s-13 -9 -21 -9c-9.33301 0 -24.166 0.166992 -44.499 0.5
s-35.5 0.5 -45.5 0.5c-6 -6 -13 -9 -21 -9s-14.667 2.66699 -20 8c-32.667 -1.33301 -61.667 -4.33301 -87 -9c-8 -2 -15.5 -0.666992 -22.5 4s-11.333 11 -13 19s-0.166992 15.5 4.5 22.5s11 11.167 19 12.5c26 5.33301 55.667 8.66602 89 9.99902
c-0.666992 46.667 -4.66699 139.334 -12 278.001c-6.66699 123.333 -10.667 216.333 -12 279c-27.333 -2.66699 -53.666 -3.66699 -78.999 -3c-8.66699 0 -15.667 3.16699 -21 9.5s-8 13.666 -8 21.999s3.16699 15.166 9.5 20.499s13.5 8 21.5 8zM145.998 768.001
c0 -8 -3 -15 -9 -21s-13 -9 -21 -9s-15 3 -21 9s-9 13 -9 21s3 15 9 21s13 9 21 9s15 -3 21 -9s9 -13 9 -21zM229.998 767.001c0 -8 -3 -15 -9 -21s-13 -9 -21 -9s-15 3 -21 9s-9 13 -9 21s3 15 9 21s13 9 21 9s15 -3 21 -9s9 -13 9 -21z" />
    <glyph glyph-name="Eth" unicode="&#xd0;" horiz-adv-x="437" 
d="M162 83c60 68.667 109.996 133.333 149.996 194s65.667 119.667 77 177c16.667 86 -8.66602 142 -75.999 168c-47.333 18 -100.666 17.667 -159.999 -1c0 -16 2 -81.667 6 -197h43c8 0 15 -3 21 -9s9 -13 9 -21s-3 -15 -9 -21s-13 -9 -21 -9h-41v-3
c0.666992 -30.667 0.833984 -77 0.500977 -139s-0.166016 -108.333 0.500977 -139zM146.996 681.999c68 18.667 130.671 17 188.004 -5c44 -16.667 76.667 -45 98 -85c21.333 -40.667 26 -90.667 14 -150c-6 -32 -17.333 -66.167 -34 -102.5
s-33.334 -68.166 -50.001 -95.499s-39.667 -59.5 -69 -96.5s-52 -64.5 -68 -82.5l-68 -77c-5.33301 -6 -12.166 -9.33301 -20.499 -10s-15.5 2 -21.5 8c-2.66699 2 -4.66699 4.33301 -6 7c-4 4.66699 -6 10.334 -6 17.001c-2 44 -2.83301 102.333 -2.5 175
s0.166016 131.334 -0.500977 176.001v1c-20.667 -0.666992 -40.334 -2 -59.001 -4c-8.66699 -0.666992 -16.167 1.66602 -22.5 6.99902s-9.83301 12.166 -10.5 20.499s1.66602 15.666 6.99902 21.999s12 9.83301 20 10.5c20 2 41 3.33301 63 4c-4 113.333 -6 171.333 -6 174
c-14.667 -3.33301 -25.667 1.66699 -33 15c-4 6.66699 -4.83301 14 -2.5 22s7.16602 14 14.499 18c6.66699 4 13.667 7.66699 21 11v3c0 8 3 14.833 9 20.5s13.333 8.5 22 8.5c9.33301 0 17 -4 23 -12z" />
    <glyph glyph-name="Ntilde" unicode="&#xd1;" horiz-adv-x="450" 
d="M60 13c-4 54 -8.00391 130.505 -12.0039 229.505s-7 165.5 -9 199.5c0 1.33301 -0.5 6.83301 -1.5 16.5s-2.16699 22 -3.5 37s-2.33301 28.833 -3 41.5c-2 26 -3.33301 46.333 -4 61v22c0.666992 4.66699 1.33398 8.33398 2.00098 11.001c0.666992 4 2 7.33301 4 10
c6 10.667 15 15.667 27 15c6.66699 0 12.667 -2.33301 18 -7c1.33301 -1.33301 3 -2.66602 5 -3.99902c0.666992 -1.33301 1.66699 -3 3 -5s3 -4.66699 5 -8c2.66699 -5.33301 6 -12.666 10 -21.999l29 -64l42 -95c0.666992 -2.66699 4.33398 -10.334 11.001 -23.001l27 -50
l77 -139l50 -91c0 5.33301 0.333008 32.666 1 81.999c2 157.333 20.667 314.666 56 471.999c1.33301 8.66699 5.5 15.167 12.5 19.5s14.667 5.66602 23 3.99902s14.666 -6 18.999 -13s5.5 -14.5 3.5 -22.5c-34 -154.667 -52 -308 -54 -460
c-0.666992 -54 -0.333984 -94 0.999023 -120c0.666992 -14.667 2.66699 -35.667 6 -63c0.666992 -8.66699 1 -15.334 1 -20.001c-0.666992 -8.66699 -4 -15.667 -10 -21c-9.33301 -10 -20.666 -12.333 -33.999 -7c-2.66699 1.33301 -5 2.66602 -7 3.99902
s-3.33301 2.33301 -4 3l-1 2c-0.666992 0.666992 -1.5 1.66699 -2.5 3s-2.16699 3 -3.5 5l-8 13l-26 45l-76 136l-77 140l-27 50l-14 27l-19 46c1.33301 -16.667 2 -25.667 2 -27c2 -34.667 5 -101.334 9 -200.001s8 -175 12 -229
c0.666992 -8 -1.66602 -15.167 -6.99902 -21.5s-12.166 -9.83301 -20.499 -10.5s-15.666 1.66602 -21.999 6.99902s-9.83301 12.333 -10.5 21zM105.996 715.005c24 40.667 48.3311 65 72.998 73c20.667 7.33301 43.334 3 68.001 -13c20 -12 32.333 -18.667 37 -20
c10 -2.66699 22.333 1.66602 37 12.999c6.66699 4.66699 14 6.5 22 5.5s14.5 -4.83301 19.5 -11.5s7 -14 6 -22s-4.83301 -14.667 -11.5 -20c-29.333 -22.667 -58.333 -30.667 -87 -24c-11.333 2.66699 -29.666 12 -54.999 28c-8.66699 6 -14.667 8.33301 -18 7
c-9.33301 -3.33301 -22.333 -18.666 -39 -45.999c-4.66699 -7.33301 -11 -12 -19 -14s-15.5 -0.833008 -22.5 3.5s-11.5 10.5 -13.5 18.5s-1 15.333 3 22z" />
    <glyph glyph-name="Ograve" unicode="&#xd2;" 
d="M221 637c-24 -4.66699 -47.001 -27.3301 -69.001 -67.9971c-27.333 -50.667 -46 -113.334 -56 -188.001c-10 -76.667 -8 -145.334 6 -206.001c14 -61.333 38.333 -100.333 73 -117c38.667 -18.667 73.334 -12.334 104.001 18.999c28 28.667 48.333 68.667 61 120
c6.66699 28 10 62.667 10 104s-3.66699 84.333 -11 129c-18.667 99.333 -50.667 164.333 -96 195c-6 4 -13.333 8 -22 12zM254.999 687.004c8.66699 -4 15.998 -8.00195 21.998 -12.002c58.667 -40 99 -118 121 -234c8 -47.333 12 -94 12 -140s-4 -85.333 -12 -118
c-15.333 -62 -40.666 -111.333 -75.999 -148c-50.667 -52 -108.334 -62.333 -173.001 -31c-52 25.333 -87 78 -105 158c-16 66 -18.333 141.667 -7 227c10.667 83.333 31.334 153 62.001 209c20.667 36.667 43.667 63.667 69 81c0 4.66699 1 9.33398 3 14.001
c3.33301 7.33301 9 12.333 17 15s15.667 2.33398 23 -0.999023c2.66699 -1.33301 9.33398 -4.33301 20.001 -9h2c8.66699 0 16 -3.66699 22 -11zM149.997 824.002c18 -6.66699 38.9971 -15.665 62.9971 -26.998l59 -29c7.33301 -3.33301 12.333 -8.83301 15 -16.5
s2.33398 -15.334 -0.999023 -23.001s-8.83301 -12.834 -16.5 -15.501s-15.5 -2.33398 -23.5 0.999023l-59 29c-22.667 10.667 -41.667 19 -57 25c-8 2.66699 -13.667 7.83398 -17 15.501s-3.66602 15.334 -0.999023 23.001s7.83398 13.167 15.501 16.5
s15.167 3.66602 22.5 0.999023z" />
    <glyph glyph-name="Oacute" unicode="&#xd3;" 
d="M221 637c-24 -4.66699 -47.001 -27.3301 -69.001 -67.9971c-27.333 -50.667 -46 -113.334 -56 -188.001c-10 -76.667 -8 -145.334 6 -206.001c14 -61.333 38.333 -100.333 73 -117c38.667 -18.667 73.334 -12.334 104.001 18.999c28 28.667 48.333 68.667 61 120
c6.66699 28 10 62.667 10 104s-3.66699 84.333 -11 129c-18.667 99.333 -50.667 164.333 -96 195c-6 4 -13.333 8 -22 12zM254.999 687.004c8.66699 -4 15.998 -8.00195 21.998 -12.002c58.667 -40 99 -118 121 -234c8 -47.333 12 -94 12 -140s-4 -85.333 -12 -118
c-15.333 -62 -40.666 -111.333 -75.999 -148c-50.667 -52 -108.334 -62.333 -173.001 -31c-52 25.333 -87 78 -105 158c-16 66 -18.333 141.667 -7 227c10.667 83.333 31.334 153 62.001 209c20.667 36.667 43.667 63.667 69 81c0 4.66699 1 9.33398 3 14.001
c3.33301 7.33301 9 12.333 17 15s15.667 2.33398 23 -0.999023c2.66699 -1.33301 9.33398 -4.33301 20.001 -9h2c8.66699 0 16 -3.66699 22 -11zM129.997 762.002c46 22.667 87.668 47.332 125.001 73.999c7.33301 5.33301 15 7.33301 23 6s14.5 -5.5 19.5 -12.5
s6.83301 -14.5 5.5 -22.5s-5.33301 -14.333 -12 -19c-40.667 -29.333 -85.667 -56 -135 -80c-7.33301 -3.33301 -14.833 -3.66602 -22.5 -0.999023s-13.334 7.66699 -17.001 15s-4.16699 14.833 -1.5 22.5s7.66699 13.5 15 17.5z" />
    <glyph glyph-name="Ocircumflex" unicode="&#xd4;" 
d="M221 637c-24 -4.66699 -47.001 -27.3301 -69.001 -67.9971c-27.333 -50.667 -46 -113.334 -56 -188.001c-10 -76.667 -8 -145.334 6 -206.001c14 -61.333 38.333 -100.333 73 -117c38.667 -18.667 73.334 -12.334 104.001 18.999c28 28.667 48.333 68.667 61 120
c6.66699 28 10 62.667 10 104s-3.66699 84.333 -11 129c-18.667 99.333 -50.667 164.333 -96 195c-6 4 -13.333 8 -22 12zM254.999 687.004c8.66699 -4 15.998 -8.00195 21.998 -12.002c58.667 -40 99 -118 121 -234c8 -47.333 12 -94 12 -140s-4 -85.333 -12 -118
c-15.333 -62 -40.666 -111.333 -75.999 -148c-50.667 -52 -108.334 -62.333 -173.001 -31c-52 25.333 -87 78 -105 158c-16 66 -18.333 141.667 -7 227c10.667 83.333 31.334 153 62.001 209c20.667 36.667 43.667 63.667 69 81c0 4.66699 1 9.33398 3 14.001
c3.33301 7.33301 9 12.333 17 15s15.667 2.33398 23 -0.999023c2.66699 -1.33301 9.33398 -4.33301 20.001 -9h2c8.66699 0 16 -3.66699 22 -11zM103.997 746.002c29.333 36.667 51.667 61.667 67 75c24 20.667 46.667 28.334 68 23.001
c17.333 -4.66699 35.666 -19 54.999 -43c5.33301 -6.66699 14.333 -18.667 27 -36l29 -39c4.66699 -6.66699 6.5 -14 5.5 -22s-4.83301 -14.5 -11.5 -19.5s-14 -7 -22 -6s-14.667 4.83301 -20 11.5l-29 38c-12 16.667 -20.667 28.334 -26 35.001
c-10.667 13.333 -18 20.666 -22 21.999c-3.33301 -0.666992 -8.33301 -3.66699 -15 -9c-12 -10.667 -32 -33.334 -60 -68.001c-4.66699 -6 -11.167 -9.5 -19.5 -10.5s-15.666 1 -21.999 6s-10 11.667 -11 20s1.16699 15.833 6.5 22.5z" />
    <glyph glyph-name="Otilde" unicode="&#xd5;" 
d="M221 637c-24 -4.66699 -47.001 -27.3301 -69.001 -67.9971c-27.333 -50.667 -46 -113.334 -56 -188.001c-10 -76.667 -8 -145.334 6 -206.001c14 -61.333 38.333 -100.333 73 -117c38.667 -18.667 73.334 -12.334 104.001 18.999c28 28.667 48.333 68.667 61 120
c6.66699 28 10 62.667 10 104s-3.66699 84.333 -11 129c-18.667 99.333 -50.667 164.333 -96 195c-6 4 -13.333 8 -22 12zM254.999 687.004c8.66699 -4 15.998 -8.00195 21.998 -12.002c58.667 -40 99 -118 121 -234c8 -47.333 12 -94 12 -140s-4 -85.333 -12 -118
c-15.333 -62 -40.666 -111.333 -75.999 -148c-50.667 -52 -108.334 -62.333 -173.001 -31c-52 25.333 -87 78 -105 158c-16 66 -18.333 141.667 -7 227c10.667 83.333 31.334 153 62.001 209c20.667 36.667 43.667 63.667 69 81c0 4.66699 1 9.33398 3 14.001
c3.33301 7.33301 9 12.333 17 15s15.667 2.33398 23 -0.999023c2.66699 -1.33301 9.33398 -4.33301 20.001 -9h2c8.66699 0 16 -3.66699 22 -11zM95.9971 785.002c30 20 57.999 30 83.999 30c17.333 0 37 -5.33301 59 -16c15.333 -8 25.666 -12 30.999 -12
c8.66699 -1.33301 19.334 2.66699 32.001 12c7.33301 5.33301 15 7.33301 23 6s14.5 -5.5 19.5 -12.5s6.83301 -14.5 5.5 -22.5s-5.33301 -14.333 -12 -19c-25.333 -18.667 -50 -26.667 -74 -24c-12 1.33301 -29 7.33301 -51 18c-13.333 6.66699 -24.333 10 -33 10
c-14 0 -30.667 -6.66699 -50 -20c-7.33301 -4.66699 -15 -6.16699 -23 -4.5s-14.333 6 -19 13s-6.16699 14.5 -4.5 22.5s5.83398 14.333 12.501 19z" />
    <glyph glyph-name="Odieresis" unicode="&#xd6;" 
d="M221 637c-24 -4.66699 -47.001 -27.3301 -69.001 -67.9971c-27.333 -50.667 -46 -113.334 -56 -188.001c-10 -76.667 -8 -145.334 6 -206.001c14 -61.333 38.333 -100.333 73 -117c38.667 -18.667 73.334 -12.334 104.001 18.999c28 28.667 48.333 68.667 61 120
c6.66699 28 10 62.667 10 104s-3.66699 84.333 -11 129c-18.667 99.333 -50.667 164.333 -96 195c-6 4 -13.333 8 -22 12zM254.999 687.004c8.66699 -4 15.998 -8.00195 21.998 -12.002c58.667 -40 99 -118 121 -234c8 -47.333 12 -94 12 -140s-4 -85.333 -12 -118
c-15.333 -62 -40.666 -111.333 -75.999 -148c-50.667 -52 -108.334 -62.333 -173.001 -31c-52 25.333 -87 78 -105 158c-16 66 -18.333 141.667 -7 227c10.667 83.333 31.334 153 62.001 209c20.667 36.667 43.667 63.667 69 81c0 4.66699 1 9.33398 3 14.001
c3.33301 7.33301 9 12.333 17 15s15.667 2.33398 23 -0.999023c2.66699 -1.33301 9.33398 -4.33301 20.001 -9h2c8.66699 0 16 -3.66699 22 -11zM178.997 780.002c0 -8 -3 -15 -9 -21s-13 -9 -21 -9s-15 3 -21 9s-9 13 -9 21s3 15 9 21s13 9 21 9s15 -3 21 -9s9 -13 9 -21z
M274.997 779.002c0 -8 -3 -15 -9 -21s-13 -9 -21 -9s-15 3 -21 9s-9 13 -9 21s3 15 9 21s13 9 21 9s15 -3 21 -9s9 -13 9 -21z" />
    <glyph glyph-name="multiply" unicode="&#xd7;" horiz-adv-x="331" 
d="M154 330c-36.667 38 -64.6631 69.0029 -83.9961 93.0029c-4.66699 6.66699 -6.5 14.167 -5.5 22.5s4.66699 15 11 20s13.666 7 21.999 6s15.166 -4.5 20.499 -10.5c18 -23.333 43.333 -52 76 -86l69 79c5.33301 6 12.166 9.33301 20.499 10s15.5 -1.83301 21.5 -7.5
s9.33301 -12.667 10 -21s-2 -15.5 -8 -21.5l-72 -83c39.333 -41.333 69.666 -77.333 90.999 -108c5.33301 -6.66699 7.33301 -14 6 -22s-5.5 -14.5 -12.5 -19.5s-14.5 -6.83301 -22.5 -5.5s-14.333 5.66602 -19 12.999c-20 27.333 -47.667 59.666 -83 96.999
c-36 -38.667 -71 -70.334 -105 -95.001c-6.66699 -4.66699 -14.167 -6.5 -22.5 -5.5s-14.833 4.83301 -19.5 11.5s-6.5 14.167 -5.5 22.5s4.83301 14.833 11.5 19.5c32 24 65.333 54.333 100 91z" />
    <glyph glyph-name="Oslash" unicode="&#xd8;" 
d="M342 411c-80.667 -102.667 -158.668 -188.999 -234.001 -258.999c15.333 -48 37.666 -79.333 66.999 -94c38.667 -18.667 73.334 -12.334 104.001 18.999c28 28.667 48.333 68.667 61 120c14.667 58.667 15.334 130 2.00098 214zM324.999 487.001
c-20 68.667 -47.333 114.67 -82 138.003c-6 4 -13.333 8 -22 12c-24 -4.66699 -47 -27.334 -69 -68.001c-27.333 -50.667 -46 -113.334 -56 -188.001c-7.33301 -56.667 -8 -109.667 -2 -159c72.667 70.667 148.667 157.667 228 261
c1.33301 1.33301 2.33301 2.66602 3 3.99902zM254.999 687.004c8.66699 -4 15.998 -8.00195 21.998 -12.002c58.667 -40 99 -118 121 -234c8 -47.333 12 -94 12 -140s-4 -85.333 -12 -118c-15.333 -62 -40.666 -111.333 -75.999 -148
c-50.667 -52 -108.334 -62.333 -173.001 -31c-52 25.333 -87 78 -105 158c-16 66 -18.333 141.667 -7 227c10.667 83.333 31.334 153 62.001 209c20.667 36.667 43.667 63.667 69 81c0 4.66699 1 9.33398 3 14.001c3.33301 7.33301 9 12.333 17 15
s15.667 2.33398 23 -0.999023c2.66699 -1.33301 9.33398 -4.33301 20.001 -9h2c8.66699 0 16 -3.66699 22 -11z" />
    <glyph glyph-name="Ugrave" unicode="&#xd9;" horiz-adv-x="381" 
d="M107 675c-5.33301 -34.667 -8.66504 -82.333 -9.99805 -143c-1.33301 -63.333 0.666992 -133.333 6 -210c7.33301 -80 19 -144.333 35 -193c16.667 -50.667 36.334 -79.667 59.001 -87c15.333 -5.33301 30.333 1.33398 45 20.001c12 16.667 23.667 40.667 35 72
c19.333 56 33.666 143.667 42.999 263s9.66602 211 0.999023 275c-0.666992 8 1.5 15.333 6.5 22s11.5 10.5 19.5 11.5s15.333 -1 22 -6s10.667 -11.5 12 -19.5c8.66699 -68.667 8 -164.667 -2 -288c-9.33301 -123.333 -24.666 -216 -45.999 -278
c-12.667 -38 -27.334 -67.667 -44.001 -89c-31.333 -40.667 -68 -54.334 -110 -41.001c-42 14 -74.667 56 -98 126c-18 54 -30.667 122.667 -38 206c-5.33301 78.667 -7.33301 150.834 -6 216.501s4.66602 116.5 9.99902 152.5c1.33301 8 5.33301 14.5 12 19.5
s14.167 6.83301 22.5 5.5s15 -5.33301 20 -12s6.83301 -14.334 5.5 -23.001zM156.001 808.001c63.333 -50.667 105.999 -83.3311 127.999 -97.998c6.66699 -4.66699 10.834 -11.167 12.501 -19.5s0.166992 -15.833 -4.5 -22.5s-11.167 -10.834 -19.5 -12.501
s-15.833 -0.166992 -22.5 4.5c-25.333 17.333 -69.333 51.333 -132 102c-6 4.66699 -9.5 11.167 -10.5 19.5s1 15.666 6 21.999s11.667 10 20 11s15.833 -1.16699 22.5 -6.5z" />
    <glyph glyph-name="Uacute" unicode="&#xda;" horiz-adv-x="396" 
d="M107 675c-5.33301 -34.667 -8.66504 -82.333 -9.99805 -143c-1.33301 -63.333 0.666992 -133.333 6 -210c7.33301 -80 19 -144.333 35 -193c16.667 -50.667 36.334 -79.667 59.001 -87c15.333 -5.33301 30.333 1.33398 45 20.001c12 16.667 23.667 40.667 35 72
c19.333 56 33.666 143.667 42.999 263s9.66602 211 0.999023 275c-0.666992 8 1.5 15.333 6.5 22s11.5 10.5 19.5 11.5s15.333 -1 22 -6s10.667 -11.5 12 -19.5c8.66699 -68.667 8 -164.667 -2 -288c-9.33301 -123.333 -24.666 -216 -45.999 -278
c-12.667 -38 -27.334 -67.667 -44.001 -89c-31.333 -40.667 -68 -54.334 -110 -41.001c-42 14 -74.667 56 -98 126c-18 54 -30.667 122.667 -38 206c-5.33301 78.667 -7.33301 150.834 -6 216.501s4.66602 116.5 9.99902 152.5c1.33301 8 5.33301 14.5 12 19.5
s14.167 6.83301 22.5 5.5s15 -5.33301 20 -12s6.83301 -14.334 5.5 -23.001zM152.001 717.001l57.002 55.9971c22.667 22 40 40.333 52 55c5.33301 6.66699 12.166 10.334 20.499 11.001s15.666 -1.66602 21.999 -6.99902s9.83301 -12.166 10.5 -20.499
s-1.66602 -15.5 -6.99902 -21.5c-14.667 -17.333 -33.334 -37.333 -56.001 -60l-57 -55c-6 -6 -13 -9 -21 -9s-15 3 -21 9s-9 13 -9 21s3 15 9 21z" />
    <glyph glyph-name="Ucircumflex" unicode="&#xdb;" horiz-adv-x="384" 
d="M110 675c-5.33301 -34.667 -8.66504 -82.333 -9.99805 -143c-1.33301 -63.333 0.666992 -133.333 6 -210c7.33301 -80 19 -144.333 35 -193c16.667 -50.667 36.334 -79.667 59.001 -87c15.333 -5.33301 30.333 1.33398 45 20.001c12 16.667 23.667 40.667 35 72
c19.333 56 33.666 143.667 42.999 263s9.66602 211 0.999023 275c-0.666992 8 1.5 15.333 6.5 22s11.5 10.5 19.5 11.5s15.333 -1 22 -6s10.667 -11.5 12 -19.5c8.66699 -68.667 8 -164.667 -2 -288c-9.33301 -123.333 -24.666 -216 -45.999 -278
c-12.667 -38 -27.334 -67.667 -44.001 -89c-31.333 -40.667 -68 -54.334 -110 -41.001c-42 14 -74.667 56 -98 126c-18 54 -30.667 122.667 -38 206c-5.33301 78.667 -7.33301 150.834 -6 216.501s4.66602 116.5 9.99902 152.5c1.33301 8 5.33301 14.5 12 19.5
s14.167 6.83301 22.5 5.5s15 -5.33301 20 -12s6.83301 -14.334 5.5 -23.001zM116.001 748.001c30.667 40 45.999 60.334 45.999 61.001c17.333 20 34 30.333 50 31c16 0 33 -9.33301 51 -28c4.66699 -4.66699 12.667 -13.334 24 -26.001l27 -31
c6 -6 8.66699 -13.167 8 -21.5s-4 -15.333 -10 -21s-13.167 -8.16699 -21.5 -7.5s-15.166 4 -20.499 10l-26 29c-11.333 12.667 -19.333 21.334 -24 26.001c-2 2.66699 -4 4.66699 -6 6c-2 -1.33301 -4 -3 -6 -5c-3.33301 -4 -7 -8.83301 -11 -14.5
s-9.33301 -12.834 -16 -21.501l-17 -23c-5.33301 -6.66699 -12 -10.5 -20 -11.5s-15.333 1 -22 6s-10.5 11.5 -11.5 19.5s0.833008 15.333 5.5 22z" />
    <glyph glyph-name="Udieresis" unicode="&#xdc;" horiz-adv-x="406" 
d="M117 675c-5.33301 -34.667 -8.66504 -82.333 -9.99805 -143c-1.33301 -63.333 0.666992 -133.333 6 -210c7.33301 -80 19 -144.333 35 -193c16.667 -50.667 36.334 -79.667 59.001 -87c15.333 -5.33301 30.333 1.33398 45 20.001c12 16.667 23.667 40.667 35 72
c19.333 56 33.666 143.667 42.999 263s9.66602 211 0.999023 275c-0.666992 8 1.5 15.333 6.5 22s11.5 10.5 19.5 11.5s15.333 -1 22 -6s10.667 -11.5 12 -19.5c8.66699 -68.667 8 -164.667 -2 -288c-9.33301 -123.333 -24.666 -216 -45.999 -278
c-12.667 -38 -27.334 -67.667 -44.001 -89c-31.333 -40.667 -68 -54.334 -110 -41.001c-42 14 -74.667 56 -98 126c-18 54 -30.667 122.667 -38 206c-5.33301 78.667 -7.33301 150.834 -6 216.501s4.66602 116.5 9.99902 152.5c1.33301 8 5.33301 14.5 12 19.5
s14.167 6.83301 22.5 5.5s15 -5.33301 20 -12s6.83301 -14.334 5.5 -23.001zM202.001 754.001c0 -8 -3 -15 -9 -21s-13 -9 -21 -9s-15 3 -21 9s-9 13 -9 21s3 15 9 21s13 9 21 9s15 -3 21 -9s9 -13 9 -21zM298.001 754.001c0 -8 -3 -15 -9 -21s-13 -9 -21 -9s-15 3 -21 9
s-9 13 -9 21s3 15 9 21s13 9 21 9s15 -3 21 -9s9 -13 9 -21z" />
    <glyph glyph-name="Yacute" unicode="&#xdd;" horiz-adv-x="362" 
d="M363 681c-7.33301 -22.667 -18.8369 -56.1689 -34.5039 -100.502s-29.167 -84 -40.5 -119s-21.333 -68.833 -30 -101.5c-3.33301 -12 -6.5 -24.167 -9.5 -36.5s-5.83301 -26 -8.5 -41s-5 -27.333 -7 -37s-4.33301 -23.5 -7 -41.5l-6 -38
c-1.33301 -6 -3.5 -19.833 -6.5 -41.5s-4.83301 -34.167 -5.5 -37.5s-2.66699 -17.5 -6 -42.5s-5 -37.833 -5 -38.5c-1.33301 -8 -5.33301 -14.5 -12 -19.5s-14 -7 -22 -6s-14.5 4.83301 -19.5 11.5s-7.16699 14 -6.5 22c16.667 122.667 30 208.667 40 258
c-3.33301 33.333 -10.666 68.5 -21.999 105.5s-22.333 67.833 -33 92.5l-46 104c-20 43.333 -34.667 76 -44 98c-2.66699 8 -2.5 15.833 0.5 23.5s8.33301 13 16 16s15.334 3 23.001 0s13.167 -8.16699 16.5 -15.5c8 -20 21 -49.167 39 -87.5s33.833 -73.833 47.5 -106.5
s25.167 -64 34.5 -94c8 28.667 17.667 59.334 29 92.001l36 108l33 91c2 8 6.83301 13.833 14.5 17.5s15.334 4.33398 23.001 2.00098s13.334 -7.33301 17.001 -15s4.16699 -15.167 1.5 -22.5zM129.996 745.998c13.333 12.667 45.0029 39.667 95.0029 81
c6 5.33301 13.167 7.66602 21.5 6.99902s15.166 -4.16699 20.499 -10.5s7.66602 -13.666 6.99902 -21.999s-4.33398 -15.166 -11.001 -20.499c-48.667 -40.667 -79.667 -67 -93 -79c-6 -6 -13.167 -8.66699 -21.5 -8s-15.333 4 -21 10s-8.16699 13.167 -7.5 21.5
s4 15.166 10 20.499z" />
    <glyph glyph-name="Thorn" unicode="&#xde;" horiz-adv-x="359" 
d="M79 408c1.33301 -73.333 2 -161.999 2 -265.999c53.333 41.333 95.666 77 126.999 107c66 63.333 102 116.666 108 159.999c7.33301 51.333 -4.16699 86.333 -34.5 105s-67.166 14 -110.499 -14c-33.333 -21.333 -64 -52 -92 -92zM81 66.001l0.00195312 -157.998
c0 -8 -3 -15 -9 -21s-13 -9 -21 -9s-15 3 -21 9s-9 13 -9 21v148v168c0 31.333 -0.333008 78.333 -1 141s-1.83398 118.667 -3.50098 168s-3.83398 98.666 -6.50098 147.999c-0.666992 8.66699 1.83301 16 7.5 22s12.667 9.33301 21 10s15.5 -1.83301 21.5 -7.5
s9.33301 -12.5 10 -20.5c3.33301 -58 5.66602 -119.333 6.99902 -184c18 18 38.667 34.333 62 49c30 19.333 60.333 30.333 91 33s58.334 -3.33301 83.001 -18c24.667 -15.333 42.5 -37.333 53.5 -66s14.167 -61.334 9.5 -98.001c-8 -56.667 -50.333 -121.667 -127 -195
c-30.667 -30 -86.667 -76.667 -168 -140z" />
    <glyph glyph-name="germandbls" unicode="&#xdf;" horiz-adv-x="431" 
d="M56 21c4.66699 65.333 5.67188 118.332 3.00488 158.999c-0.666992 13.333 -4.5 50.166 -11.5 110.499s-10.167 110.833 -9.5 151.5c1.33301 40 7.66602 79.333 18.999 118c6 20.667 15.5 41.834 28.5 63.501s28.167 39.834 45.5 54.501c22 18.667 45 29.667 69 33
c28 3.33301 55 -5 81 -25c43.333 -32.667 60.666 -79.334 51.999 -140.001c-6 -44.667 -24 -88 -54 -130c-1.33301 -1.33301 -2.66602 -3 -3.99902 -5c49.333 -0.666992 90 -18.667 122 -54c34 -37.333 51.333 -86 52 -146c0.666992 -51.333 -12.333 -95.666 -39 -132.999
s-59.334 -63 -98.001 -77c-40 -15.333 -75.333 -15 -106 1c-35.333 18 -53 50.667 -53 98c0 8 3 15 9 21s13 9 21 9s15 -3 21 -9s9 -13 9 -21c0 -22.667 7 -37.667 21 -45c14.667 -7.33301 33.667 -6.66602 57 2.00098c27.333 10 50.666 28.5 69.999 55.5
s28.666 59.833 27.999 98.5c-0.666992 44 -13 79.333 -37 106s-56.667 37.667 -98 33l-2 -1c-2.66699 -1.33301 -6.66699 -3 -12 -5c-20.667 -9.33301 -38 -8 -52 4c-14.667 13.333 -16.667 29.333 -6 48c2.66699 5.33301 8 12.333 16 21c19.333 20 30.333 31.667 33 35
c24 33.333 38.333 67.333 43 102c4.66699 37.333 -5 65.333 -29 84c-13.333 10 -26 14.333 -38 13s-24.333 -7.33301 -37 -18c-26 -22.667 -44.333 -52.334 -55 -89.001c-10.667 -35.333 -16.334 -70.666 -17.001 -105.999s2.33301 -81.333 9 -138
s10.667 -95.334 12 -116.001c2.66699 -43.333 1.66699 -99 -3 -167c-0.666992 -8 -4.16699 -14.833 -10.5 -20.5s-13.5 -8.16699 -21.5 -7.5s-14.833 4.16699 -20.5 10.5s-8.16699 13.5 -7.5 21.5z" />
    <glyph glyph-name="agrave" unicode="&#xe0;" horiz-adv-x="445" 
d="M311 331l-6.00195 -7.00098c-11.333 -12 -29.666 -30 -54.999 -54l-51 -48c-41.333 -40.667 -68.666 -73.667 -81.999 -99c-14.667 -27.333 -15.667 -49 -3 -65c2.66699 -3.33301 9 -6.33301 19 -9c16 -4 33 1.33301 51 16c18 15.333 36.333 39.333 55 72
c31.333 54.667 54 112.667 68 174c2.66699 10.667 4 17.334 4 20.001zM103.998 423.999c7.33301 6.66699 23.9961 16.332 49.9961 28.999c24.667 12.667 49.667 23 75 31c34 11.333 61.667 15 83 11c16.667 -2.66699 30 -9.66699 40 -21
c10 -12.667 14.667 -28.334 14 -47.001c0 -3.33301 -0.333008 -6.66602 -1 -9.99902c2 -1.33301 3.66699 -3 5 -5c2.66699 -2.66699 4.66699 -6 6 -10c0.666992 -2 1.33398 -4.66699 2.00098 -8c0.666992 -4 1.33398 -9.33301 2.00098 -16
c0.666992 -9.33301 1.33398 -22.666 2.00098 -39.999c0 -8.66699 0.166992 -18 0.5 -28s0.666016 -18.167 0.999023 -24.5s0.5 -9.83301 0.5 -10.5c8.66699 -105.333 26 -187.333 52 -246c2.66699 -7.33301 2.5 -15 -0.5 -23s-8.16699 -13.5 -15.5 -16.5s-15 -3 -23 0
s-13.667 8.16699 -17 15.5c-22 52 -38 115 -48 189c-12.667 -31.333 -26.334 -60.333 -41.001 -87c-22 -39.333 -45 -69 -69 -89c-33.333 -26.667 -67.666 -35.667 -102.999 -27c-24 6 -41.667 16.333 -53 31c-28 36.667 -28.667 79.667 -2 129
c16.667 30.667 47.667 68.667 93 114l50 47l55 54c28.667 30 43.334 51 44.001 63v6c-1.33301 0.666992 -2.66602 1 -3.99902 1c-12 2 -30.333 -1 -55 -9c-14.667 -4.66699 -30.334 -11 -47.001 -19c-16.667 -7.33301 -29.834 -13.666 -39.501 -18.999
s-15.834 -9 -18.501 -11c-6 -5.33301 -13.167 -7.66602 -21.5 -6.99902s-15.166 4.16699 -20.499 10.5s-7.66602 13.666 -6.99902 21.999s4.33398 15.166 11.001 20.499zM197.994 687.997c66 -53.333 113.669 -89.335 143.002 -108.002
c7.33301 -4.66699 11.833 -11 13.5 -19s0.166992 -15.5 -4.5 -22.5s-11 -11.333 -19 -13s-15.333 -0.166992 -22 4.5c-34.667 22.667 -84.334 60 -149.001 112c-6.66699 4.66699 -10.334 11.167 -11.001 19.5s1.5 15.833 6.5 22.5s11.667 10.334 20 11.001
s15.833 -1.66602 22.5 -6.99902z" />
    <glyph glyph-name="aacute" unicode="&#xe1;" horiz-adv-x="445" 
d="M311 331l-6.00195 -7.00098c-11.333 -12 -29.666 -30 -54.999 -54l-51 -48c-41.333 -40.667 -68.666 -73.667 -81.999 -99c-14.667 -27.333 -15.667 -49 -3 -65c2.66699 -3.33301 9 -6.33301 19 -9c16 -4 33 1.33301 51 16c18 15.333 36.333 39.333 55 72
c31.333 54.667 54 112.667 68 174c2.66699 10.667 4 17.334 4 20.001zM103.998 423.999c7.33301 6.66699 23.9961 16.332 49.9961 28.999c24.667 12.667 49.667 23 75 31c34 11.333 61.667 15 83 11c16.667 -2.66699 30 -9.66699 40 -21
c10 -12.667 14.667 -28.334 14 -47.001c0 -3.33301 -0.333008 -6.66602 -1 -9.99902c2 -1.33301 3.66699 -3 5 -5c2.66699 -2.66699 4.66699 -6 6 -10c0.666992 -2 1.33398 -4.66699 2.00098 -8c0.666992 -4 1.33398 -9.33301 2.00098 -16
c0.666992 -9.33301 1.33398 -22.666 2.00098 -39.999c0 -8.66699 0.166992 -18 0.5 -28s0.666016 -18.167 0.999023 -24.5s0.5 -9.83301 0.5 -10.5c8.66699 -105.333 26 -187.333 52 -246c2.66699 -7.33301 2.5 -15 -0.5 -23s-8.16699 -13.5 -15.5 -16.5s-15 -3 -23 0
s-13.667 8.16699 -17 15.5c-22 52 -38 115 -48 189c-12.667 -31.333 -26.334 -60.333 -41.001 -87c-22 -39.333 -45 -69 -69 -89c-33.333 -26.667 -67.666 -35.667 -102.999 -27c-24 6 -41.667 16.333 -53 31c-28 36.667 -28.667 79.667 -2 129
c16.667 30.667 47.667 68.667 93 114l50 47l55 54c28.667 30 43.334 51 44.001 63v6c-1.33301 0.666992 -2.66602 1 -3.99902 1c-12 2 -30.333 -1 -55 -9c-14.667 -4.66699 -30.334 -11 -47.001 -19c-16.667 -7.33301 -29.834 -13.666 -39.501 -18.999
s-15.834 -9 -18.501 -11c-6 -5.33301 -13.167 -7.66602 -21.5 -6.99902s-15.166 4.16699 -20.499 10.5s-7.66602 13.666 -6.99902 21.999s4.33398 15.166 11.001 20.499zM162.994 557.997c37.333 24.667 81.999 62.666 133.999 113.999c6 5.33301 13.167 8 21.5 8
s15.333 -3 21 -9s8.5 -13.167 8.5 -21.5s-3 -15.5 -9 -21.5c-54.667 -52.667 -102 -92.667 -142 -120c-6.66699 -4.66699 -14.167 -6.16699 -22.5 -4.5s-14.833 5.83398 -19.5 12.501s-6.16699 14.167 -4.5 22.5s5.83398 14.833 12.501 19.5z" />
    <glyph glyph-name="acircumflex" unicode="&#xe2;" horiz-adv-x="445" 
d="M311 331l-6.00195 -7.00098c-11.333 -12 -29.666 -30 -54.999 -54l-51 -48c-41.333 -40.667 -68.666 -73.667 -81.999 -99c-14.667 -27.333 -15.667 -49 -3 -65c2.66699 -3.33301 9 -6.33301 19 -9c16 -4 33 1.33301 51 16c18 15.333 36.333 39.333 55 72
c31.333 54.667 54 112.667 68 174c2.66699 10.667 4 17.334 4 20.001zM103.998 423.999c7.33301 6.66699 23.9961 16.332 49.9961 28.999c24.667 12.667 49.667 23 75 31c34 11.333 61.667 15 83 11c16.667 -2.66699 30 -9.66699 40 -21
c10 -12.667 14.667 -28.334 14 -47.001c0 -3.33301 -0.333008 -6.66602 -1 -9.99902c2 -1.33301 3.66699 -3 5 -5c2.66699 -2.66699 4.66699 -6 6 -10c0.666992 -2 1.33398 -4.66699 2.00098 -8c0.666992 -4 1.33398 -9.33301 2.00098 -16
c0.666992 -9.33301 1.33398 -22.666 2.00098 -39.999c0 -8.66699 0.166992 -18 0.5 -28s0.666016 -18.167 0.999023 -24.5s0.5 -9.83301 0.5 -10.5c8.66699 -105.333 26 -187.333 52 -246c2.66699 -7.33301 2.5 -15 -0.5 -23s-8.16699 -13.5 -15.5 -16.5s-15 -3 -23 0
s-13.667 8.16699 -17 15.5c-22 52 -38 115 -48 189c-12.667 -31.333 -26.334 -60.333 -41.001 -87c-22 -39.333 -45 -69 -69 -89c-33.333 -26.667 -67.666 -35.667 -102.999 -27c-24 6 -41.667 16.333 -53 31c-28 36.667 -28.667 79.667 -2 129
c16.667 30.667 47.667 68.667 93 114l50 47l55 54c28.667 30 43.334 51 44.001 63v6c-1.33301 0.666992 -2.66602 1 -3.99902 1c-12 2 -30.333 -1 -55 -9c-14.667 -4.66699 -30.334 -11 -47.001 -19c-16.667 -7.33301 -29.834 -13.666 -39.501 -18.999
s-15.834 -9 -18.501 -11c-6 -5.33301 -13.167 -7.66602 -21.5 -6.99902s-15.166 4.16699 -20.499 10.5s-7.66602 13.666 -6.99902 21.999s4.33398 15.166 11.001 20.499zM134.994 571.997c13.333 14 34.3311 37.666 62.998 70.999c8.66699 10.667 15.667 18.334 21 23.001
c10 8.66699 20 14 30 16c18.667 3.33301 38 -7 58 -31c5.33301 -5.33301 14.5 -16.666 27.5 -33.999s23.5 -30.666 31.5 -39.999c4.66699 -6.66699 6.5 -14.167 5.5 -22.5s-4.66699 -15 -11 -20s-13.666 -7 -21.999 -6s-15.166 4.5 -20.499 10.5l-30 40l-26 34
c-2 2 -4 3.66699 -6 5c-2.66699 -2.66699 -6.66699 -7.33398 -12 -14.001c-29.333 -34.667 -51 -59.334 -65 -74.001c-6 -6 -13.167 -9 -21.5 -9s-15.5 2.83301 -21.5 8.5s-9 12.667 -9 21s2.66699 15.5 8 21.5z" />
    <glyph glyph-name="atilde" unicode="&#xe3;" horiz-adv-x="445" 
d="M311 331l-6.00195 -7.00098c-11.333 -12 -29.666 -30 -54.999 -54l-51 -48c-41.333 -40.667 -68.666 -73.667 -81.999 -99c-14.667 -27.333 -15.667 -49 -3 -65c2.66699 -3.33301 9 -6.33301 19 -9c16 -4 33 1.33301 51 16c18 15.333 36.333 39.333 55 72
c31.333 54.667 54 112.667 68 174c2.66699 10.667 4 17.334 4 20.001zM103.998 423.999c7.33301 6.66699 23.9961 16.332 49.9961 28.999c24.667 12.667 49.667 23 75 31c34 11.333 61.667 15 83 11c16.667 -2.66699 30 -9.66699 40 -21
c10 -12.667 14.667 -28.334 14 -47.001c0 -3.33301 -0.333008 -6.66602 -1 -9.99902c2 -1.33301 3.66699 -3 5 -5c2.66699 -2.66699 4.66699 -6 6 -10c0.666992 -2 1.33398 -4.66699 2.00098 -8c0.666992 -4 1.33398 -9.33301 2.00098 -16
c0.666992 -9.33301 1.33398 -22.666 2.00098 -39.999c0 -8.66699 0.166992 -18 0.5 -28s0.666016 -18.167 0.999023 -24.5s0.5 -9.83301 0.5 -10.5c8.66699 -105.333 26 -187.333 52 -246c2.66699 -7.33301 2.5 -15 -0.5 -23s-8.16699 -13.5 -15.5 -16.5s-15 -3 -23 0
s-13.667 8.16699 -17 15.5c-22 52 -38 115 -48 189c-12.667 -31.333 -26.334 -60.333 -41.001 -87c-22 -39.333 -45 -69 -69 -89c-33.333 -26.667 -67.666 -35.667 -102.999 -27c-24 6 -41.667 16.333 -53 31c-28 36.667 -28.667 79.667 -2 129
c16.667 30.667 47.667 68.667 93 114l50 47l55 54c28.667 30 43.334 51 44.001 63v6c-1.33301 0.666992 -2.66602 1 -3.99902 1c-12 2 -30.333 -1 -55 -9c-14.667 -4.66699 -30.334 -11 -47.001 -19c-16.667 -7.33301 -29.834 -13.666 -39.501 -18.999
s-15.834 -9 -18.501 -11c-6 -5.33301 -13.167 -7.66602 -21.5 -6.99902s-15.166 4.16699 -20.499 10.5s-7.66602 13.666 -6.99902 21.999s4.33398 15.166 11.001 20.499zM133.994 579.997c24 45.333 50.6641 68.665 79.9971 69.998c18.667 1.33301 41 -9 67 -31
c15.333 -12.667 25.333 -19.334 30 -20.001c0.666992 0 1.66699 0.166992 3 0.5s4.66602 3 9.99902 8s11 12.167 17 21.5c4 7.33301 10 11.833 18 13.5s15.5 0.333984 22.5 -3.99902s11.5 -10.5 13.5 -18.5s0.666992 -15.667 -4 -23
c-25.333 -41.333 -53.666 -60.666 -84.999 -57.999c-17.333 1.33301 -38.666 13 -63.999 35c-13.333 11.333 -21.666 16.666 -24.999 15.999c-8 -3.33301 -17.667 -16 -29 -38c-4 -7.33301 -10 -12.166 -18 -14.499s-15.667 -1.66602 -23 2.00098s-12.166 9.5 -14.499 17.5
s-1.83301 15.667 1.5 23z" />
    <glyph glyph-name="adieresis" unicode="&#xe4;" horiz-adv-x="445" 
d="M311 331l-6.00195 -7.00098c-11.333 -12 -29.666 -30 -54.999 -54l-51 -48c-41.333 -40.667 -68.666 -73.667 -81.999 -99c-14.667 -27.333 -15.667 -49 -3 -65c2.66699 -3.33301 9 -6.33301 19 -9c16 -4 33 1.33301 51 16c18 15.333 36.333 39.333 55 72
c31.333 54.667 54 112.667 68 174c2.66699 10.667 4 17.334 4 20.001zM103.998 423.999c7.33301 6.66699 23.9961 16.332 49.9961 28.999c24.667 12.667 49.667 23 75 31c34 11.333 61.667 15 83 11c16.667 -2.66699 30 -9.66699 40 -21
c10 -12.667 14.667 -28.334 14 -47.001c0 -3.33301 -0.333008 -6.66602 -1 -9.99902c2 -1.33301 3.66699 -3 5 -5c2.66699 -2.66699 4.66699 -6 6 -10c0.666992 -2 1.33398 -4.66699 2.00098 -8c0.666992 -4 1.33398 -9.33301 2.00098 -16
c0.666992 -9.33301 1.33398 -22.666 2.00098 -39.999c0 -8.66699 0.166992 -18 0.5 -28s0.666016 -18.167 0.999023 -24.5s0.5 -9.83301 0.5 -10.5c8.66699 -105.333 26 -187.333 52 -246c2.66699 -7.33301 2.5 -15 -0.5 -23s-8.16699 -13.5 -15.5 -16.5s-15 -3 -23 0
s-13.667 8.16699 -17 15.5c-22 52 -38 115 -48 189c-12.667 -31.333 -26.334 -60.333 -41.001 -87c-22 -39.333 -45 -69 -69 -89c-33.333 -26.667 -67.666 -35.667 -102.999 -27c-24 6 -41.667 16.333 -53 31c-28 36.667 -28.667 79.667 -2 129
c16.667 30.667 47.667 68.667 93 114l50 47l55 54c28.667 30 43.334 51 44.001 63v6c-1.33301 0.666992 -2.66602 1 -3.99902 1c-12 2 -30.333 -1 -55 -9c-14.667 -4.66699 -30.334 -11 -47.001 -19c-16.667 -7.33301 -29.834 -13.666 -39.501 -18.999
s-15.834 -9 -18.501 -11c-6 -5.33301 -13.167 -7.66602 -21.5 -6.99902s-15.166 4.16699 -20.499 10.5s-7.66602 13.666 -6.99902 21.999s4.33398 15.166 11.001 20.499zM239.994 570.997c0 -8 -3 -15 -9 -21s-13 -9 -21 -9s-15 3 -21 9s-9 13 -9 21s3 15 9 21s13 9 21 9
s15 -3 21 -9s9 -13 9 -21zM354.994 571.997c0 -8 -3 -15 -9 -21s-13 -9 -21 -9s-15 3 -21 9s-9 13 -9 21s3 15 9 21s13 9 21 9s15 -3 21 -9s9 -13 9 -21z" />
    <glyph glyph-name="aring" unicode="&#xe5;" horiz-adv-x="445" 
d="M311 331l-6.00195 -7.00098c-11.333 -12 -29.666 -30 -54.999 -54l-51 -48c-41.333 -40.667 -68.666 -73.667 -81.999 -99c-14.667 -27.333 -15.667 -49 -3 -65c2.66699 -3.33301 9 -6.33301 19 -9c16 -4 33 1.33301 51 16c18 15.333 36.333 39.333 55 72
c31.333 54.667 54 112.667 68 174c2.66699 10.667 4 17.334 4 20.001zM265.998 584.999c6.66699 4.66699 12.333 9.33594 17 14.0029c17.333 19.333 20.5 37.166 9.5 53.499s-28.833 20.5 -53.5 12.5c-19.333 -6 -34 -17 -44 -33s-14.333 -31.333 -13 -46
c1.33301 -9.33301 5.33301 -15.333 12 -18c12 -4.66699 30.667 -0.333984 56 12.999c4.66699 3.33301 10 4.66602 16 3.99902zM232.997 510.001c-22 -5.33301 -41.6689 -4.66309 -59.002 2.00391c-30 10.667 -47 33 -51 67c-4 28.667 3 57 21 85s43.667 47.667 77 59
c25.333 7.33301 48.833 7.66602 70.5 0.999023s38.5 -19.334 50.5 -38.001c12.667 -18 17.834 -38.833 15.501 -62.5s-12.5 -45.167 -30.5 -64.5c-4 -4.66699 -8.16699 -8.83398 -12.5 -12.501s-9.16602 -7.16699 -14.499 -10.5l-14 -9l-14 -9l-12 -6
c-8.66699 -4.66699 -17.667 -5.33398 -27 -2.00098zM103.995 424.004c7.33301 6.66699 23.9961 16.332 49.9961 28.999c24.667 12.667 49.667 23 75 31c34 11.333 61.667 15 83 11c16.667 -2.66699 30 -9.66699 40 -21c10 -12.667 14.667 -28.334 14 -47.001
c0 -3.33301 -0.333008 -6.66602 -1 -9.99902c2 -1.33301 3.66699 -3 5 -5c2.66699 -2.66699 4.66699 -6 6 -10c0.666992 -2 1.33398 -4.66699 2.00098 -8c0.666992 -4 1.33398 -9.33301 2.00098 -16c0.666992 -9.33301 1.33398 -22.666 2.00098 -39.999
c0 -8.66699 0.166992 -18 0.5 -28s0.666016 -18.167 0.999023 -24.5s0.5 -9.83301 0.5 -10.5c8.66699 -105.333 26 -187.333 52 -246c2.66699 -7.33301 2.5 -15 -0.5 -23s-8.16699 -13.5 -15.5 -16.5s-15 -3 -23 0s-13.667 8.16699 -17 15.5c-22 52 -38 115 -48 189
c-12.667 -31.333 -26.334 -60.333 -41.001 -87c-22 -39.333 -45 -69 -69 -89c-33.333 -26.667 -67.666 -35.667 -102.999 -27c-24 6 -41.667 16.333 -53 31c-28 36.667 -28.667 79.667 -2 129c16.667 30.667 47.667 68.667 93 114l50 47l55 54
c28.667 30 43.334 51 44.001 63v6c-1.33301 0.666992 -2.66602 1 -3.99902 1c-12 2 -30.333 -1 -55 -9c-14.667 -4.66699 -30.334 -11 -47.001 -19c-16.667 -7.33301 -29.834 -13.666 -39.501 -18.999s-15.834 -9 -18.501 -11c-6 -5.33301 -13.167 -7.66602 -21.5 -6.99902
s-15.166 4.16699 -20.499 10.5s-7.66602 13.666 -6.99902 21.999s4.33398 15.166 11.001 20.499z" />
    <glyph glyph-name="ae" unicode="&#xe6;" horiz-adv-x="656" 
d="M311 331l-6.00195 -7.00098c-11.333 -12 -29.666 -30 -54.999 -54l-51 -48c-41.333 -40.667 -68.666 -73.667 -81.999 -99c-14.667 -27.333 -15.667 -49 -3 -65c2.66699 -3.33301 9 -6.33301 19 -9c16 -4 33 1.33301 51 16c18 15.333 36.333 39.333 55 72
c31.333 54.667 54 112.667 68 174c2.66699 10.667 4 17.334 4 20.001zM388.998 229.999c34 8 67.665 28.6631 100.998 61.9961c38.667 39.333 59.334 75.333 62.001 108c2 22.667 -5.66699 39.334 -23 50.001c-8 4.66699 -17.667 7.33398 -29 8.00098
s-23.666 -0.666016 -36.999 -3.99902s-27.5 -11 -42.5 -23s-28.833 -27.333 -41.5 -46c0.666992 -2.66699 1 -5 1 -7c0.666992 -9.33301 1.33398 -22.666 2.00098 -39.999c0 -8.66699 0.166992 -18 0.5 -28s0.666016 -18.167 0.999023 -24.5s0.5 -9.83301 0.5 -10.5
c1.33301 -16 3 -31 5 -45zM103.996 423.995c7.33301 6.66699 23.998 16.333 49.998 29c24.667 12.667 49.667 23 75 31c34 11.333 61.667 15 83 11c16.667 -2.66699 30 -9.66699 40 -21c4 -5.33301 7 -10.666 9 -15.999c30.667 31.333 64.667 50.666 102 57.999
s69.666 2.33301 96.999 -15c18 -10.667 31.667 -25.334 41 -44.001s13 -39.334 11 -62.001c-4 -47.333 -30.667 -95.666 -80 -144.999c-42.667 -42.667 -87 -69 -133 -79c5.33301 -23.333 12 -46.333 20 -69c10 -20.667 21.667 -35 35 -43c12.667 -8.66699 27 -11 43 -7
c17.333 4.66699 34.666 15.5 51.999 32.5s31.333 37.833 42 62.5c3.33301 7.33301 8.83301 12.5 16.5 15.5s15.334 3 23.001 0s13 -8.33301 16 -16s3.16699 -15.5 0.5 -23.5c-14 -32 -33.167 -59.833 -57.5 -83.5s-50.5 -38.834 -78.5 -45.501
c-32.667 -8 -62.667 -3.33301 -90 14c-16.667 10.667 -31.334 26.334 -44.001 47.001c-3.33301 2.66699 -6 6.33398 -8 11.001l-5 14c-2.66699 5.33301 -5 11 -7 17c-1.33301 2 -2 4.33301 -2 7c-9.33301 28.667 -16.666 59.334 -21.999 92.001
c-12.667 -32.667 -26.667 -62.334 -42 -89.001c-22 -39.333 -45 -69 -69 -89c-33.333 -26.667 -67.666 -35.667 -102.999 -27c-24 6 -41.667 16.333 -53 31c-28 36.667 -28.667 79.667 -2 129c16.667 30.667 47.667 68.667 93 114l50 47l55 54
c28.667 30 43.334 51 44.001 63v6c-1.33301 0.666992 -2.66602 1 -3.99902 1c-12 2 -30.333 -1 -55 -9c-14.667 -4.66699 -30.334 -11 -47.001 -19c-16.667 -7.33301 -29.834 -13.666 -39.501 -18.999s-15.834 -9 -18.501 -11c-6 -5.33301 -13.167 -7.66602 -21.5 -6.99902
s-15.166 4.16699 -20.499 10.5s-7.66602 13.666 -6.99902 21.999s4.33398 15.166 11.001 20.499z" />
    <glyph glyph-name="ccedilla" unicode="&#xe7;" horiz-adv-x="341" 
d="M282 350c-26 51.333 -51.0049 81.3311 -75.0049 89.998c-15.333 4.66699 -31 -1.66602 -47 -18.999c-19.333 -21.333 -35.166 -52.333 -47.499 -93s-17.833 -80 -16.5 -118c1.33301 -30.667 5 -57.5 11 -80.5s13.5 -40.167 22.5 -51.5s18 -19.666 27 -24.999
s17.5 -7.66602 25.5 -6.99902c22 1.33301 44.167 17.5 66.5 48.5s37.833 76.833 46.5 137.5c1.33301 8.66699 5.33301 15.334 12 20.001s14.167 6.5 22.5 5.5s14.833 -4.83301 19.5 -11.5s6.66699 -14 6 -22c-10 -67.333 -29.5 -122.333 -58.5 -165
s-63.167 -66.667 -102.5 -72c-9.33301 -20.667 -19.333 -38.167 -30 -52.5s-25 -29.166 -43 -44.499c-6 -5.33301 -13.167 -7.66602 -21.5 -6.99902s-15.166 4.16699 -20.499 10.5s-7.66602 13.666 -6.99902 21.999s4.33398 15.166 11.001 20.499c22 18.667 38.333 39 49 61
c-28 13.333 -50.5 38.666 -67.5 75.999s-26.5 82.333 -28.5 135c-1.33301 44.667 5 91.334 19 140.001c14.667 47.333 34.667 85 60 113c34 37.333 71 49.333 111 36c39.333 -13.333 76 -53 110 -119c3.33301 -7.33301 3.83301 -15 1.5 -23s-7.16602 -13.833 -14.499 -17.5
s-15 -4.33398 -23 -2.00098s-14 7.16602 -18 14.499z" />
    <glyph glyph-name="egrave" unicode="&#xe8;" horiz-adv-x="359" 
d="M129 336c6 -4 17.334 -4.66895 34.001 -2.00195c19.333 4 38.333 11.667 57 23c19.333 12.667 32.166 25.167 38.499 37.5s6.83301 23.5 1.5 33.5c-2 4 -6.33301 7 -13 9c-28 8.66699 -55 -2.66602 -81 -33.999c-14 -17.333 -26.333 -39.666 -37 -66.999zM79.001 371.998
c12 27.333 25.667 50.334 41 69.001c42 52.667 90.333 70.667 145 54c22.667 -7.33301 39 -20.333 49 -39c15.333 -29.333 15.666 -57.333 0.999023 -84s-35.667 -48.334 -63 -65.001c-25.333 -16 -51.666 -26.667 -78.999 -32c-24 -4 -45 -3 -63 3
c-0.666992 -4 -1.66699 -8.33301 -3 -13c-12 -57.333 -12.667 -108.666 -2 -153.999c9.33301 -40.667 26 -63.334 50 -68.001c36.667 -6.66699 72 16 106 68c8 11.333 19 36 33 74c2.66699 8 7.83398 13.667 15.501 17s15.334 3.66602 23.001 0.999023
s13.167 -7.83398 16.5 -15.501s3.66602 -15.167 0.999023 -22.5c-1.33301 -3.33301 -3.33301 -9 -6 -17s-5 -14 -7 -18l-6 -16c-2.66699 -6.66699 -5.66699 -13 -9 -19s-7 -12 -11 -18c-48.667 -73.333 -104 -104 -166 -92c-50.667 8.66699 -83.667 46.334 -99 113.001
c-12 52.667 -11 112.334 3 179.001c4 19.333 9 38 15 56c-3.33301 6.66699 -3.83301 13.667 -1.5 21s6.5 13 12.5 17c1.33301 0.666992 2.66602 1 3.99902 1zM151.001 648.999c9.33301 -8 19 -15.8301 29 -23.4971s23 -16.834 39 -27.501l33 -24
c6.66699 -4.66699 10.667 -11.167 12 -19.5s-0.5 -15.833 -5.5 -22.5s-11.667 -10.667 -20 -12s-15.833 0.666992 -22.5 6c-4 3.33301 -14.333 10.666 -31 21.999s-30.667 21.333 -42 30s-22 17.667 -32 27c-6 5.33301 -9.33301 12.166 -10 20.499s1.83301 15.5 7.5 21.5
s12.667 9.33301 21 10s15.5 -2 21.5 -8z" />
    <glyph glyph-name="eacute" unicode="&#xe9;" horiz-adv-x="331" 
d="M129 336c6 -4 17.334 -4.66895 34.001 -2.00195c19.333 4 38.333 11.667 57 23c19.333 12.667 32.166 25.167 38.499 37.5s6.83301 23.5 1.5 33.5c-2 4 -6.33301 7 -13 9c-28 8.66699 -55 -2.66602 -81 -33.999c-14 -17.333 -26.333 -39.666 -37 -66.999zM79.001 371.998
c12 27.333 25.667 50.334 41 69.001c42 52.667 90.333 70.667 145 54c22.667 -7.33301 39 -20.333 49 -39c15.333 -29.333 15.666 -57.333 0.999023 -84s-35.667 -48.334 -63 -65.001c-25.333 -16 -51.666 -26.667 -78.999 -32c-24 -4 -45 -3 -63 3
c-0.666992 -4 -1.66699 -8.33301 -3 -13c-12 -57.333 -12.667 -108.666 -2 -153.999c9.33301 -40.667 26 -63.334 50 -68.001c36.667 -6.66699 72 16 106 68c8 11.333 19 36 33 74c2.66699 8 7.83398 13.667 15.501 17s15.334 3.66602 23.001 0.999023
s13.167 -7.83398 16.5 -15.501s3.66602 -15.167 0.999023 -22.5c-1.33301 -3.33301 -3.33301 -9 -6 -17s-5 -14 -7 -18l-6 -16c-2.66699 -6.66699 -5.66699 -13 -9 -19s-7 -12 -11 -18c-48.667 -73.333 -104 -104 -166 -92c-50.667 8.66699 -83.667 46.334 -99 113.001
c-12 52.667 -11 112.334 3 179.001c4 19.333 9 38 15 56c-3.33301 6.66699 -3.83301 13.667 -1.5 21s6.5 13 12.5 17c1.33301 0.666992 2.66602 1 3.99902 1zM133.001 570.999l14 10.9971c4.66699 3.33301 9.66699 7.33301 15 12l13 12l14 13l14 13l14 14
c7.33301 8 11.666 13 12.999 15c6 6 13.167 9 21.5 9s15.5 -2.83301 21.5 -8.5s9 -12.667 9 -21s-2.66699 -15.5 -8 -21.5l-13 -14c-7.33301 -7.33301 -12.5 -12.333 -15.5 -15s-7.66699 -7.16699 -14 -13.5s-11.5 -11.166 -15.5 -14.499l-15 -14
c-5.33301 -5.33301 -10.833 -10.166 -16.5 -14.499s-11.5 -8.5 -17.5 -12.5c-6.66699 -4.66699 -14.167 -6.16699 -22.5 -4.5s-14.833 5.83398 -19.5 12.501s-6.16699 14.167 -4.5 22.5s5.83398 14.833 12.501 19.5z" />
    <glyph glyph-name="ecircumflex" unicode="&#xea;" horiz-adv-x="359" 
d="M129 336c6 -4 17.334 -4.66895 34.001 -2.00195c19.333 4 38.333 11.667 57 23c19.333 12.667 32.166 25.167 38.499 37.5s6.83301 23.5 1.5 33.5c-2 4 -6.33301 7 -13 9c-28 8.66699 -55 -2.66602 -81 -33.999c-14 -17.333 -26.333 -39.666 -37 -66.999zM79.001 371.998
c12 27.333 25.667 50.334 41 69.001c42 52.667 90.333 70.667 145 54c22.667 -7.33301 39 -20.333 49 -39c15.333 -29.333 15.666 -57.333 0.999023 -84s-35.667 -48.334 -63 -65.001c-25.333 -16 -51.666 -26.667 -78.999 -32c-24 -4 -45 -3 -63 3
c-0.666992 -4 -1.66699 -8.33301 -3 -13c-12 -57.333 -12.667 -108.666 -2 -153.999c9.33301 -40.667 26.333 -63.334 51 -68.001c36 -6.66699 71 16 105 68c8 11.333 19 36 33 74c2.66699 8 7.83398 13.667 15.501 17s15.334 3.66602 23.001 0.999023
s13.167 -7.83398 16.5 -15.501s3.66602 -15.167 0.999023 -22.5c-1.33301 -3.33301 -3.33301 -9 -6 -17s-5 -14 -7 -18l-6 -16c-2.66699 -6.66699 -5.66699 -13 -9 -19s-7 -12 -11 -18c-48.667 -73.333 -104 -104 -166 -92c-50.667 8.66699 -83.667 46.334 -99 113.001
c-12 52.667 -11 112.334 3 179.001c4 19.333 9 38 15 56c-3.33301 6.66699 -3.83301 13.667 -1.5 21s6.5 13 12.5 17c1.33301 0.666992 2.66602 1 3.99902 1zM112.001 570.999c18 18 37.332 41.3359 57.999 70.0029c9.33301 13.333 16 22.333 20 27
c8.66699 10 17.334 17 26.001 21c24 10.667 46.667 0.666992 68 -30c10.667 -16 29.334 -50.333 56.001 -103c3.33301 -7.33301 3.83301 -14.833 1.5 -22.5s-7.33301 -13.334 -15 -17.001s-15.334 -4.33398 -23.001 -2.00098s-13.5 7.5 -17.5 15.5c-26 52 -43 83.667 -51 95
l-1 1c-2.66699 -2.66699 -7.66699 -9.33398 -15 -20.001c-22.667 -31.333 -43.667 -57 -63 -77c-6 -6 -13.167 -9 -21.5 -9s-15.5 2.83301 -21.5 8.5s-9 12.667 -9 21s2.66699 15.5 8 21.5z" />
    </font>
</defs>
</svg>
